<svg width="469" height="112" viewBox="0 0 469 112" fill="none" xmlns="http://www.w3.org/2000/svg">
<path d="M467.713 7.93907C468.073 7.99073 468.407 7.74064 468.459 7.38049C468.511 7.02034 468.26 6.6865 467.9 6.63485L467.713 7.93907ZM0.606689 105.405L0.493054 106.054C55.9223 115.761 95.3453 111.957 127.692 101.389C160.017 90.8275 185.239 73.5182 212.218 56.3289C239.209 39.132 268.005 22.0198 307.578 11.7082C347.15 1.39649 397.543 -2.12467 467.713 7.93907L467.807 7.28696L467.9 6.63485C397.597 -3.44795 347.023 0.0681057 307.246 10.4332C267.467 20.7984 238.53 38.0027 211.51 55.2177C184.478 72.4404 159.414 89.6385 127.283 100.136C95.1751 110.627 55.9748 114.433 0.720325 104.757L0.606689 105.405Z" fill="#1A202C"/>
</svg>
