<svg width="29" height="29" viewBox="0 0 29 29" fill="none" xmlns="http://www.w3.org/2000/svg">
<g clip-path="url(#clip0_54_810)">
<path d="M28.9255 27.4412C28.9255 28.0585 28.4155 28.5572 27.7842 28.5572H1.53262C0.901302 28.5572 0.391253 28.0585 0.391253 27.4412V12.7936H28.9255V27.4412ZM1.53262 3.168H7.52482V0.935984C7.52482 0.782533 7.65323 0.656982 7.81017 0.656982H9.80757C9.96451 0.656982 10.0929 0.782533 10.0929 0.935984V3.168H19.2239V0.935984C19.2239 0.782533 19.3523 0.656982 19.5092 0.656982H21.5066C21.6636 0.656982 21.792 0.782533 21.792 0.935984V3.168H27.7842C28.4155 3.168 28.9255 3.66672 28.9255 4.28401V10.422H0.391253V4.28401C0.391253 3.66672 0.901302 3.168 1.53262 3.168Z" fill="#046A38"/>
</g>
<defs>
<clipPath id="clip0_54_810">
<rect width="28.5343" height="27.9002" fill="white" transform="matrix(-1 0 0 1 28.9255 0.656982)"/>
</clipPath>
</defs>
</svg>
