<?xml version="1.0" encoding="utf-8"?>
<!-- Generator: Adobe Illustrator 27.5.0, SVG Export Plug-In . SVG Version: 6.00 Build 0)  -->
<svg version="1.1" xmlns="http://www.w3.org/2000/svg" xmlns:xlink="http://www.w3.org/1999/xlink" x="0px" y="0px"
	 viewBox="0 0 3710 3710" style="enable-background:new 0 0 3710 3710;" xml:space="preserve">
<g id="Background">
	<g>
		<g>
			<rect style="fill:#FFFFFF;" width="3710" height="3710"/>
		</g>
	</g>
</g>
<g id="Illustration">
	<g>
		<path style="fill:#F4F7FA;" d="M2390.233,543.262c-201.425-42.851-410.844-63.39-615.605-50.298
			c-181.483,11.604-387.198,43.274-533.241,156.718c-69.598,54.063-152.597,151.207-175.362,236.907
			c-0.003,0.01-119.832,451.097-359.488,547.76C466.879,1531.012,300.45,3180.736,2117.859,3019.63
			c0,0,1067.447-42.216,1131.72-1258.214c15.526-293.747,6.852-616.677-179.15-862.298
			c-142.534-188.221-342.237-271.911-571.718-330.47C2462.864,559.5,2426.68,551.016,2390.233,543.262z"/>
		<g>
			<g>
				
					<linearGradient id="SVGID_1_" gradientUnits="userSpaceOnUse" x1="1937.3069" y1="2458.1604" x2="2184.2314" y2="2842.2656" gradientTransform="matrix(0.9902 0.1396 -0.1396 0.9902 679.1193 -1735.0458)">
					<stop  offset="0.0036" style="stop-color:#FFFFFF"/>
					<stop  offset="1" style="stop-color:#F4F7FA"/>
				</linearGradient>
				<polygon style="fill:url(#SVGID_1_);" points="2347.349,1829.176 1900.974,1673.615 2323.253,461.901 2769.629,617.462 				"/>
				
					<linearGradient id="SVGID_00000062175377505314747780000004876300715718920837_" gradientUnits="userSpaceOnUse" x1="3274.1636" y1="1740.2402" x2="3481.9143" y2="2784.4631" gradientTransform="matrix(0.9443 0.3291 -0.3291 0.9443 -0.0632 -2270.3789)">
					<stop  offset="0" style="stop-color:#FFC444"/>
					<stop  offset="0.9964" style="stop-color:#F36F56"/>
				</linearGradient>
				<polygon style="fill:url(#SVGID_00000062175377505314747780000004876300715718920837_);" points="2618.057,852.581 
					2281.371,735.247 2352.415,531.388 2689.101,648.722 				"/>
				
					<linearGradient id="SVGID_00000000220666310388070100000002262975581297068478_" gradientUnits="userSpaceOnUse" x1="3208.8921" y1="1664.8104" x2="3416.6426" y2="2709.0334" gradientTransform="matrix(0.9443 0.3291 -0.3291 0.9443 -0.0632 -2270.3789)">
					<stop  offset="0" style="stop-color:#FFC444"/>
					<stop  offset="0.9964" style="stop-color:#F36F56"/>
				</linearGradient>
				<polygon style="fill:url(#SVGID_00000000220666310388070100000002262975581297068478_);" points="2534.908,1091.172 
					2198.222,973.838 2269.267,769.979 2605.953,887.313 				"/>
				
					<linearGradient id="SVGID_00000122696102029254773740000017090650263653230768_" gradientUnits="userSpaceOnUse" x1="3160.1526" y1="1672.4768" x2="3367.9033" y2="2716.6997" gradientTransform="matrix(0.9443 0.3291 -0.3291 0.9443 -0.0632 -2270.3789)">
					<stop  offset="0" style="stop-color:#FFC444"/>
					<stop  offset="0.9964" style="stop-color:#F36F56"/>
				</linearGradient>
				<polygon style="fill:url(#SVGID_00000122696102029254773740000017090650263653230768_);" points="2451.76,1329.763 
					2115.074,1212.429 2186.118,1008.569 2522.805,1125.904 				"/>
				
					<linearGradient id="SVGID_00000102525347087088423750000010638621807314896797_" gradientUnits="userSpaceOnUse" x1="3125.8472" y1="1752.6923" x2="3333.5977" y2="2796.9153" gradientTransform="matrix(0.9443 0.3291 -0.3291 0.9443 -0.0632 -2270.3789)">
					<stop  offset="0" style="stop-color:#FFC444"/>
					<stop  offset="0.9964" style="stop-color:#F36F56"/>
				</linearGradient>
				<polygon style="fill:url(#SVGID_00000102525347087088423750000010638621807314896797_);" points="2368.612,1568.354 
					2031.926,1451.02 2102.97,1247.16 2439.656,1364.495 				"/>
				<g style="opacity:0.3;">
					
						<linearGradient id="SVGID_00000128463988634852217850000011941967084361500348_" gradientUnits="userSpaceOnUse" x1="2401.9263" y1="2028.2361" x2="2111.8918" y2="2737.6445" gradientTransform="matrix(0.9902 0.1396 -0.1396 0.9902 679.1193 -1735.0458)">
						<stop  offset="0" style="stop-color:#FFC444"/>
						<stop  offset="0.9964" style="stop-color:#F36F56"/>
					</linearGradient>
					<path style="fill:url(#SVGID_00000128463988634852217850000011941967084361500348_);" d="M2769.629,617.462l-237.29-82.695
						c12.688,49.921,17.607,106.276,4.375,164.804c-25.178,111.366-98.225,151.74-175.732,278.01
						c-80.891,131.783-79.711,215.506-121.545,356.889c-30.524,103.156-84.22,237.897-186.668,392.045l294.581,102.661
						L2769.629,617.462z"/>
				</g>
			</g>
			<g>
				
					<linearGradient id="SVGID_00000055672981361266488380000004712739972865676450_" gradientUnits="userSpaceOnUse" x1="2535.7959" y1="2204.3491" x2="2171.2952" y2="2864.761" gradientTransform="matrix(0.9902 0.1396 -0.1396 0.9902 679.1193 -1735.0458)">
					<stop  offset="0.0036" style="stop-color:#FFFFFF"/>
					<stop  offset="1" style="stop-color:#F4F7FA"/>
				</linearGradient>
				<polygon style="fill:url(#SVGID_00000055672981361266488380000004712739972865676450_);" points="2198.79,1891.141 
					1882.849,1539.528 2837.325,681.888 3153.265,1033.5 				"/>
				
					<linearGradient id="SVGID_00000036227960826524368330000002905896318738555807_" gradientUnits="userSpaceOnUse" x1="6990.6768" y1="17.5448" x2="7154.4341" y2="896.6659" gradientTransform="matrix(0.6684 0.7438 -0.7438 0.6684 -1672.9418 -4404.0601)">
					<stop  offset="0.0036" style="stop-color:#E38DDD"/>
					<stop  offset="1" style="stop-color:#9571F6"/>
				</linearGradient>
				<polygon style="fill:url(#SVGID_00000036227960826524368330000002905896318738555807_);" points="2907.066,1166.322 
					2668.763,901.112 2829.344,756.822 3067.648,1022.031 				"/>
				
					<linearGradient id="SVGID_00000115486638958157762350000012197088532342013627_" gradientUnits="userSpaceOnUse" x1="6945.1758" y1="26.0046" x2="7108.9336" y2="905.1257" gradientTransform="matrix(0.6684 0.7438 -0.7438 0.6684 -1672.9418 -4404.0601)">
					<stop  offset="0.0036" style="stop-color:#E38DDD"/>
					<stop  offset="1" style="stop-color:#9571F6"/>
				</linearGradient>
				<polygon style="fill:url(#SVGID_00000115486638958157762350000012197088532342013627_);" points="2719.127,1335.194 
					2480.823,1069.984 2641.405,925.694 2879.708,1190.904 				"/>
				
					<linearGradient id="SVGID_00000088133666260597620810000018133325392837049250_" gradientUnits="userSpaceOnUse" x1="6899.6758" y1="34.466" x2="7063.4336" y2="913.5868" gradientTransform="matrix(0.6684 0.7438 -0.7438 0.6684 -1672.9418 -4404.0601)">
					<stop  offset="0.0036" style="stop-color:#E38DDD"/>
					<stop  offset="1" style="stop-color:#9571F6"/>
				</linearGradient>
				<polygon style="fill:url(#SVGID_00000088133666260597620810000018133325392837049250_);" points="2531.187,1504.067 
					2292.884,1238.857 2453.465,1094.567 2691.769,1359.777 				"/>
				
					<linearGradient id="SVGID_00000003067572279265081530000004921360675813047938_" gradientUnits="userSpaceOnUse" x1="6824.1699" y1="-118.1567" x2="6987.9272" y2="760.9645" gradientTransform="matrix(0.6684 0.7438 -0.7438 0.6684 -1672.9418 -4404.0601)">
					<stop  offset="0.0036" style="stop-color:#E38DDD"/>
					<stop  offset="1" style="stop-color:#9571F6"/>
				</linearGradient>
				<polygon style="fill:url(#SVGID_00000003067572279265081530000004921360675813047938_);" points="2343.248,1672.939 
					2104.944,1407.729 2265.526,1263.439 2503.829,1528.649 				"/>
				<g style="opacity:0.3;">
					
						<linearGradient id="SVGID_00000154422489062101948050000015434361890456588454_" gradientUnits="userSpaceOnUse" x1="2613.5891" y1="2247.2793" x2="2249.0872" y2="2907.6934" gradientTransform="matrix(0.9902 0.1396 -0.1396 0.9902 679.1193 -1735.0458)">
						<stop  offset="0.0036" style="stop-color:#E38DDD"/>
						<stop  offset="1" style="stop-color:#9571F6"/>
					</linearGradient>
					<path style="fill:url(#SVGID_00000154422489062101948050000015434361890456588454_);" d="M3153.265,1033.5l-208.082-231.576
						c-16.164,82.332-48.976,132.323-79.367,164.192c-85.389,89.544-176.969,62.743-301.081,156.448
						c-116.379,87.866-133.927,185.478-194.016,281.369c-57.171,91.233-161.294,194.38-366.818,270.315l194.889,216.894
						L3153.265,1033.5z"/>
				</g>
			</g>
			<g>
				
					<linearGradient id="SVGID_00000149340959736872935130000010010456837654683784_" gradientUnits="userSpaceOnUse" x1="2363.1848" y1="2775.5537" x2="2476.8547" y2="3194.9551" gradientTransform="matrix(0.9902 0.1396 -0.1396 0.9902 679.1193 -1735.0458)">
					<stop  offset="0.0036" style="stop-color:#FFFFFF"/>
					<stop  offset="1" style="stop-color:#F4F7FA"/>
				</linearGradient>
				<polygon style="fill:url(#SVGID_00000149340959736872935130000010010456837654683784_);" points="2081.736,1889.74 
					1974.631,1429.328 3224.447,1138.586 3331.552,1598.998 				"/>
				
					<linearGradient id="SVGID_00000164507241679592445610000004214907985252931260_" gradientUnits="userSpaceOnUse" x1="9435.6152" y1="-3204.0068" x2="9599.3662" y2="-2324.9224" gradientTransform="matrix(0.2266 0.974 -0.974 0.2266 -2109.6426 -7080.0742)">
					<stop  offset="0" style="stop-color:#FF9085"/>
					<stop  offset="1" style="stop-color:#FB6FBB"/>
				</linearGradient>
				<polygon style="fill:url(#SVGID_00000164507241679592445610000004214907985252931260_);" points="3051.821,1596.56 
					2971.035,1249.287 3181.305,1200.373 3262.091,1547.646 				"/>
				
					<linearGradient id="SVGID_00000056388351041575638930000016962348899100720821_" gradientUnits="userSpaceOnUse" x1="9380.0918" y1="-3249.3948" x2="9543.8428" y2="-2370.3105" gradientTransform="matrix(0.2266 0.974 -0.974 0.2266 -2109.6426 -7080.0742)">
					<stop  offset="0" style="stop-color:#FF9085"/>
					<stop  offset="1" style="stop-color:#FB6FBB"/>
				</linearGradient>
				<polygon style="fill:url(#SVGID_00000056388351041575638930000016962348899100720821_);" points="2805.728,1653.809 
					2724.942,1306.536 2935.212,1257.621 3015.997,1604.894 				"/>
				
					<linearGradient id="SVGID_00000090261116323570088030000017751637734611061636_" gradientUnits="userSpaceOnUse" x1="9328.7354" y1="-3272.4077" x2="9492.4863" y2="-2393.3235" gradientTransform="matrix(0.2266 0.974 -0.974 0.2266 -2109.6426 -7080.0742)">
					<stop  offset="0" style="stop-color:#FF9085"/>
					<stop  offset="1" style="stop-color:#FB6FBB"/>
				</linearGradient>
				<polygon style="fill:url(#SVGID_00000090261116323570088030000017751637734611061636_);" points="2559.635,1711.057 
					2478.849,1363.784 2689.119,1314.869 2769.904,1662.142 				"/>
				
					<linearGradient id="SVGID_00000014593553662484242770000011467844200408824739_" gradientUnits="userSpaceOnUse" x1="9273.3027" y1="-3317.3064" x2="9437.0537" y2="-2438.2219" gradientTransform="matrix(0.2266 0.974 -0.974 0.2266 -2109.6426 -7080.0742)">
					<stop  offset="0" style="stop-color:#FF9085"/>
					<stop  offset="1" style="stop-color:#FB6FBB"/>
				</linearGradient>
				<polygon style="fill:url(#SVGID_00000014593553662484242770000011467844200408824739_);" points="2313.542,1768.305 
					2232.756,1421.032 2443.026,1372.117 2523.811,1719.39 				"/>
				<g style="opacity:0.3;">
					
						<linearGradient id="SVGID_00000104698150072359062770000001135180514414050209_" gradientUnits="userSpaceOnUse" x1="2839.4678" y1="2450.8542" x2="2502.3962" y2="2983.8979" gradientTransform="matrix(0.9902 0.1396 -0.1396 0.9902 679.1193 -1735.0458)">
						<stop  offset="0" style="stop-color:#FF9085"/>
						<stop  offset="1" style="stop-color:#FB6FBB"/>
					</linearGradient>
					<path style="fill:url(#SVGID_00000104698150072359062770000001135180514414050209_);" d="M3331.551,1598.998l-68.738-295.485
						c-63.669,96.77-129.413,134.683-179.704,151.189c-117.562,38.585-185.62-28.3-339.275-4.341
						c-144.083,22.467-205.66,100.211-303.921,156.342c-87.116,49.764-215.072,89.369-407.704,70.135l49.527,212.902
						L3331.551,1598.998z"/>
				</g>
			</g>
			
				<linearGradient id="SVGID_00000018195552636637294270000010435666169008393649_" gradientUnits="userSpaceOnUse" x1="3241.3513" y1="2990.9761" x2="3341.8884" y2="2990.9761" gradientTransform="matrix(0.9443 0.3291 -0.3291 0.9443 -0.0632 -2270.3789)">
				<stop  offset="0.0036" style="stop-color:#E38DDD"/>
				<stop  offset="1" style="stop-color:#9571F6"/>
			</linearGradient>
			
				<circle style="fill:url(#SVGID_00000018195552636637294270000010435666169008393649_);" cx="2123.883" cy="1637.272" r="50.269"/>
		</g>
		<g>
			<g>
				<path style="fill:#97A6B7;" d="M2352.488,1066.214l-59.32,0.102c-4.086-39.184-13.507-76.798-27.524-112.135l50.155-29.086
					c13.707-7.949,18.394-25.878,10.493-40.087l-21.076-37.902c-7.949-14.296-25.602-19.546-39.454-11.684l-49.531,28.112
					c-23.053-32.304-50.566-61.431-81.729-86.483l28.489-48.938c8.175-14.042,3.325-32.521-10.856-41.32l-37.916-23.525
					c-14.334-8.893-32.725-4.69-41.052,9.435l-28.554,48.437c-36.689-17.089-76.334-29.417-118.151-36.03v-57.44
					c0-16.945-13.939-31.318-31.188-32.105l-46.165-2.107c-17.47-0.797-31.677,12.442-31.677,29.574v58.071
					c-43.106,3.592-84.659,13.281-123.723,28.275l-30.816-52.499c-9.056-15.427-29.169-21.409-44.954-13.314l-42.217,21.652
					c-15.965,8.188-21.446,27.456-12.213,42.988l31.929,53.711c-34.947,24.706-66.188,54.283-92.65,87.82l-57.753-32.675
					c-16.374-9.264-37.386-4.461-46.901,10.779l-25.389,40.664c-9.579,15.342-3.892,35.251,12.67,44.417l59.76,33.07
					c-16.57,38.161-27.763,79.068-32.633,121.84l-71.684,0.123c-19.292,0.033-34.984,14.656-34.984,32.661v47.882
					c0,18.004,15.692,32.405,34.984,32.165l73.587-0.916c6.213,41.771,18.483,81.537,35.921,118.455l-64.952,36.863
					c-16.562,9.4-22.249,29.389-12.67,44.596l25.389,40.305c9.515,15.105,30.528,19.61,46.901,10.114l65.695-38.099
					c26.249,31.046,56.777,58.324,90.653,81.028l-37.875,64.249c-9.233,15.663-3.752,34.853,12.213,42.815l42.217,21.054
					c15.785,7.872,35.898,1.605,44.954-13.95l37.563-64.525c37.091,13.082,76.345,21.385,116.976,24.251v71.932
					c0,17.131,14.207,30.169,31.677,29.125l46.165-2.76c17.249-1.031,31.188-15.601,31.188-32.547v-71.15
					c39.436-6.741,76.94-18.539,111.854-34.586l34.85,58.625c8.327,14.007,26.718,17.95,41.052,8.853l37.917-24.062
					c14.181-8.999,19.03-27.548,10.856-41.474l-33.831-57.636c30.283-23.965,57.242-51.69,80.177-82.353l56.426,31.225
					c13.851,7.665,31.504,2.165,39.454-12.243l21.076-38.201c7.901-14.321,3.214-32.183-10.493-39.938l-54.565-30.871
					c14.777-34.667,25.119-71.57,30.337-110.011l60.917-0.758c15.703-0.195,28.394-13.461,28.394-29.63v-43.001
					C2380.882,1079.274,2368.191,1066.188,2352.488,1066.214z M1872.245,1420.198c-175.528,6.514-322.418-129.714-322.418-304.484
					c0-174.769,146.89-312.875,322.418-308.605c169.563,4.125,302.849,140.447,302.849,304.609
					C2175.094,1275.88,2041.808,1413.906,1872.245,1420.198z"/>
				<polygon style="fill:#97A6B7;" points="1675.837,641.314 1633.588,639.857 1619.019,677.736 				"/>
				<polygon style="fill:#97A6B7;" points="2094.777,658.797 2143.495,659.282 2143.495,695.219 				"/>
				<polygon style="fill:#97A6B7;" points="2280.442,832.146 2329.005,834.108 2316.864,861.303 				"/>
				<polygon style="fill:#97A6B7;" points="2356.686,1066.723 2405.734,1070.608 2389.708,1094.404 				"/>
				<polygon style="fill:#97A6B7;" points="2275.1,1403.262 2322.692,1410.061 2328.519,1371.211 				"/>
				<polygon style="fill:#97A6B7;" points="2092.99,1578.573 2135.725,1586.343 2139.125,1554.778 				"/>
				<polygon style="fill:#97A6B7;" points="1879.315,1654.331 1840.95,1647.532 1873.973,1598.484 				"/>
				<polygon style="fill:#97A6B7;" points="1671.466,1613.053 1626.789,1603.826 1661.268,1562.062 				"/>
				<polygon style="fill:#97A6B7;" points="1420.397,812.74 1467.018,814.197 1448.564,848.191 				"/>
				<polygon style="fill:#97A6B7;" points="1327.643,1178.417 1370.378,1184.73 1366.979,1149.765 				"/>
				<polygon style="fill:#97A6B7;" points="1419.426,1434.342 1461.19,1441.141 1464.59,1413.46 				"/>
			</g>
			<path style="fill:#D8DEE8;" d="M2400.415,1070.066l-59.812,0.103c-4.12-39.503-13.619-77.424-27.752-113.049l50.571-29.323
				c13.821-8.014,18.547-26.089,10.58-40.414l-21.251-38.211c-8.015-14.412-25.814-19.705-39.781-11.78l-49.942,28.341
				c-23.244-32.567-50.985-61.931-82.406-87.187l28.725-49.336c8.242-14.156,3.353-32.786-10.946-41.656l-38.231-23.717
				c-14.453-8.966-32.996-4.728-41.392,9.512l-28.79,48.832c-36.993-17.229-76.967-29.657-119.13-36.323V627.95
				c0-17.084-14.055-31.573-31.447-32.367l-46.547-2.124c-17.615-0.804-31.94,12.544-31.94,29.815v58.544
				c-43.463,3.621-85.361,13.389-124.748,28.505l-31.072-52.927c-9.131-15.553-29.411-21.584-45.326-13.422l-42.567,21.828
				c-16.097,8.255-21.624,27.679-12.314,43.338l32.194,54.148c-35.236,24.908-66.736,54.726-93.418,88.536l-58.232-32.941
				c-16.509-9.339-37.696-4.497-47.29,10.867l-25.6,40.995c-9.658,15.467-3.924,35.538,12.775,44.778l60.256,33.34
				c-16.708,38.472-27.993,79.712-32.904,122.833l-72.278,0.124c-19.452,0.033-35.274,14.775-35.274,32.927v48.272
				c0,18.151,15.822,32.669,35.274,32.427l74.197-0.923c6.264,42.111,18.636,82.201,36.219,119.42l-65.49,37.164
				c-16.699,9.476-22.433,29.629-12.775,44.959l25.6,40.633c9.594,15.228,30.781,19.77,47.29,10.197l66.24-38.409
				c26.466,31.299,57.248,58.799,91.405,81.688l-38.189,64.772c-9.31,15.791-3.783,35.137,12.314,43.164l42.567,21.226
				c15.916,7.936,36.196,1.618,45.327-14.064l37.874-65.051c37.398,13.189,76.977,21.559,117.946,24.448v72.518
				c0,17.271,14.325,30.415,31.94,29.362l46.547-2.783c17.392-1.04,31.447-15.729,31.447-32.812v-71.73
				c39.763-6.796,77.578-18.69,112.781-34.867l35.139,59.102c8.396,14.121,26.939,18.096,41.392,8.926l38.231-24.258
				c14.299-9.073,19.188-27.772,10.946-41.811l-34.112-58.106c30.534-24.16,57.717-52.111,80.841-83.024l56.894,31.48
				c13.966,7.728,31.765,2.183,39.781-12.343l21.251-38.512c7.967-14.438,3.24-32.445-10.58-40.263l-55.017-31.122
				c14.9-34.949,25.327-72.153,30.589-110.907l61.421-0.764c15.833-0.197,28.629-13.571,28.629-29.872v-43.351
				C2429.044,1083.232,2416.247,1070.039,2400.415,1070.066z M1916.19,1426.933c-176.983,6.566-325.09-130.771-325.09-306.965
				c0-176.193,148.108-315.424,325.09-311.119c170.968,4.158,305.36,141.591,305.36,307.091
				C2221.55,1281.44,2087.159,1420.59,1916.19,1426.933z"/>
		</g>
		<g>
			<g>
				<g>
					<defs>
						<path id="SVGID_00000039834356952223818770000010358415758558177183_" d="M1533.956,1824.102
							c-64.525-60.551-149.666-158.891-188.193-297.939c-50.527-182.359,23.516-274.513,15.167-583.254
							c-5.279-195.214-10.931-331.396-109.347-404.237c-77.124-57.082-201.982-68.43-277.759-15.521
							c-63.006,43.992-99.457,137.559-110.579,204.347c-9.065,54.432-1.784,93.954-33.161,122.628
							c-32.066,29.304-66.683,12.714-96.667,34.418c-60.807,44.016-25.598,189.815-19.907,213.379
							c63.3,262.121,304.823,438.905,411.105,514.75C1212.491,1675.385,1348.433,1758.95,1533.956,1824.102z"/>
					</defs>
					
						<linearGradient id="SVGID_00000044886420118384325350000004847675690890692531_" gradientUnits="userSpaceOnUse" x1="698.2173" y1="1156.5782" x2="1533.9564" y2="1156.5782">
						<stop  offset="0" style="stop-color:#AA80F9"/>
						<stop  offset="0.9964" style="stop-color:#6165D7"/>
					</linearGradient>
					
						<use xlink:href="#SVGID_00000039834356952223818770000010358415758558177183_"  style="overflow:visible;fill:url(#SVGID_00000044886420118384325350000004847675690890692531_);"/>
					<clipPath id="SVGID_00000083071582310125424240000008487537337778505118_">
						<use xlink:href="#SVGID_00000039834356952223818770000010358415758558177183_"  style="overflow:visible;"/>
					</clipPath>
					<g style="opacity:0.5;clip-path:url(#SVGID_00000083071582310125424240000008487537337778505118_);">
						<path style="fill:#FFFFFF;" d="M1607.385,1873.351c-112.582-42.78-209.488-93.819-288.027-151.699
							c-116.343-85.74-188.813-184.264-215.396-292.839c-20.783-84.881-13.085-176.768-3.337-293.102
							c8.082-96.449,22.492-163.993,35.206-223.584c16.449-77.104,29.442-138.004,20.432-226.002
							c-9.157-89.422-38.661-178.352-87.691-264.321l6.18-3.525c49.526,86.835,79.331,176.707,88.587,267.121
							c9.126,89.111-3.971,150.495-20.551,228.21c-12.67,59.386-27.03,126.695-35.072,222.672
							c-10.075,120.231-17.353,207.085,3.154,290.837c26.177,106.912,97.741,204.079,212.707,288.803
							c78.019,57.497,174.355,108.224,286.333,150.775L1607.385,1873.351z"/>
						<path style="fill:#FFFFFF;" d="M1109.573,1069.635l-1.148-3.853c-51.822-173.95-144.832-282.82-213.734-343.52
							c-74.69-65.799-137.951-90.773-138.58-91.017l2.571-6.634c0.639,0.248,64.855,25.555,140.454,92.086
							c69.169,60.871,162.342,169.67,214.918,343.098c14.334-6.961,68.662-35.457,123.013-91.46
							c58.077-59.845,128.092-164.302,131.825-322.085l7.111,0.169c-3.788,160.225-74.985,266.309-134.043,327.089
							c-63.99,65.856-128.064,94.241-128.703,94.52L1109.573,1069.635z"/>
						<path style="fill:#FFFFFF;" d="M1096.061,1329.536l-2.482-0.729c-85.042-24.96-181.482-122.709-286.644-290.533
							c-78.108-124.65-132.086-243.565-132.62-244.751l6.482-2.929c2.126,4.703,213.938,469.128,412.336,530.648
							c10.043-14.38,69.597-98.121,144.512-171.626c43.172-42.359,115.985-69.759,169.464-85.286
							c57.761-16.77,106.065-23.7,106.546-23.768l0.997,7.044c-1.904,0.269-191.265,27.849-272.026,107.089
							c-81.36,79.829-144.479,171.786-145.108,172.706L1096.061,1329.536z"/>
						<path style="fill:#FFFFFF;" d="M1290.409,1698.425l-7.04-0.838c-0.95-0.113-96.409-11.805-221.051-55.265
							c-115.073-40.123-279.359-116.318-408.525-251.459l-249.097-260.624l5.145-4.916l249.097,260.624
							c128.186,134.118,291.386,209.792,405.723,249.657c104.632,36.482,188.425,50.43,212.54,53.955
							c-47.549-87.662-38.675-183.021,25.84-276.243c49.64-71.73,115.438-117.567,116.096-118.021l4.04,5.855
							c-0.65,0.448-65.508,45.659-114.394,116.371c-65.198,94.305-72.57,186.747-21.911,274.759L1290.409,1698.425z"/>
					</g>
				</g>
			</g>
			<g>
				<g>
					<defs>
						<path id="SVGID_00000072253062740423133240000003974550438235753344_" d="M1498.623,1684.402
							c-125.466,61.457-294.067,121.847-481.234,126.328c-47.766,1.144-342.839,8.209-367.356-115.928
							c-8.636-43.728,23.592-66.806,13.067-125.471c-12.471-69.514-65.703-81.607-129.168-145.168
							c-37.87-37.927-148.696-148.919-104.33-261.279c26.512-67.143,107.243-131.737,184.114-148.876
							c112.752-25.139,195.101,56.744,332.042,197.702c121.393,124.954,126.217,167.651,215.201,256.103
							C1227.001,1533.46,1332.076,1617.03,1498.623,1684.402z"/>
					</defs>
					
						<linearGradient id="SVGID_00000003808513682721099860000018028068079072970645_" gradientUnits="userSpaceOnUse" x1="1069.2306" y1="1141.4442" x2="864.7704" y2="1690.2595">
						<stop  offset="0.0036" style="stop-color:#E38DDD"/>
						<stop  offset="1" style="stop-color:#9571F6"/>
					</linearGradient>
					
						<use xlink:href="#SVGID_00000072253062740423133240000003974550438235753344_"  style="overflow:visible;fill:url(#SVGID_00000003808513682721099860000018028068079072970645_);"/>
					<clipPath id="SVGID_00000042713211650517252810000011460685924267056830_">
						<use xlink:href="#SVGID_00000072253062740423133240000003974550438235753344_"  style="overflow:visible;"/>
					</clipPath>
					<g style="opacity:0.5;clip-path:url(#SVGID_00000042713211650517252810000011460685924267056830_);">
						<path style="fill:#FFFFFF;" d="M1495.654,1683.405c-138.019,0-278.614-36.446-419.836-109.034
							c-205.403-105.579-360.674-261.217-454.762-373.191c-65.631-78.106-108.7-178.717-128.012-299.036l7.025-1.127
							c19.105,119.031,61.645,218.48,126.435,295.587c93.666,111.473,248.216,266.403,452.567,371.44
							c196.155,100.825,391.03,131.416,579.205,90.918c141.266-30.403,273.764-98.027,393.821-200.995l4.631,5.4
							c-120.963,103.748-254.518,171.895-396.955,202.55C1605.572,1677.58,1550.811,1683.405,1495.654,1683.405z"/>
						<path style="fill:#FFFFFF;" d="M833.889,1410.098l-3.172-0.4c-356.422-44.922-451.029-248.547-471.536-309.887
							c-0.38-1.137-0.625-1.895-0.77-2.235l6.41-3.083c0.177,0.359,0.551,1.394,1.108,3.062
							c20.113,60.16,112.787,259.458,462.44,304.67c5.888-28.754,45.312-248.665-87.554-404.329l5.413-4.619
							c144.06,168.782,88.969,411.278,88.396,413.708L833.889,1410.098z"/>
						<path style="fill:#FFFFFF;" d="M746.37,1686.666c-10.254,0-19.899-0.374-28.939-1.021
							c-85.726-6.13-134.316-36.516-136.343-37.807l3.82-6.002c0.485,0.307,49.416,30.832,133.494,36.745
							c77.384,5.444,201.154-9.449,352.031-111.008c-0.566-20.184-8.682-198.24-118.42-388.264l-117.847-204.06l6.159-3.558
							l117.847,204.061c116.967,202.534,119.405,391.777,119.416,393.665l0.01,1.902l-1.576,1.066
							C940.107,1664.312,825.569,1686.666,746.37,1686.666z"/>
					</g>
				</g>
			</g>
		</g>
		<g>
			<g>
				<path style="fill:#97A6B7;" d="M3019.24,2402.864V1101.082c0-26.694-22.144-29.759-49.104-30.843L733.798,960.677
					c-34.033-1.368-61.962,22.148-61.962,52.264v1438.667L3019.24,2402.864z"/>
				<path style="fill:#97A6B7;" d="M671.836,2451.608v287.315c0,30.116,27.929,53.575,61.962,52.135l2226.357-113.732
					c26.959-1.139,59.085-4.728,59.085-31.421v-251.391L671.836,2451.608z"/>
				<path style="fill:#97A6B7;" d="M2227.944,2984.65c-40.302-13.368-70.425-47.572-78.919-89.613l-58.659-290.32l-501.784,17.819
					l-61.755,302.448c-8.649,42.358,25.973,84.853,65.846,100.454l209.935,82.14c39.047,15.278,81.019,21.363,122.735,17.794
					l443.67-37.956c12.969-1.109,23.373-11.304,24.882-24.384c1.51-13.079,10.597-27.766-1.771-31.868L2227.944,2984.65z"/>
				
					<linearGradient id="SVGID_00000062157475084601159980000013233784210526788030_" gradientUnits="userSpaceOnUse" x1="1963.2861" y1="2707.9863" x2="1970.9135" y2="2994.0156">
					<stop  offset="0" style="stop-color:#444B8C"/>
					<stop  offset="0.9964" style="stop-color:#26264F"/>
				</linearGradient>
				<path style="fill:url(#SVGID_00000062157475084601159980000013233784210526788030_);" d="M2232.91,2966.993
					c-40.261-13.2-70.354-46.975-78.84-88.486l-58.6-286.67l-489.552,17.613l-61.693,298.646
					c-8.64,41.825,14.22,83.767,54.054,99.172l209.724,81.107c39.007,15.086,80.937,21.094,122.611,17.57l443.223-37.478
					c12.956-1.096,23.349-11.163,24.857-24.078c1.508-12.915-6.287-25.106-18.642-29.156L2232.91,2966.993z"/>
				
					<linearGradient id="SVGID_00000078764683008599159640000011370383404073106095_" gradientUnits="userSpaceOnUse" x1="1502.1812" y1="1586.5873" x2="3015.9922" y2="2323.1375">
					<stop  offset="0" style="stop-color:#444B8C"/>
					<stop  offset="0.6447" style="stop-color:#313365"/>
					<stop  offset="0.9964" style="stop-color:#26264F"/>
				</linearGradient>
				<path style="fill:url(#SVGID_00000078764683008599159640000011370383404073106095_);" d="M3033.903,1101.076v1301.806
					L1650.281,2431.6l-964.255,20.021V1012.924c0-30.086,28.304-53.623,62.35-52.254l188.827,7.586l2047.788,82.341
					C3011.969,1051.671,3033.903,1074.394,3033.903,1101.076z"/>
				<g>
					
						<linearGradient id="SVGID_00000056395605077002838450000007259797543693039500_" gradientUnits="userSpaceOnUse" x1="755.9836" y1="1799.7577" x2="2982.0872" y2="1799.7577">
						<stop  offset="0" style="stop-color:#FFFFFF"/>
						<stop  offset="0.9964" style="stop-color:#EBEFF2"/>
					</linearGradient>
					<path style="fill:url(#SVGID_00000056395605077002838450000007259797543693039500_);" d="M755.984,1213.16v1123.804
						c0,28.05,25.929,50.264,57.532,49.365l2122.564-60.364c25.333-0.721,46.008-21.778,46.008-46.796V1276.864L755.984,1213.16z"/>
					
						<linearGradient id="SVGID_00000164497288260576665960000008925463566077895867_" gradientUnits="userSpaceOnUse" x1="1403.1788" y1="-495.5417" x2="2139.2632" y2="2158.9983">
						<stop  offset="0" style="stop-color:#AA80F9"/>
						<stop  offset="0.9964" style="stop-color:#6165D7"/>
					</linearGradient>
					<path style="fill:url(#SVGID_00000164497288260576665960000008925463566077895867_);" d="M2982.087,1276.864v-115.026
						c0-24.505-20.251-45.311-45.064-46.236l-2124.682-79.265c-30.958-1.155-56.357,20.378-56.357,47.854v128.97L2982.087,1276.864z
						"/>
					<g>
						<path style="fill:#FFFFFF;" d="M911.295,1125.665c0,9.657-8.801,17.207-19.673,16.863
							c-10.887-0.344-19.726-8.473-19.726-18.157c0-9.683,8.839-17.232,19.726-16.862
							C902.494,1107.879,911.295,1116.008,911.295,1125.665z"/>
						<path style="fill:#FFFFFF;" d="M996.092,1128.449c0,9.6-8.698,17.109-19.443,16.768c-10.761-0.341-19.496-8.421-19.496-18.047
							c0-9.626,8.735-17.133,19.496-16.766C987.394,1110.77,996.092,1118.849,996.092,1128.449z"/>
						<path style="fill:#FFFFFF;" d="M1079.902,1131.201c0,9.545-8.597,17.01-19.217,16.674
							c-10.635-0.336-19.269-8.368-19.269-17.938c0-9.57,8.634-17.035,19.269-16.673
							C1071.305,1113.627,1079.902,1121.657,1079.902,1131.201z"/>
					</g>
				</g>
				
					<linearGradient id="SVGID_00000137822747912395654010000010528648913294103948_" gradientUnits="userSpaceOnUse" x1="1178.895" y1="2250.7705" x2="2692.8008" y2="2987.3667">
					<stop  offset="0" style="stop-color:#444B8C"/>
					<stop  offset="0.9964" style="stop-color:#26264F"/>
				</linearGradient>
				<path style="fill:url(#SVGID_00000137822747912395654010000010528648913294103948_);" d="M3033.903,2394.519v251.39
					c0,26.683-21.834,49.442-48.812,50.589l-81.008,3.442l-2155.744,91.112c-34.046,1.444-62.313-22.019-62.313-52.143v-287.288
					l961.369-23.388L3033.903,2394.519z"/>
				<path style="opacity:0.1;fill:#FFFFFF;" d="M2904.158,2699.94l-2155.782,91.112c-34.046,1.444-62.35-22.019-62.35-52.143
					V1012.924c0-30.086,28.304-53.623,62.35-52.254l188.827,7.586c28.977,19.429,54.87,43.41,75.595,71.905
					c0.925,1.258,1.864,2.516,2.715,3.775c16.097,22.87,27.558,46.74,35.589,71.313c3.552,10.732,6.415,21.575,8.746,32.566
					c5.219,24.314,7.778,49.145,8.851,74.311c2.295,53.18-1.885,107.766-1.663,161.537c0.444,108.987,7.257,217.899,79.567,305.643
					c53.55,64.985,140.777,89.669,213.163,127.453c84.488,44.113,158.615,102.621,201.542,189.514
					c52.699,106.655,3.22,222.488,36.897,332.659c2.589,8.512,5.661,16.801,9.178,24.832c10.177,23.426,24.017,44.89,40.56,64.467
					c0.925,1.147,1.886,2.257,2.886,3.368c64.43,74.052,167.57,120.311,256.979,142.7c183.482,45.889,373.774-33.639,555.925-39.894
					c131.228-4.478,312.712,25.128,409.227,123.826C2884.617,2670.149,2895.09,2684.323,2904.158,2699.94z"/>
			</g>
		</g>
		<g>
			
				<linearGradient id="SVGID_00000163037567988204177170000008550127570817351297_" gradientUnits="userSpaceOnUse" x1="1697.8846" y1="6929.9175" x2="1886.7944" y2="1681.0022">
				<stop  offset="0" style="stop-color:#AA80F9"/>
				<stop  offset="0.9964" style="stop-color:#6165D7"/>
			</linearGradient>
			<path style="fill:url(#SVGID_00000163037567988204177170000008550127570817351297_);" d="M2260.859,1678.49v389.932
				c0,42.129-25.894,81.125-70.477,112.986c-10.684,7.625-22.271,14.874-34.993,21.631
				c-69.385,36.995-167.044,60.023-275.274,60.023c-108.229,0-205.979-23.028-275.363-60.023
				c-65.648-34.957-105.941-82.371-105.941-134.617V1678.49H2260.859z"/>
			
				<linearGradient id="SVGID_00000004521516789265795380000010481851757694805134_" gradientUnits="userSpaceOnUse" x1="1836.1748" y1="2261.9683" x2="1849.968" y2="1878.7185">
				<stop  offset="0" style="stop-color:#AA80F9"/>
				<stop  offset="0.9964" style="stop-color:#6165D7"/>
			</linearGradient>
			<path style="opacity:0.3;fill:url(#SVGID_00000004521516789265795380000010481851757694805134_);" d="M2190.686,2181.408
				c-10.684,7.625-22.423,14.874-35.146,21.631c-69.385,36.995-167.12,60.023-275.35,60.023s-206.017-23.028-275.401-60.023
				c-65.648-34.957-105.979-82.371-105.979-134.617V1866.08c54.432,23.632,129.383,69.913,143.427,144.697
				c21.97,117.026,182.812,156.663,342.721,130.238C2055.401,2129.35,2129.154,2147.659,2190.686,2181.408z"/>
			
				<linearGradient id="SVGID_00000017501349811598553840000016567297147805866386_" gradientUnits="userSpaceOnUse" x1="1947.0405" y1="1299.2167" x2="1868.0819" y2="1888.27">
				<stop  offset="0" style="stop-color:#AA80F9"/>
				<stop  offset="0.9964" style="stop-color:#6165D7"/>
			</linearGradient>
			<polygon style="fill:url(#SVGID_00000017501349811598553840000016567297147805866386_);" points="2461.032,1714.778 
				1889.084,1432.319 1317.135,1714.778 1295.598,1714.778 1295.598,1723.971 1295.598,1723.971 1890.721,2017.755 
				2485.844,1723.971 2485.844,1723.971 2485.844,1714.778 			"/>
			
				<linearGradient id="SVGID_00000170969590562550115030000013909128820758156430_" gradientUnits="userSpaceOnUse" x1="1934.8004" y1="1131.7087" x2="1831.6167" y2="2442.8987">
				<stop  offset="0" style="stop-color:#AA80F9"/>
				<stop  offset="0.9964" style="stop-color:#6165D7"/>
			</linearGradient>
			<polygon style="fill:url(#SVGID_00000170969590562550115030000013909128820758156430_);" points="1889.084,1418.861 
				1294.204,1712.646 1889.084,2006.43 2483.964,1712.646 			"/>
			<g>
				
					<linearGradient id="SVGID_00000040541975459025218060000003952691470670273444_" gradientUnits="userSpaceOnUse" x1="2527.8044" y1="1312.4467" x2="1834.121" y2="2518.9792">
					<stop  offset="0" style="stop-color:#FFC444"/>
					<stop  offset="0.9964" style="stop-color:#F36F56"/>
				</linearGradient>
				<path style="fill:url(#SVGID_00000040541975459025218060000003952691470670273444_);" d="M2480.401,2120.522
					c-4.363,0-9.072-3.537-9.072-7.899v-385.096c0-8.711-4.777-16.378-13.488-16.378h-568.758c-4.363,0-7.899-2.895-7.899-7.258
					c0-4.362,3.536-7.258,7.899-7.258h568.758c17.423,0,31.632,13.47,31.632,30.893v385.096
					C2489.473,2116.986,2484.764,2120.522,2480.401,2120.522z"/>
			</g>
			
				<linearGradient id="SVGID_00000178902255903265386610000015330098932668214934_" gradientUnits="userSpaceOnUse" x1="2451.8582" y1="2396.5803" x2="2497.26" y2="1972.1733">
				<stop  offset="0" style="stop-color:#FFC444"/>
				<stop  offset="0.9964" style="stop-color:#F36F56"/>
			</linearGradient>
			<path style="fill:url(#SVGID_00000178902255903265386610000015330098932668214934_);" d="M2500.898,2050.538l-6.958-11.958
				c-2.57-4.536-7.504-7.306-12.717-7.221s-10.008,3.01-12.431,7.626l-6.238,12.446c-1.578,3.008-2.111,6.354-2.111,9.75v104.763
				c0,2.25,9.775,4.073,21.773,4.073s21.773-1.823,21.773-4.073v-105.059C2503.989,2057.259,2502.686,2053.694,2500.898,2050.538z"
				/>
		</g>
		<g>
			
				<linearGradient id="SVGID_00000082334403400155311770000011512643898483824051_" gradientUnits="userSpaceOnUse" x1="560.1295" y1="2829.9663" x2="1882.4863" y2="2829.9663">
				<stop  offset="0" style="stop-color:#FFC444"/>
				<stop  offset="0.9964" style="stop-color:#F36F56"/>
			</linearGradient>
			<polygon style="fill:url(#SVGID_00000082334403400155311770000011512643898483824051_);" points="560.129,2767.951 
				1174.558,2741.237 1882.486,2766.043 1184.099,2918.696 			"/>
			<g>
				
					<linearGradient id="SVGID_00000081617801850819155240000010707434042096812462_" gradientUnits="userSpaceOnUse" x1="706.5501" y1="3354.2312" x2="814.3441" y2="3109.0522">
					<stop  offset="0" style="stop-color:#AA80F9"/>
					<stop  offset="0.9964" style="stop-color:#6165D7"/>
				</linearGradient>
				<path style="fill:url(#SVGID_00000081617801850819155240000010707434042096812462_);" d="M1055.184,3360.034l-497.698-133.95
					c-50.123-13.49-89.066-63.152-89.066-111.313v-0.529c0-48.161,38.943-80.473,89.066-71.632l533.806,87.354L1055.184,3360.034z"
					/>
				<g>
					
						<linearGradient id="SVGID_00000119118862771083949150000017455244139345631634_" gradientUnits="userSpaceOnUse" x1="987.3858" y1="3213.5964" x2="1883.3392" y2="3213.5964">
						<stop  offset="0" style="stop-color:#FF9085"/>
						<stop  offset="1" style="stop-color:#FB6FBB"/>
					</linearGradient>
					<path style="fill:url(#SVGID_00000119118862771083949150000017455244139345631634_);" d="M1883.339,3259.441l-804.175,89.807
						c-50.368,5.625-91.779-29.5-91.779-78.532v-33.263c0-49.033,41.41-92.078,91.779-96.087l804.175-64.011
						C1847.754,3143.6,1839.544,3205.576,1883.339,3259.441z"/>
					
						<linearGradient id="SVGID_00000052786129204276745750000005759133017679414148_" gradientUnits="userSpaceOnUse" x1="965.7646" y1="3214.0203" x2="1899.0962" y2="3214.0203">
						<stop  offset="0" style="stop-color:#AA80F9"/>
						<stop  offset="0.9964" style="stop-color:#6165D7"/>
					</linearGradient>
					<path style="fill:url(#SVGID_00000052786129204276745750000005759133017679414148_);" d="M1890.338,3268.358l-804.436,91.212
						c-65.697,7.449-120.138-38.566-120.138-102.714v-0.705c0-64.148,54.441-120.582,120.138-125.706l804.436-62.741
						c4.84-0.377,8.758,3.653,8.758,9.001s-3.918,10.003-8.758,10.397l-804.436,65.494c-52.852,4.303-96.491,49.772-96.491,101.294
						v0.702c0,51.521,43.639,88.639,96.491,82.827l804.436-88.459c4.84-0.532,8.758,3.373,8.758,8.721
						S1895.178,3267.81,1890.338,3268.358z"/>
				</g>
			</g>
			<g>
				
					<linearGradient id="SVGID_00000160869500314484738850000003231834744612874154_" gradientUnits="userSpaceOnUse" x1="863.0341" y1="2693.1326" x2="674.055" y2="3329.6953">
					<stop  offset="0" style="stop-color:#FFC444"/>
					<stop  offset="0.9964" style="stop-color:#F36F56"/>
				</linearGradient>
				<path style="fill:url(#SVGID_00000160869500314484738850000003231834744612874154_);" d="M1076.093,3130.503l-518.607-87.894
					c-50.123-8.842-89.066-74.542-89.066-146.856v-0.795c0-72.314,38.943-129.699,89.066-127.837l550.14,20.435L1076.093,3130.503z"
					/>
				<g>
					
						<linearGradient id="SVGID_00000087405409582529982330000016983298671439569295_" gradientUnits="userSpaceOnUse" x1="987.3858" y1="2945.793" x2="1883.3392" y2="2945.793">
						<stop  offset="0" style="stop-color:#FF9085"/>
						<stop  offset="1" style="stop-color:#FB6FBB"/>
					</linearGradient>
					<path style="fill:url(#SVGID_00000087405409582529982330000016983298671439569295_);" d="M1883.339,3053.668l-759.105,57.256
						c-74.866,5.647-136.848-49.362-136.848-122.985v-49.945c0-73.623,61.982-134.996,136.848-137.037l759.105-20.695
						C1847.639,2879.529,1839.66,2972.481,1883.339,3053.668z"/>
					
						<linearGradient id="SVGID_00000034086549479603195870000007349805783196652693_" gradientUnits="userSpaceOnUse" x1="965.7646" y1="2948.5564" x2="1899.0962" y2="2948.5564">
						<stop  offset="0" style="stop-color:#FFC444"/>
						<stop  offset="0.9964" style="stop-color:#F36F56"/>
					</linearGradient>
					<path style="fill:url(#SVGID_00000034086549479603195870000007349805783196652693_);" d="M1890.338,3067.704l-804.436,62.741
						c-65.697,5.124-120.138-68.991-120.138-165.31v-1.058c0-96.319,54.441-176.033,120.138-177.666l804.436-19.993
						c4.84-0.12,8.758,6.293,8.758,14.323s-3.918,14.659-8.758,14.804l-804.436,24.126c-52.852,1.585-96.491,65.831-96.491,143.191
						v1.055c0,77.36,43.639,137.118,96.491,133.267l804.436-58.609c4.84-0.353,8.758,5.872,8.758,13.903
						C1899.096,3060.51,1895.178,3067.326,1890.338,3067.704z"/>
				</g>
			</g>
			<path style="opacity:0.5;fill:#FFFFFF;" d="M915.274,3058.032l-110.855-19.373c-25.885-70.654-23.94-135.557,0-213.13
				l110.855,7.881C892.553,2915.04,895.993,2988.979,915.274,3058.032z"/>
		</g>
		<path style="fill:#FFFFFF;" d="M1817.331,1858.23l1.102-289.842c0.071-18.664,15.04-31.177,27.888-23.351l227.181,138.376
			c14.048,8.557,13.874,35.264-0.285,44.672l-228.262,151.667C1832.085,1888.303,1817.261,1876.779,1817.331,1858.23z"/>
		<g>
			
				<linearGradient id="SVGID_00000037658212416907428080000014597222952345696444_" gradientUnits="userSpaceOnUse" x1="1065.066" y1="3146.1438" x2="1083.1287" y2="3471.2732" gradientTransform="matrix(1 0 0 1 1692.9144 0)">
				<stop  offset="0" style="stop-color:#444B8C"/>
				<stop  offset="0.9964" style="stop-color:#26264F"/>
			</linearGradient>
			<path style="fill:url(#SVGID_00000037658212416907428080000014597222952345696444_);" d="M2803.227,3261.755
				c0,0,2.258,17.973,0.743,23.994c-1.519,6.022-53.773,10.373-71.511,8.28c-17.737-2.093,10.566-20.212,21.867-23.611
				C2765.626,3267.017,2803.227,3261.755,2803.227,3261.755z"/>
			
				<linearGradient id="SVGID_00000119086532951747904260000002960479012889683615_" gradientUnits="userSpaceOnUse" x1="1099.1798" y1="3306.3721" x2="1089.5846" y2="2867.4006" gradientTransform="matrix(1 0 0 1 1692.9144 0)">
				<stop  offset="0" style="stop-color:#FFC444"/>
				<stop  offset="0.9964" style="stop-color:#F36F56"/>
			</linearGradient>
			<path style="fill:url(#SVGID_00000119086532951747904260000002960479012889683615_);" d="M2776.922,3231.773l5.508,36.059
				c0,0,14.045,6.312,20.797,0.074l0.743-37.743L2776.922,3231.773z"/>
			
				<linearGradient id="SVGID_00000149382535854499279460000006034376794947918483_" gradientUnits="userSpaceOnUse" x1="1391.9904" y1="3127.9871" x2="1410.0521" y2="3453.1028" gradientTransform="matrix(1 0 0 1 1692.9144 0)">
				<stop  offset="0" style="stop-color:#444B8C"/>
				<stop  offset="0.9964" style="stop-color:#26264F"/>
			</linearGradient>
			<path style="fill:url(#SVGID_00000149382535854499279460000006034376794947918483_);" d="M3071.503,3230.162
				c0,0-11.089,8.227-8.133,18.081c2.955,9.854,28.828,49.337,47.266,60.542c18.437,11.207,12.658-12.14,7.293-26.681
				c-5.366-14.542-19.077-46.573-24.429-51.942C3088.15,3224.794,3071.503,3230.162,3071.503,3230.162z"/>
			
				<linearGradient id="SVGID_00000019643345805594331490000005970618769409539225_" gradientUnits="userSpaceOnUse" x1="1387.0109" y1="3300.0811" x2="1377.4156" y2="2861.1082" gradientTransform="matrix(1 0 0 1 1692.9144 0)">
				<stop  offset="0" style="stop-color:#FFC444"/>
				<stop  offset="0.9964" style="stop-color:#F36F56"/>
			</linearGradient>
			<path style="fill:url(#SVGID_00000019643345805594331490000005970618769409539225_);" d="M3051.558,3190.547
				c5.36,14.94,10.516,27.223,14.548,36.282c8.921,20.044,13.798,27.566,19.319,34.085c4.817,5.679,16.218,17.798,19.281,15.78
				c3.113-2.045-5.23-16.779-21.304-59.93c-2.336-6.261-9.71-26.217-9.71-26.217l0,0H3051.558z"/>
			
				<linearGradient id="SVGID_00000013185379718674133490000011116722931840939917_" gradientUnits="userSpaceOnUse" x1="1460.8854" y1="2640.5186" x2="891.2861" y2="3002.3821" gradientTransform="matrix(1 0 0 1 1692.9144 0)">
				<stop  offset="0" style="stop-color:#311944"/>
				<stop  offset="1" style="stop-color:#A03976"/>
			</linearGradient>
			<path style="fill:url(#SVGID_00000013185379718674133490000011116722931840939917_);" d="M2667.489,2566.275
				c-3.824,37.552-7.494,95.838-2.008,166.575c7.15,92.161,25.579,150.481,48.689,248.748
				c14.125,60.053,33.156,148.441,50.378,258.984c3.996,2.287,15.752,8.3,30.889,6.056c8.474-1.259,14.813-4.627,18.556-7.05
				c45.187-138.077,31.841-223.643,10.033-276.952c-9.294-22.723-20.564-40.651-26.588-75.582
				c-7.972-46.215,1.885-72.049,15.939-179.099c10.017-76.299,8.283-88.094,1.618-99.536
				C2788.352,2562.67,2706.859,2563.564,2667.489,2566.275z"/>
			
				<linearGradient id="SVGID_00000141421527854355338620000012553966765184077997_" gradientUnits="userSpaceOnUse" x1="1095.2351" y1="3051.4255" x2="1522.2191" y2="2653.2273" gradientTransform="matrix(1 0 0 1 1692.9144 0)">
				<stop  offset="0" style="stop-color:#311944"/>
				<stop  offset="1" style="stop-color:#A03976"/>
			</linearGradient>
			<path style="fill:url(#SVGID_00000141421527854355338620000012553966765184077997_);" d="M2823.023,2582.333
				c27.682,142.955,54.851,218.038,75.41,260.506c5.071,10.472,21.988,44.263,37.98,92.705
				c14.158,42.879,20.058,74.421,23.08,88.305c9.544,43.82,33.129,107.802,96.596,191.721c0.791,0.466,11.613,6.586,21.959,1.13
				c5.236-2.764,7.846-7.167,8.884-9.219c-8.298-80.233-17.823-147.655-26.089-199.689c-1.737-10.914-9.375-58.661-21.356-121.745
				c-4.688-24.687-11.558-60.859-19.787-98.011c-10.245-46.266-25.958-109.209-50.172-184.631
				C2920.693,2596.378,2871.857,2589.358,2823.023,2582.333z"/>
			
				<linearGradient id="SVGID_00000178909620730994418050000012197335876290076308_" gradientUnits="userSpaceOnUse" x1="736.2026" y1="2178.0222" x2="1207.699" y2="2135.521" gradientTransform="matrix(1 0 0 1 1692.9144 0)">
				<stop  offset="0" style="stop-color:#FF9085"/>
				<stop  offset="1" style="stop-color:#FB6FBB"/>
			</linearGradient>
			<path style="fill:url(#SVGID_00000178909620730994418050000012197335876290076308_);" d="M2383.097,2232.842
				c6.249-7.325,12.499-14.649,18.748-21.972c2.975,2.274,46.175,34.13,97.808,15.5c35.551-12.828,52.505-45.835,63.375-66.909
				c32.649-63.299,2.475-102.24,40.803-147.49c10.644-12.565,32.656-29.045,48.799-27.188
				c38.462,4.424,75.325,113.136,51.563,205.962c-4.796,18.735-31.206,121.899-120.352,145.038
				C2511.864,2354.466,2427.136,2313.673,2383.097,2232.842z"/>
			
				<linearGradient id="SVGID_00000127009881162540029780000016246300910061743276_" gradientUnits="userSpaceOnUse" x1="1630.4581" y1="2505.2383" x2="1212.1102" y2="2143.6658" gradientTransform="matrix(1 0 0 1 1692.9144 0)">
				<stop  offset="0" style="stop-color:#311944"/>
				<stop  offset="1" style="stop-color:#6B3976"/>
			</linearGradient>
			<path style="fill:url(#SVGID_00000127009881162540029780000016246300910061743276_);" d="M2799.442,2016.886
				c-15.699-14.512-45.733-31.24-60.797-70.128c-4.535-11.705-20.598-53.18,3.098-84.906c14.065-18.833,40.191-31.621,63.218-27.093
				c19.677,3.868,22.754,17.574,56.192,45.157c13.014,10.735,33.936,27.992,57.22,37.586c39.891,16.441,63.857,0.971,103.905,2.736
				c49.199,2.169,106.354,29.626,133.889,69.555c48.875,70.867-21.924,142.756,31.609,225.776
				c17.542,27.198,26.187,21.102,67.733,73.754c41.602,52.721,62.403,79.079,58.703,111.382
				c-5.138,44.832-53.427,87.658-98.899,90.568c-44.418,2.846-72.656-32.101-95.269-16.813
				c-16.097,10.875-6.894,32.037-23.988,57.465c-22.036,32.787-65.349,39.319-72.344,40.37
				c-64.928,9.795-152.471-66.339-189.653-156.538C2767.013,2253.104,2884.789,2095.777,2799.442,2016.886z"/>
			
				<linearGradient id="SVGID_00000167368889854182318680000000721063591252292776_" gradientUnits="userSpaceOnUse" x1="983.0642" y1="3038.3875" x2="1165.3713" y2="2793.7119" gradientTransform="matrix(1 0 0 1 1692.9144 0)">
				<stop  offset="0" style="stop-color:#311944"/>
				<stop  offset="1" style="stop-color:#6B3976"/>
			</linearGradient>
			<path style="opacity:0.3;fill:url(#SVGID_00000167368889854182318680000000721063591252292776_);" d="M2824.026,2962.636
				c-9.294-22.724-20.564-40.653-26.588-75.582c-7.972-46.215,1.885-72.049,15.939-179.099c10.017-76.299,8.283-88.094,1.618-99.536
				c-14.479-24.862-45.163-35.893-76.476-40.399c0.418,1.605,0.84,3.215,1.18,4.768c16.43,75.033-46.274,120.815-17.991,203.295
				c13.945,40.666,36.195,49.98,41.378,97.151c4.857,44.187-12.757,53.392-8.994,93.552c5.623,60.035,48.271,74.564,59.369,120.539
				c7.211,29.874,1.138,73.556-51.528,136.785c0.875,5.448,1.749,10.912,2.615,16.472c3.999,2.287,15.752,8.3,30.889,6.056
				c8.474-1.259,14.813-4.627,18.556-7.05C2859.179,3101.511,2845.834,3015.946,2824.026,2962.636z"/>
			
				<linearGradient id="SVGID_00000171720717474106234660000001696760210639319437_" gradientUnits="userSpaceOnUse" x1="1004.7251" y1="2298.6238" x2="1347.2119" y2="2298.6238" gradientTransform="matrix(0.9905 -0.1373 0.1373 0.9905 1072.6766 96.6064)">
				<stop  offset="0" style="stop-color:#FF9085"/>
				<stop  offset="1" style="stop-color:#FB6FBB"/>
			</linearGradient>
			<path style="opacity:0.3;fill:url(#SVGID_00000171720717474106234660000001696760210639319437_);" d="M2659.138,2092.858
				c-59.636,62.181-38.115,162.6-78.571,173.451c-12.357,3.315-13.003-6.422-44.349-12.014c-45.847-8.18-64.458,9.083-96.821,2.526
				c-13.404-2.716-31.357-9.997-50.867-30.346c-1.811,2.123-3.623,4.245-5.432,6.367c44.039,80.831,128.767,121.624,200.744,102.94
				c89.146-23.139,115.556-126.302,120.352-145.038c11.149-43.554,8.951-90.607-0.498-128.742
				C2688.862,2068.656,2673.087,2078.314,2659.138,2092.858z"/>
			
				<linearGradient id="SVGID_00000092447673657511674860000016661064746191642266_" gradientUnits="userSpaceOnUse" x1="756.5019" y1="2403.2207" x2="1227.9977" y2="2360.7195" gradientTransform="matrix(1 0 0 1 1692.9144 0)">
				<stop  offset="0" style="stop-color:#FF9085"/>
				<stop  offset="1" style="stop-color:#FB6FBB"/>
			</linearGradient>
			<path style="fill:url(#SVGID_00000092447673657511674860000016661064746191642266_);" d="M2609.695,2006.078
				c4.142-6.437,17.315-24.267,73.213-37.41c20.048-4.714,52.273-11.832,93.408-10.323c6.895,0.253,29.114,1.388,53.06,6.578
				c51.038,11.058,152.783,49.918,156.329,102.854c2.531,37.803-47.872,40.232-76.387,107.154
				c-20.775,48.756-20.641,109.664,2.024,157.042c18.189,38.025,50.368,66.569,74.806,88.253
				c36.657,32.518,55.641,37.515,67.93,66.65c13.383,31.726-0.103,47.197,16.517,68.916c17.848,23.325,38.761,12.483,69.014,36.071
				c30.991,24.161,19.963,44.045,48.166,70.746c40.982,38.792,95.309,26.193,97.837,43.648c2.177,15.015-36.434,35.389-69.238,43.65
				c-64.963,16.362-121.627-11.1-138.475-19.567c-46.651-23.437-38.593-38.606-74.162-56.475
				c-59.556-29.915-100.258,3.375-235.905,6.802c-73.458,1.86-110.601,2.278-130.95-22.575
				c-18.584-22.703-8.815-47.603,2.337-154.918c0,0,0-0.002,0.001-0.013c3.583-35.839,11.087-110.877,11.134-153.637
				c0.027-25.272-8.737-66.563-26.266-149.146c-1.035-4.869-10.52-49.485-18.186-109.085
				C2599.001,2037.622,2600.001,2021.142,2609.695,2006.078z"/>
			<g style="opacity:0.3;">
				
					<linearGradient id="SVGID_00000159440110480364891410000016752994286412044201_" gradientUnits="userSpaceOnUse" x1="1258.3939" y1="1967.0508" x2="1361.7036" y2="2598.8308" gradientTransform="matrix(1 0 0 1 1692.9144 0)">
					<stop  offset="0" style="stop-color:#FF9085"/>
					<stop  offset="1" style="stop-color:#FB6FBB"/>
				</linearGradient>
				<path style="fill:url(#SVGID_00000159440110480364891410000016752994286412044201_);" d="M3187.777,2662.607
					c-28.202-26.701-17.173-46.586-48.166-70.745c-30.253-23.588-51.166-12.746-69.014-36.071
					c-16.62-21.719-3.134-37.19-16.517-68.915c-12.289-29.135-31.273-34.13-67.93-66.651
					c-24.438-21.684-56.617-50.229-74.807-88.252c-31.57-65.986-9.496-136.437-2.023-157.043
					c24.015-66.236,72.508-101.148,90.081-112.59c-1.692-1.823-83.786,71.261-85.921,69.074
					c-115.774,15.91-103.18,7.648-111.528,27.458c-19.298,45.789,11.253,62.613,12.042,194.672
					c0.375,63.123-6.433,88.048,14.047,114.394c23.424,30.132,50.418,20.808,84.289,60.207
					c26.026,30.269,21.858,49.46,46.161,62.213c26.131,13.71,42.775-2.27,72.248,4.015c49.239,10.5,59.765,67.274,92.317,98.336
					c24.615,23.488,70.126,39.91,159.882,22.283c2.075-3.023,3.079-5.973,2.678-8.738
					C3283.083,2688.801,3228.759,2701.4,3187.777,2662.607z"/>
			</g>
			
				<linearGradient id="SVGID_00000003074426057607965350000017931827640095232901_" gradientUnits="userSpaceOnUse" x1="1083.6343" y1="1981.9711" x2="1195.1766" y2="1820.0547" gradientTransform="matrix(1 0 0 1 1692.9144 0)">
				<stop  offset="0" style="stop-color:#FFC444"/>
				<stop  offset="0.9964" style="stop-color:#F36F56"/>
			</linearGradient>
			<path style="fill:url(#SVGID_00000003074426057607965350000017931827640095232901_);" d="M2791.799,1893.355
				c0,0,5.838,46.677,23.066,57.373c17.229,10.689,45.081,24.658,48.148,28.452c3.069,3.786-106.725,15.592-161.135-11.865l0,0
				c17.93-3.739,22.805-5.114,22.805-5.114c4.866-1.376,13.945-3.934,23.045-9.121c6.194-3.527,16.179-10.418,25.336-23.43
				l-0.2-25.846L2791.799,1893.355z"/>
			
				<linearGradient id="SVGID_00000143596767819445624050000008191047117863852451_" gradientUnits="userSpaceOnUse" x1="1073.5237" y1="1899.8434" x2="1249.8322" y2="1793.6984" gradientTransform="matrix(1 0 0 1 1692.9144 0)">
				<stop  offset="0" style="stop-color:#FFC444"/>
				<stop  offset="0.9964" style="stop-color:#F36F56"/>
			</linearGradient>
			<path style="fill:url(#SVGID_00000143596767819445624050000008191047117863852451_);" d="M2794.419,1909.887
				c0,0-11.233,15.417-28.848,8.992c-15.774-5.753-6.36-46.491,6.151-51.138c4.173-1.549,11.836-0.864,16.958,2.332
				c3.604,2.247,13.224,14.199,7.709,27.592c3.985-1.154,7.491-0.106,8.369,1.868c1.116,2.502-2.259,5.911-3.021,6.683
				C2799.088,1908.894,2795.892,1909.642,2794.419,1909.887z"/>
			<g>
				
					<linearGradient id="SVGID_00000086650780735480550950000002553450630211704200_" gradientUnits="userSpaceOnUse" x1="2301.9976" y1="3515.9255" x2="2484.0938" y2="3630.866" gradientTransform="matrix(0.4231 -0.9061 0.9061 0.4231 -1514.3583 2981.0581)">
					<stop  offset="0" style="stop-color:#AB316D"/>
					<stop  offset="1" style="stop-color:#792D3D"/>
				</linearGradient>
				<path style="fill:url(#SVGID_00000086650780735480550950000002553450630211704200_);" d="M3172.054,2546.287
					c-0.514,27.555-11.169,50.374-31.966,68.457l-947.863-442.612l31.966-68.457L3172.054,2546.287z"/>
				
					<linearGradient id="SVGID_00000123404761519304774810000010262922659442440889_" gradientUnits="userSpaceOnUse" x1="2443.239" y1="3527.7673" x2="2317.959" y2="3545.8491" gradientTransform="matrix(0.4231 -0.9061 0.9061 0.4231 -1514.3583 2981.0581)">
					<stop  offset="0" style="stop-color:#AB316D"/>
					<stop  offset="1" style="stop-color:#792D3D"/>
				</linearGradient>
				<path style="fill:url(#SVGID_00000123404761519304774810000010262922659442440889_);" d="M3156.401,2596.704
					c5.474-7.896,9.515-16.462,12.12-25.698l-954.438-445.682l-12.021,25.745L3156.401,2596.704z"/>
				
					<linearGradient id="SVGID_00000139276430162054459610000007830308255499507891_" gradientUnits="userSpaceOnUse" x1="2362.8418" y1="2777.6487" x2="2301.0256" y2="3394.2654" gradientTransform="matrix(0.4231 -0.9061 0.9061 0.4231 -1514.3583 2981.0581)">
					<stop  offset="0" style="stop-color:#FFC444"/>
					<stop  offset="0.9964" style="stop-color:#F36F56"/>
				</linearGradient>
				<path style="fill:url(#SVGID_00000139276430162054459610000007830308255499507891_);" d="M2224.191,2103.675
					c2.652,28.717-7.851,51.604-31.966,68.457l-199.62-132.195c-2.247-1.612-0.6-5.139,2.078-4.451L2224.191,2103.675z"/>
				
					<linearGradient id="SVGID_00000152960183560959062130000002178155851653129603_" gradientUnits="userSpaceOnUse" x1="2342.3674" y1="2723.7539" x2="2337.2017" y2="2945.8882" gradientTransform="matrix(0.4231 -0.9061 0.9061 0.4231 -1514.3583 2981.0581)">
					<stop  offset="0" style="stop-color:#AB316D"/>
					<stop  offset="1" style="stop-color:#792D3D"/>
				</linearGradient>
				<path style="fill:url(#SVGID_00000152960183560959062130000002178155851653129603_);" d="M1992.605,2039.937l77.599,51.389
					c7.043-8.681,11.606-18.461,13.734-29.321l-89.254-26.518C1992.005,2034.797,1990.358,2038.325,1992.605,2039.937z"/>
			</g>
			
				<linearGradient id="SVGID_00000121977170671550413530000006448121296838901155_" gradientUnits="userSpaceOnUse" x1="696.1661" y1="2241.3149" x2="751.7401" y2="2581.1726" gradientTransform="matrix(1 0 0 1 1692.9144 0)">
				<stop  offset="0" style="stop-color:#FFC444"/>
				<stop  offset="0.9964" style="stop-color:#F36F56"/>
			</linearGradient>
			<path style="fill:url(#SVGID_00000121977170671550413530000006448121296838901155_);" d="M2414.58,2272.864
				c0,0-29.945-26.832-40.678-42.93c-10.732-16.099-5.366,18.782,0,29.515C2379.269,2270.181,2417.693,2297.012,2414.58,2272.864z"
				/>
			
				<linearGradient id="SVGID_00000042732055382477312470000008906870475573475260_" gradientUnits="userSpaceOnUse" x1="1263.9465" y1="2390.3386" x2="1254.6493" y2="2011.8143" gradientTransform="matrix(1 0 0 1 1692.9144 0)">
				<stop  offset="0" style="stop-color:#FF9085"/>
				<stop  offset="1" style="stop-color:#FB6FBB"/>
			</linearGradient>
			<path style="fill:url(#SVGID_00000042732055382477312470000008906870475573475260_);" d="M2909.228,1992.449
				c34.85,17.263,144.423,69.061,168.33,218.479c23.907,149.418-103.596,227.115-103.596,227.115l-29.884-19.922
				c0,0,31.876-233.091-81.682-298.835S2909.228,1992.449,2909.228,1992.449z"/>
			
				<linearGradient id="SVGID_00000088828459015514855240000012921614743080885645_" gradientUnits="userSpaceOnUse" x1="1211.2617" y1="2418.998" x2="1307.885" y2="2489.7222" gradientTransform="matrix(1 0 0 1 1692.9144 0)">
				<stop  offset="0" style="stop-color:#FFC444"/>
				<stop  offset="0.9964" style="stop-color:#F36F56"/>
			</linearGradient>
			<path style="fill:url(#SVGID_00000088828459015514855240000012921614743080885645_);" d="M2951.144,2422.83
				c-7.065,1.266-11.05,7.243-26.988-0.726c-15.938-7.969-55.782,1.992-55.782,1.992s19.922,17.93,41.837,13.946
				c21.915-3.984,42.243,6.831,48.017,8.396c5.773,1.565,7.761-13.712,7.761-13.712L2951.144,2422.83z"/>
		</g>
		<g>
			
				<linearGradient id="SVGID_00000158742702773137095760000003887814842071502015_" gradientUnits="userSpaceOnUse" x1="2556.5803" y1="2534.8787" x2="1971.5304" y2="3853.8076">
				<stop  offset="0.0036" style="stop-color:#E38DDD"/>
				<stop  offset="1" style="stop-color:#9571F6"/>
			</linearGradient>
			<path style="fill:url(#SVGID_00000158742702773137095760000003887814842071502015_);" d="M2389.176,2737.119v-216.777h-140.615
				v216.777c0,21.113-13.222,39.987-33.09,47.132c-129.343,46.518-222.574,174.163-222.574,291.814
				c0,147.205,145.943,222.986,325.971,222.986s325.971-75.781,325.971-222.986c0-117.651-93.231-245.297-222.574-291.814
				C2402.398,2777.106,2389.176,2758.233,2389.176,2737.119z"/>
			
				<linearGradient id="SVGID_00000133492768215756904460000010561935301557854614_" gradientUnits="userSpaceOnUse" x1="2016.2548" y1="3127.5435" x2="2621.4817" y2="3127.5435">
				<stop  offset="0" style="stop-color:#AA80F9"/>
				<stop  offset="0.9964" style="stop-color:#6165D7"/>
			</linearGradient>
			<path style="fill:url(#SVGID_00000133492768215756904460000010561935301557854614_);" d="M2048.703,2974.145
				c-20.747,28.649-32.449,61.039-32.449,95.342c0,116.783,135.484,211.455,302.613,211.455s302.614-94.672,302.614-211.455
				c0-34.303-11.702-66.693-32.449-95.342H2048.703z"/>
			
				<linearGradient id="SVGID_00000163066090428451879870000017718865856381074106_" gradientUnits="userSpaceOnUse" x1="2309.0269" y1="2987.3162" x2="2450.7075" y2="2797.699">
				<stop  offset="0" style="stop-color:#AA80F9"/>
				<stop  offset="0.9964" style="stop-color:#6165D7"/>
			</linearGradient>
			
				<ellipse style="fill:url(#SVGID_00000163066090428451879870000017718865856381074106_);" cx="2318.868" cy="2974.145" rx="270.045" ry="23.436"/>
			<g style="opacity:0.3;">
				<path style="fill:#FFFFFF;" d="M2347.098,3202.112c-36.406-0.122-111.565-0.375-169.377-56.459
					c-34.988-33.943-78.602-102.866-57.524-159.79c31.973-86.351,187.39-76.435,198.139-148.072
					c4.888-32.575-26.688-38.359-34.088-94.809c-8.159-62.239,26.064-86.955,25.566-143.811
					c-0.178-20.417-4.859-47.104-22.893-78.83h-38.359v216.777c0,21.114-13.222,39.987-33.09,47.132
					c-129.343,46.518-222.574,174.163-222.574,291.814c0,147.205,145.943,222.986,325.971,222.986s325.971-75.781,325.971-222.986
					c0-8.406-0.492-16.863-1.423-25.337C2592.9,3107.178,2487.343,3202.583,2347.098,3202.112z"/>
			</g>
			
				<linearGradient id="SVGID_00000106851499529750117970000006187284992652301720_" gradientUnits="userSpaceOnUse" x1="2341.2717" y1="2474.0969" x2="2269.0022" y2="2637.02">
				<stop  offset="0.0036" style="stop-color:#E38DDD"/>
				<stop  offset="1" style="stop-color:#9571F6"/>
			</linearGradient>
			<path style="fill:url(#SVGID_00000106851499529750117970000006187284992652301720_);" d="M2383.317,2546.974h-128.897
				c-12.355,0-22.37-10.016-22.37-22.371l0,0c0-12.355,10.015-22.37,22.37-22.37h128.897c12.355,0,22.37,10.015,22.37,22.37l0,0
				C2405.687,2536.958,2395.672,2546.974,2383.317,2546.974z"/>
		</g>
	</g>
</g>
</svg>
