<?xml version="1.0" encoding="utf-8"?>
<!-- Generator: Adobe Illustrator 27.5.0, SVG Export Plug-In . SVG Version: 6.00 Build 0)  -->
<svg version="1.1" xmlns="http://www.w3.org/2000/svg" xmlns:xlink="http://www.w3.org/1999/xlink" x="0px" y="0px"
	 viewBox="0 0 3710 3710" style="enable-background:new 0 0 3710 3710;" xml:space="preserve">
<g id="Background">
	<g>
		<g>
			<rect style="fill:#FFFFFF;" width="3710" height="3710"/>
		</g>
	</g>
</g>
<g id="Illustration">
	<g>
		<linearGradient id="SVGID_1_" gradientUnits="userSpaceOnUse" x1="3509.1636" y1="3711.6631" x2="1522.2134" y2="1596.5231">
			<stop  offset="0" style="stop-color:#B37CFF"/>
			<stop  offset="1" style="stop-color:#F895E7"/>
		</linearGradient>
		<path style="opacity:0.3;fill:url(#SVGID_1_);" d="M2912.583,2863.078c-73.35,75.607-138.981,120.051-189.231,153.603
			c-490.073,327.226-1050.28,232.912-1223.482,200.675c-279.44-52.01-515.326-88.7-717.995-271.803
			c-460.524-416.065-438.125-1284.007-86.228-1821.66c41.724-63.75,393.088-584.58,954.508-657.969
			c13.731-1.795,23.977-2.817,32.951-3.767c86.85-9.195,625.044-57.727,1063.888,309.936
			c62.819,52.629,163.911,147.558,257.657,292.342C3347.428,1593.825,3348.514,2413.737,2912.583,2863.078z"/>
		<g>
			<g>
				<g style="opacity:0.3;">
					
						<linearGradient id="SVGID_00000152235667778753592470000004082328764263626416_" gradientUnits="userSpaceOnUse" x1="452.2816" y1="-363.0118" x2="1029.4241" y2="-363.0118" gradientTransform="matrix(0.6228 0.7823 -0.7823 0.6228 1124.6053 482.6095)">
						<stop  offset="0" style="stop-color:#B37CFF"/>
						<stop  offset="1" style="stop-color:#F895E7"/>
					</linearGradient>
					<path style="fill:url(#SVGID_00000152235667778753592470000004082328764263626416_);" d="M1519.602,761.781
						c-3.185-4.001-2.898-9.845,0.83-13.507c8.15-8.012,16.772-15.788,25.62-23.113c4.306-3.564,10.684-2.964,14.247,1.34
						c0.042,0.052,0.082,0.104,0.123,0.154c3.424,4.301,2.788,10.571-1.466,14.092c-8.408,6.959-16.596,14.346-24.339,21.956
						c-3.984,3.917-10.392,3.863-14.309-0.124C1520.056,762.325,1519.822,762.057,1519.602,761.781z M1588.966,707.393
						c-0.246-0.309-0.478-0.638-0.692-0.983c-2.943-4.75-1.478-10.988,3.272-13.931c9.758-6.043,19.871-11.73,30.057-16.899
						c4.983-2.53,11.049-0.551,13.604,4.441c2.528,4.984,0.536,11.073-4.443,13.601c-9.682,4.915-19.288,10.317-28.561,16.062
						C1597.797,712.413,1592.116,711.349,1588.966,707.393z M1668.581,669.63c-0.701-0.881-1.267-1.896-1.654-3.023
						c-1.809-5.286,1.006-11.041,6.292-12.852c10.834-3.715,21.967-7.003,33.087-9.774c5.424-1.348,10.909,1.957,12.264,7.371
						c1.35,5.421-1.951,10.914-7.372,12.264c-10.56,2.631-21.129,5.753-31.419,9.28
						C1675.621,674.323,1671.17,672.883,1668.581,669.63z M1754.658,650.614c-1.16-1.456-1.93-3.25-2.139-5.238
						c-0.584-5.557,3.449-10.535,9.005-11.12c11.4-1.195,22.988-1.913,34.442-2.134c5.582-0.102,10.197,4.337,10.309,9.923
						c0.107,5.585-4.336,10.201-9.923,10.31c-10.878,0.208-21.884,0.888-32.717,2.028
						C1760.068,654.756,1756.739,653.228,1754.658,650.614z M1842.813,651.27c-1.626-2.042-2.465-4.708-2.13-7.504
						c0.664-5.55,5.7-9.509,11.247-8.843c11.352,1.359,22.808,3.223,34.043,5.545c5.473,1.126,8.996,6.477,7.864,11.953
						c-1.13,5.471-6.481,8.992-11.956,7.864c-10.679-2.208-21.567-3.979-32.355-5.271
						C1846.774,654.684,1844.413,653.279,1842.813,651.27z M1928.621,671.409c-2.106-2.645-2.841-6.284-1.623-9.703
						c1.876-5.265,7.661-8.011,12.926-6.138c10.788,3.842,21.548,8.195,31.974,12.941c5.088,2.317,7.332,8.315,5.016,13.402
						c-2.312,5.084-8.313,7.331-13.399,5.017c-9.909-4.509-20.128-8.645-30.379-12.296
						C1931.29,673.975,1929.757,672.836,1928.621,671.409z M2178.388,946.462c-0.873-1.096-1.529-2.389-1.892-3.836
						c-2.645-10.544-5.787-21.114-9.339-31.415c-1.821-5.282,0.984-11.042,6.265-12.861c5.282-1.824,11.042,0.982,12.864,6.265
						c3.741,10.848,7.052,21.981,9.839,33.083c1.36,5.421-1.933,10.917-7.352,12.276
						C2184.799,950.974,2180.784,949.471,2178.388,946.462z M2007.781,710.039c-2.614-3.284-2.998-7.992-0.62-11.732
						c2.999-4.717,9.252-6.108,13.967-3.11c9.665,6.144,19.181,12.785,28.282,19.737c4.424,3.412,5.294,9.74,1.9,14.183
						c-3.391,4.44-9.742,5.29-14.184,1.899c-8.642-6.603-17.678-12.908-26.855-18.744
						C2009.297,711.651,2008.462,710.894,2007.781,710.039z M2147.435,863.938c-0.416-0.522-0.789-1.092-1.104-1.71
						c-4.941-9.69-10.369-19.294-16.125-28.548c-2.95-4.747-1.497-10.986,3.247-13.937c4.745-2.949,11.003-1.516,13.936,3.247
						c6.055,9.738,11.767,19.844,16.969,30.039c2.539,4.978,0.562,11.074-4.415,13.611
						C2155.584,868.864,2150.369,867.623,2147.435,863.938z M2076.328,765.383c-3.18-3.995-2.899-9.829,0.816-13.494
						c3.978-3.925,10.383-3.881,14.311,0.094c8.035,8.145,15.827,16.746,23.154,25.568c0.047,0.053,0.093,0.11,0.137,0.166
						c3.419,4.295,2.79,10.555-1.451,14.08c-4.3,3.572-10.677,2.984-14.248-1.316c-6.962-8.378-14.364-16.546-22-24.284
						C2076.792,765.935,2076.551,765.663,2076.328,765.383z"/>
					
						<linearGradient id="SVGID_00000057150671337529757350000005093518789817028772_" gradientUnits="userSpaceOnUse" x1="1057.4807" y1="-515.0326" x2="1091.188" y2="-515.0326" gradientTransform="matrix(0.6228 0.7823 -0.7823 0.6228 1124.6053 482.6095)">
						<stop  offset="0" style="stop-color:#B37CFF"/>
						<stop  offset="1" style="stop-color:#F895E7"/>
					</linearGradient>
					<path style="fill:url(#SVGID_00000057150671337529757350000005093518789817028772_);" d="M2189.375,1016.654
						c-1.24-1.558-2.037-3.498-2.176-5.638c-0.336-5.206-0.789-10.49-1.339-15.711c-0.589-5.555,3.441-10.539,8.996-11.125
						c5.557-0.59,10.546,3.438,11.125,8.999c0.582,5.49,1.056,11.048,1.412,16.527c0.361,5.575-3.867,10.391-9.44,10.751
						C2194.515,1020.68,2191.369,1019.159,2189.375,1016.654z"/>
				</g>
				<g style="opacity:0.3;">
					
						<linearGradient id="SVGID_00000124855932514752530140000012009954780544829846_" gradientUnits="userSpaceOnUse" x1="1232.4414" y1="-257.4687" x2="1255.5718" y2="-257.4687" gradientTransform="matrix(0.6228 0.7823 -0.7823 0.6228 1124.6053 482.6095)">
						<stop  offset="0" style="stop-color:#B37CFF"/>
						<stop  offset="1" style="stop-color:#F895E7"/>
					</linearGradient>
					<path style="fill:url(#SVGID_00000124855932514752530140000012009954780544829846_);" d="M2087.537,1307.827
						c-3.042-3.82-2.948-9.388,0.448-13.112c3.516-3.852,7.011-7.844,10.384-11.863c3.594-4.281,9.976-4.837,14.255-1.245
						c4.297,3.608,4.836,9.977,1.245,14.255c-3.552,4.23-7.232,8.435-10.933,12.493c-3.766,4.128-10.166,4.421-14.295,0.656
						C2088.235,1308.64,2087.868,1308.243,2087.537,1307.827z"/>
					
						<linearGradient id="SVGID_00000173146724357699954540000015426927255842492811_" gradientUnits="userSpaceOnUse" x1="666.0455" y1="5.6336" x2="1260.5165" y2="5.6336" gradientTransform="matrix(0.6228 0.7823 -0.7823 0.6228 1124.6053 482.6095)">
						<stop  offset="0" style="stop-color:#B37CFF"/>
						<stop  offset="1" style="stop-color:#F895E7"/>
					</linearGradient>
					<path style="fill:url(#SVGID_00000173146724357699954540000015426927255842492811_);" d="M1488.171,1288.218
						c-2.9-3.642-5.748-7.348-8.546-11.115c-3.33-4.487-2.394-10.825,2.092-14.156c4.486-3.331,10.856-2.386,14.157,2.089
						c6.456,8.694,13.25,17.107,20.276,25.094c3.687,4.206,3.282,10.588-0.913,14.279c-4.198,3.693-10.592,3.283-14.282-0.914
						C1496.609,1298.556,1492.308,1293.414,1488.171,1288.218z M1450.786,1232.14c-0.352-0.442-0.673-0.922-0.955-1.435
						c-5.443-9.889-10.528-20.121-15.11-30.408c-2.274-5.103,0.02-11.085,5.122-13.358c5.106-2.274,11.104,0.02,13.36,5.125
						c4.353,9.77,9.185,19.488,14.355,28.888c2.694,4.894,0.909,11.047-3.984,13.74
						C1459.189,1237.104,1453.8,1235.926,1450.786,1232.14z M1538.808,1340.94c-2.971-3.732-2.966-9.164,0.264-12.905
						c3.654-4.23,10.043-4.696,14.273-1.045c8.089,6.988,16.588,13.723,25.267,20.018c4.518,3.289,5.528,9.61,2.248,14.131
						c-3.284,4.524-9.611,5.53-14.134,2.248c-9.138-6.63-18.089-13.725-26.609-21.082
						C1539.631,1341.884,1539.195,1341.426,1538.808,1340.94z M1417.581,1151.986c-0.8-1.005-1.417-2.18-1.797-3.489
						c-3.134-10.834-5.843-21.933-8.051-32.987c-1.094-5.479,2.46-10.807,7.939-11.9c5.483-1.096,10.81,2.455,11.903,7.94
						c2.097,10.495,4.668,21.035,7.646,31.324c1.555,5.367-1.54,10.978-6.907,12.53
						C1424.257,1156.577,1420.059,1155.098,1417.581,1151.986z M1610.287,1389.985c-2.437-3.061-2.971-7.4-1.01-11.073
						c2.632-4.93,8.763-6.792,13.693-4.16c9.423,5.034,19.196,9.733,29.047,13.972c5.133,2.208,7.506,8.159,5.294,13.294
						c-2.209,5.131-8.158,7.5-13.291,5.292c-10.371-4.461-20.661-9.409-30.584-14.709
						C1612.181,1391.932,1611.121,1391.033,1610.287,1389.985z M1690.798,1422.159c-1.948-2.447-2.738-5.761-1.841-9.006
						c1.492-5.385,7.066-8.543,12.452-7.051c10.328,2.858,20.898,5.316,31.412,7.303c5.493,1.03,9.103,6.32,8.065,11.819
						c-1.038,5.492-6.329,9.1-11.821,8.065c-11.066-2.092-22.188-4.677-33.055-7.687
						C1693.871,1425.009,1692.083,1423.773,1690.798,1422.159z M1776.408,1436.015c-1.482-1.861-2.316-4.248-2.186-6.812
						c0.282-5.579,5.036-9.875,10.617-9.591c10.713,0.544,21.563,0.643,32.254,0.29c5.583-0.183,10.26,4.188,10.444,9.781
						c0.182,5.584-4.194,10.26-9.781,10.444c-11.25,0.368-22.672,0.267-33.943-0.305
						C1780.796,1439.667,1778.154,1438.207,1776.408,1436.015z M1862.997,1430.871c-1.027-1.29-1.751-2.847-2.05-4.587
						c-0.944-5.507,2.754-10.735,8.262-11.679c10.567-1.81,21.172-4.092,31.527-6.784c5.408-1.405,10.936,1.845,12.339,7.244
						c1.407,5.409-1.839,10.933-7.247,12.339c-10.907,2.836-22.077,5.24-33.199,7.146
						C1868.858,1435.194,1865.221,1433.665,1862.997,1430.871z M1946.376,1406.834c-0.577-0.725-1.062-1.544-1.434-2.443
						c-2.135-5.163,0.321-11.081,5.484-13.214c9.882-4.086,19.719-8.646,29.243-13.562c4.967-2.563,11.074-0.597,13.63,4.353
						c2.564,4.965,0.614,11.069-4.353,13.632c-10.026,5.173-20.383,9.976-30.787,14.275
						C1953.894,1411.639,1949.113,1410.273,1946.376,1406.834z M2022.386,1365.096c-0.129-0.162-0.253-0.331-0.375-0.502
						c-3.207-4.574-2.099-10.885,2.477-14.091c6.459-4.528,12.853-9.308,19.012-14.212c2.229-1.775,4.435-3.573,6.614-5.386
						c4.297-3.575,10.677-2.991,14.25,1.305c3.704,4.278,2.99,10.673-1.302,14.247c-2.294,1.91-4.61,3.797-6.957,5.665
						c-6.478,5.157-13.208,10.187-20.001,14.949C2031.7,1370.158,2025.69,1369.247,2022.386,1365.096z"/>
					
						<linearGradient id="SVGID_00000033338844216546735390000014535773257916338329_" gradientUnits="userSpaceOnUse" x1="606.7886" y1="130.9425" x2="640.0659" y2="130.9425" gradientTransform="matrix(0.6228 0.7823 -0.7823 0.6228 1124.6053 482.6095)">
						<stop  offset="0" style="stop-color:#B37CFF"/>
						<stop  offset="1" style="stop-color:#F895E7"/>
					</linearGradient>
					<path style="fill:url(#SVGID_00000033338844216546735390000014535773257916338329_);" d="M1402.834,1066.245
						c-1.253-1.574-2.05-3.533-2.181-5.69c-0.327-5.468-0.545-11.046-0.646-16.58c-0.104-5.588,4.342-10.201,9.928-10.304
						c5.587-0.101,10.201,4.336,10.304,9.928c0.098,5.257,0.305,10.555,0.614,15.747c0.336,5.575-3.915,10.369-9.493,10.703
						C1407.94,1070.253,1404.816,1068.734,1402.834,1066.245z"/>
				</g>
				<g>
					
						<linearGradient id="SVGID_00000070116031793607122430000001491973081016120220_" gradientUnits="userSpaceOnUse" x1="2226.8105" y1="411.6256" x2="106.3248" y2="-519.3175" gradientTransform="matrix(0.6228 0.7823 -0.7823 0.6228 1124.6053 482.6095)">
						<stop  offset="0" style="stop-color:#A737D5"/>
						<stop  offset="1" style="stop-color:#EF497A"/>
					</linearGradient>
					<path style="fill:url(#SVGID_00000070116031793607122430000001491973081016120220_);" d="M1503.15,1003.832
						c-0.428,1.971,0.441,3.998,2.165,5.045l49.186,29.888c0.433,26.875,5.153,53.874,14.412,79.939l-35.596,45.179
						c-1.249,1.585-1.354,3.787-0.263,5.484l37.336,58.069c1.092,1.697,3.14,2.514,5.098,2.037l55.878-13.636
						c19.872,19.241,42.476,34.741,66.749,46.288l6.78,57.155c0.238,2.003,1.72,3.635,3.691,4.063l67.462,14.66
						c1.973,0.428,3.999-0.441,5.046-2.165l29.888-49.185c26.875-0.432,53.874-5.154,79.939-14.413l45.18,35.597
						c1.584,1.249,3.786,1.354,5.483,0.263l58.069-37.337c1.697-1.091,2.515-3.139,2.036-5.099l-13.636-55.878
						c19.241-19.872,34.742-42.476,46.288-66.748l57.155-6.78c2.002-0.238,3.635-1.72,4.063-3.691l14.659-67.462
						c0.43-1.972-0.441-3.998-2.165-5.045l-49.186-29.888c-0.431-26.875-5.153-53.874-14.412-79.939l35.597-45.18
						c1.248-1.584,1.354-3.786,0.264-5.484l-37.338-58.069c-1.091-1.697-3.138-2.515-5.099-2.036l-55.878,13.636
						c-19.871-19.242-42.477-34.742-66.749-46.288l-6.78-57.154c-0.237-2.004-1.721-3.636-3.691-4.064l-67.462-14.659
						c-1.971-0.428-3.997,0.441-5.045,2.165l-29.888,49.185c-26.875,0.432-53.874,5.154-79.939,14.413l-45.18-35.597
						c-1.583-1.248-3.787-1.354-5.484-0.262l-58.068,37.336c-1.697,1.091-2.515,3.138-2.037,5.099l13.637,55.878
						c-19.241,19.872-34.741,42.476-46.288,66.748l-57.154,6.781c-2.004,0.237-3.635,1.719-4.064,3.691L1503.15,1003.832z"/>
					<path style="opacity:0.56;fill:#FFFFFF;" d="M1752.362,1077.657c-21.069-26.464-20.136-65.173,3.646-90.596
						c26.143-27.944,70.141-29.408,98.084-3.268c13.541,12.662,21.333,29.841,21.948,48.363c0.619,18.525-6.015,36.183-18.68,49.718
						c-26.143,27.944-70.141,29.408-98.084,3.268C1756.758,1082.786,1754.451,1080.281,1752.362,1077.657z M1848.387,1001.412
						c-1.627-2.044-3.411-3.98-5.354-5.798c-21.423-20.042-55.161-18.916-75.202,2.505c-20.043,21.425-18.932,55.163,2.504,75.204
						c21.422,20.043,55.16,18.917,75.202-2.505c9.711-10.38,14.797-23.917,14.323-38.122
						C1859.475,1021.152,1855.453,1010.287,1848.387,1001.412z"/>
					<path style="opacity:0.56;fill:#FFFFFF;" d="M1674.833,1141.194c-3.618-4.545-7.029-9.299-10.215-14.252l0,0
						c-1.003-1.558-1.98-3.135-2.933-4.725c-4.694-7.844-8.757-16.049-12.126-24.489c-0.046-0.115-0.092-0.23-0.138-0.345
						c-0.129-0.327-0.258-0.654-0.383-0.983c-0.25-0.637-0.492-1.278-0.733-1.917c-0.633-1.683-0.071-3.522,1.263-4.588
						c0.325-0.258,0.696-0.471,1.104-0.624c2.092-0.786,4.421,0.28,5.209,2.367c4.041,10.768,9.272,21.171,15.545,30.922
						c31.141,48.451,83.884,74.799,137.606,74.587c29.881-0.114,60.067-8.45,87.011-25.776c4.726-3.037,9.263-6.291,13.597-9.744
						c29.173-23.231,49.302-55.52,57.326-92.453c9.22-42.425,1.366-85.902-22.113-122.417
						c-48.499-75.412-149.237-97.28-224.617-48.811c-4.648,2.988-9.128,6.201-13.421,9.622
						c-18.608,14.82-33.768,33.547-44.323,54.89c-0.273,0.551-0.653,1.013-1.106,1.371c-1.187,0.945-2.864,1.181-4.315,0.462
						c-2.002-0.998-2.83-3.415-1.833-5.424c11.082-22.407,26.996-42.071,46.532-57.629c4.507-3.591,9.208-6.962,14.085-10.1
						c79.143-50.888,184.936-27.874,235.806,51.24c24.651,38.336,32.893,83.977,23.214,128.515
						c-8.423,38.774-29.556,72.671-60.181,97.06c-4.552,3.623-9.314,7.039-14.272,10.228c-38.339,24.65-83.98,32.895-128.517,23.217
						C1733.125,1192.972,1699.223,1171.829,1674.833,1141.194z"/>
				</g>
			</g>
			<g>
				<g style="opacity:0.3;">
					
						<linearGradient id="SVGID_00000058557206701263709560000014395881925162896805_" gradientUnits="userSpaceOnUse" x1="108.9715" y1="117.6884" x2="125.4224" y2="117.6884" gradientTransform="matrix(0.6228 0.7823 -0.7823 0.6228 1124.6053 482.6095)">
						<stop  offset="0" style="stop-color:#B37CFF"/>
						<stop  offset="1" style="stop-color:#F895E7"/>
					</linearGradient>
					<path style="fill:url(#SVGID_00000058557206701263709560000014395881925162896805_);" d="M1095.954,657.731
						c-1.684-2.115-1.855-5.162-0.219-7.486c3.051-4.34,6.276-8.647,9.585-12.799c2.15-2.698,6.078-3.143,8.781-0.992
						c2.712,2.143,3.142,6.083,0.992,8.781c-3.153,3.957-6.227,8.061-9.139,12.202c-1.982,2.821-5.88,3.499-8.706,1.517
						C1096.747,658.6,1096.317,658.187,1095.954,657.731z"/>
					
						<linearGradient id="SVGID_00000055699974972480287260000011908423707988214712_" gradientUnits="userSpaceOnUse" x1="102.3108" y1="-67.1242" x2="424.7276" y2="-67.1242" gradientTransform="matrix(0.6228 0.7823 -0.7823 0.6228 1124.6053 482.6095)">
						<stop  offset="0" style="stop-color:#B37CFF"/>
						<stop  offset="1" style="stop-color:#F895E7"/>
					</linearGradient>
					<path style="fill:url(#SVGID_00000055699974972480287260000011908423707988214712_);" d="M1127.099,621.113
						c-1.973-2.478-1.788-6.096,0.525-8.354c6.531-6.386,13.467-12.508,20.609-18.194c1.504-1.197,3.026-2.381,4.564-3.555
						c2.75-2.092,6.681-1.337,8.763,1.179c2.092,2.745,1.562,6.666-1.179,8.758c-1.471,1.121-2.927,2.252-4.364,3.396
						c-6.813,5.424-13.428,11.264-19.658,17.351c-2.469,2.415-6.423,2.368-8.838-0.097
						C1127.373,621.438,1127.23,621.278,1127.099,621.113z M1178.705,581.783c-0.184-0.231-0.358-0.479-0.511-0.739
						c-1.742-2.982-0.74-6.81,2.239-8.554c9.556-5.595,19.545-10.645,29.683-15.008c3.171-1.366,6.849,0.117,8.21,3.269
						c1.364,3.173-0.097,6.844-3.268,8.21c-9.673,4.163-19.199,8.982-28.314,14.316
						C1184.029,584.865,1180.61,584.175,1178.705,581.783z M1238.308,556.142c-0.494-0.62-0.876-1.346-1.113-2.152
						c-0.961-3.314,0.952-6.78,4.266-7.741c10.62-3.073,21.551-5.519,32.483-7.257c3.413-0.544,6.606,1.773,7.152,5.191
						c0.543,3.406-1.782,6.61-5.187,7.152c-10.427,1.659-20.845,3.986-30.973,6.92
						C1242.431,558.979,1239.838,558.064,1238.308,556.142z M1302.393,545.938c-0.806-1.013-1.302-2.282-1.355-3.671
						c-0.117-3.449,2.585-6.345,6.033-6.462c11.072-0.378,22.259-0.072,33.261,0.911c3.437,0.31,5.969,3.353,5.664,6.782
						c-0.305,3.437-3.34,5.974-6.782,5.668c-10.484-0.94-21.16-1.231-31.715-0.87
						C1305.442,548.367,1303.585,547.435,1302.393,545.938z M1367.025,551.696c-1.125-1.413-1.632-3.304-1.222-5.209
						c0.724-3.372,4.047-5.518,7.422-4.797c10.815,2.326,21.591,5.339,32.024,8.959c3.268,1.127,4.99,4.69,3.857,7.951
						c-1.132,3.261-4.694,4.989-7.951,3.857c-9.957-3.453-20.234-6.329-30.555-8.545
						C1369.13,553.596,1367.893,552.786,1367.025,551.696z M1428.292,572.962c-1.458-1.831-1.82-4.413-0.719-6.655
						c1.522-3.095,5.267-4.368,8.364-2.848c9.925,4.883,19.64,10.433,28.867,16.496c2.886,1.91,3.683,5.773,1.79,8.657
						c-1.893,2.883-5.771,3.685-8.652,1.791c-8.8-5.783-18.058-11.072-27.521-15.727
						C1429.564,574.255,1428.849,573.662,1428.292,572.962z M1482.487,608.554c-1.824-2.292-1.835-5.626,0.132-7.937
						c2.237-2.628,6.182-2.944,8.812-0.709c8.396,7.146,16.452,14.914,23.95,23.087c2.295,2.588,2.158,6.503-0.386,8.833
						c-2.543,2.333-6.495,2.16-8.829-0.381c-7.147-7.801-14.831-15.209-22.837-22.022
						C1483.013,609.157,1482.734,608.864,1482.487,608.554z M1543.537,683.965c-0.224-0.282-0.43-0.59-0.608-0.92
						c-4.341-8.01-9.197-15.923-14.435-23.52c-0.787-1.155-1.573-2.28-2.372-3.392c-2.005-2.812-1.358-6.712,1.452-8.718
						c2.811-2.015,6.807-1.405,8.719,1.448c0.846,1.191,1.686,2.383,2.511,3.594c5.47,7.939,10.561,16.234,15.111,24.635
						c1.645,3.036,0.519,6.826-2.516,8.47C1548.697,687.026,1545.39,686.293,1543.537,683.965z"/>
				</g>
				<g style="opacity:0.3;">
					
						<linearGradient id="SVGID_00000121254738196979813390000008324244986073481405_" gradientUnits="userSpaceOnUse" x1="246.2049" y1="241.9582" x2="614.1962" y2="241.9582" gradientTransform="matrix(0.6228 0.7823 -0.7823 0.6228 1124.6053 482.6095)">
						<stop  offset="0" style="stop-color:#B37CFF"/>
						<stop  offset="1" style="stop-color:#F895E7"/>
					</linearGradient>
					<path style="fill:url(#SVGID_00000121254738196979813390000008324244986073481405_);" d="M1107.69,976.534
						c-2.125-2.669-1.713-6.561,0.937-8.729c2.669-2.183,6.609-1.79,8.792,0.883c6.576,8.045,13.699,15.756,21.172,22.919
						c2.454,2.396,2.579,6.344,0.187,8.837c-2.391,2.493-6.346,2.572-8.837,0.187c-7.833-7.517-15.303-15.598-22.196-24.03
						C1107.727,976.579,1107.708,976.555,1107.69,976.534z M1088.979,950.611c-0.141-0.177-0.27-0.359-0.393-0.553
						c-5.83-9.185-11.16-18.819-15.844-28.631c-1.483-3.117-0.168-6.844,2.948-8.329c3.118-1.492,6.848-0.148,8.334,2.944
						c4.468,9.365,9.555,18.556,15.115,27.323c1.85,2.912,0.985,6.774-1.927,8.622
						C1094.485,953.716,1090.941,953.075,1088.979,950.611z M1153.759,1020.682c-1.726-2.168-1.851-5.304-0.115-7.631
						c2.061-2.761,5.976-3.33,8.743-1.266c8.334,6.216,17.111,11.979,26.099,17.124c2.993,1.732,4.031,5.534,2.313,8.529
						c-1.712,2.993-5.534,4.032-8.529,2.317c-9.42-5.395-18.623-11.438-27.355-17.957
						C1154.47,1021.469,1154.085,1021.093,1153.759,1020.682z M1061.519,892.975c-0.443-0.556-0.798-1.198-1.038-1.911
						c-3.453-10.324-6.302-20.967-8.464-31.629c-0.688-3.383,1.499-6.681,4.882-7.369c3.374-0.681,6.673,1.505,7.365,4.881
						c2.065,10.166,4.781,20.309,8.071,30.155c1.093,3.273-0.673,6.815-3.946,7.908
						C1065.831,895.864,1063.108,894.97,1061.519,892.975z M1209.129,1052.381c-1.378-1.731-1.793-4.142-0.874-6.32
						c1.34-3.185,5.005-4.676,8.185-3.338c9.556,4.027,19.457,7.509,29.439,10.347c3.326,0.944,5.246,4.404,4.3,7.724
						c-0.945,3.319-4.404,5.246-7.723,4.3c-10.462-2.981-20.847-6.629-30.867-10.848
						C1210.589,1053.824,1209.758,1053.172,1209.129,1052.381z M1270.489,1069.874c-1.055-1.325-1.569-3.069-1.286-4.869
						c0.539-3.409,3.739-5.738,7.147-5.199c10.269,1.621,20.725,2.634,31.073,3.012c3.454,0.125,6.147,3.028,6.019,6.473
						c-0.125,3.449-3.021,6.141-6.467,6.015c-10.852-0.394-21.813-1.453-32.573-3.152
						C1272.795,1071.899,1271.427,1071.053,1270.489,1069.874z M1334.278,1072.163c-0.741-0.931-1.227-2.081-1.332-3.358
						c-0.296-3.439,2.256-6.465,5.696-6.758c10.355-0.876,20.748-2.403,30.885-4.533c3.372-0.703,6.69,1.456,7.397,4.833
						c0.709,3.378-1.452,6.69-4.833,7.401c-10.629,2.229-21.529,3.832-32.391,4.757
						C1337.535,1074.687,1335.536,1073.743,1334.278,1072.163z"/>
					
						<linearGradient id="SVGID_00000069386545521642625680000014548983866181447868_" gradientUnits="userSpaceOnUse" x1="205.7513" y1="264.9798" x2="230.9186" y2="264.9798" gradientTransform="matrix(0.6228 0.7823 -0.7823 0.6228 1124.6053 482.6095)">
						<stop  offset="0" style="stop-color:#B37CFF"/>
						<stop  offset="1" style="stop-color:#F895E7"/>
					</linearGradient>
					<path style="fill:url(#SVGID_00000069386545521642625680000014548983866181447868_);" d="M1048.775,830.124
						c-0.751-0.943-1.237-2.112-1.338-3.405c-0.415-5.332-0.672-10.701-0.771-15.958c-0.062-3.449,2.683-6.301,6.134-6.366
						c3.444-0.054,6.295,2.684,6.365,6.134c0.091,5.013,0.339,10.136,0.732,15.225c0.267,3.441-2.308,6.447-5.747,6.713
						C1052.004,832.632,1050.024,831.693,1048.775,830.124z"/>
				</g>
				<g>
					
						<linearGradient id="SVGID_00000027598811558552800710000016880008195718797195_" gradientUnits="userSpaceOnUse" x1="2060.4495" y1="789.9988" x2="-60.0347" y2="-140.9435" gradientTransform="matrix(0.6228 0.7823 -0.7823 0.6228 1124.6053 482.6095)">
						<stop  offset="0" style="stop-color:#A737D5"/>
						<stop  offset="1" style="stop-color:#EF497A"/>
					</linearGradient>
					<path style="fill:url(#SVGID_00000027598811558552800710000016880008195718797195_);" d="M1115.169,783.907
						c-0.287,1.318,0.295,2.675,1.449,3.376l32.913,20c0.29,17.983,3.448,36.05,9.644,53.491l-23.819,30.232
						c-0.836,1.06-0.906,2.534-0.176,3.669l24.984,38.857c0.731,1.136,2.101,1.682,3.412,1.363l37.391-9.125
						c13.298,12.875,28.423,23.248,44.665,30.974l4.537,38.245c0.16,1.34,1.151,2.432,2.471,2.719l45.142,9.81
						c1.32,0.286,2.676-0.295,3.376-1.449l20-32.912c17.983-0.289,36.05-3.449,53.492-9.644l30.232,23.82
						c1.061,0.835,2.534,0.906,3.669,0.176l38.857-24.984c1.136-0.73,1.683-2.101,1.362-3.411l-9.125-37.391
						c12.876-13.297,23.248-28.423,30.974-44.664l38.246-4.537c1.34-0.159,2.432-1.151,2.719-2.47l9.81-45.143
						c0.287-1.319-0.295-2.675-1.449-3.376l-32.913-20c-0.288-17.983-3.448-36.05-9.644-53.491l23.82-30.233
						c0.835-1.06,0.906-2.533,0.176-3.669l-24.984-38.857c-0.73-1.135-2.1-1.682-3.411-1.363l-37.391,9.125
						c-13.297-12.876-28.423-23.248-44.665-30.974l-4.537-38.244c-0.159-1.341-1.151-2.433-2.47-2.72l-45.142-9.81
						c-1.319-0.286-2.675,0.295-3.376,1.449l-20,32.912c-17.983,0.289-36.05,3.449-53.491,9.645l-30.232-23.82
						c-1.059-0.835-2.534-0.906-3.669-0.175l-38.857,24.983c-1.135,0.731-1.683,2.1-1.363,3.412l9.125,37.391
						c-12.875,13.297-23.247,28.423-30.974,44.664l-38.245,4.538c-1.341,0.159-2.432,1.151-2.72,2.47L1115.169,783.907z"/>
					<path style="opacity:0.56;fill:#FFFFFF;" d="M1281.232,833.775c-6.279-7.887-9.852-17.539-10.195-27.796
						c-0.42-12.618,4.1-24.646,12.728-33.866c17.799-19.03,47.768-20.03,66.807-2.228c19.027,17.864,20.03,47.783,2.225,66.814
						c-8.626,9.223-20.327,14.532-32.943,14.95c-12.62,0.422-24.65-4.097-33.87-12.728
						C1284.264,837.309,1282.675,835.587,1281.232,833.775z M1345.498,782.764c-1.047-1.316-2.202-2.569-3.464-3.753
						c-14.005-13.094-36.048-12.359-49.146,1.642c-6.341,6.78-9.672,15.629-9.359,24.908c0.31,9.286,4.222,17.884,10.996,24.238l0,0
						c6.782,6.344,15.632,9.67,24.911,9.361c9.286-0.31,17.891-4.216,24.238-11.001
						C1355.587,815.425,1356.055,796.025,1345.498,782.764z"/>
					<path style="opacity:0.56;fill:#FFFFFF;" d="M1227.21,877.93c-2.463-3.094-4.787-6.337-6.973-9.729
						c-4.336-6.74-7.991-13.927-10.869-21.382c-0.127-0.336-0.254-0.672-0.381-1.008c-0.978-2.6-0.11-5.439,1.951-7.083
						c0.501-0.399,1.075-0.727,1.705-0.964c3.23-1.214,6.821,0.435,8.043,3.655c2.621,6.986,6.008,13.719,10.062,20.017l0.002,0.002
						c0.221,0.346,0.449,0.691,0.674,1.032c9.729,14.817,22.783,26.648,38.007,34.797c8.264,4.423,17.175,7.758,26.551,9.884
						c0.076,0.018,0.152,0.035,0.229,0.052c0.236,0.05,0.466,0.105,0.7,0.153c27.465,5.966,55.61,0.884,79.25-14.317
						c3.061-1.965,5.995-4.071,8.802-6.306c18.885-15.039,31.916-35.944,37.114-59.856c5.966-27.465,0.879-55.607-14.32-79.245
						c-15.199-23.618-38.697-39.946-66.159-45.918c-27.464-5.966-55.61-0.884-79.25,14.317c-3.009,1.932-5.908,4.014-8.687,6.225
						c-12.049,9.596-21.861,21.717-28.693,35.534c-0.422,0.851-1.009,1.564-1.708,2.117c-1.833,1.46-4.422,1.824-6.663,0.714
						c-3.089-1.539-4.363-5.275-2.83-8.375c7.646-15.459,18.625-29.024,32.099-39.759c3.113-2.478,6.354-4.805,9.718-6.968
						c26.453-17.007,57.939-22.695,88.669-16.016c30.724,6.679,57.02,24.895,74.016,51.368
						c17.008,26.448,22.698,57.933,16.016,88.663c-5.81,26.751-20.39,50.137-41.519,66.963c-3.137,2.497-6.423,4.856-9.843,7.056
						C1331.713,936.473,1264.342,924.57,1227.21,877.93z"/>
				</g>
			</g>
		</g>
		<g>
			<g>
				
					<linearGradient id="SVGID_00000026870306906294112930000013204563281283604910_" gradientUnits="userSpaceOnUse" x1="1608.1809" y1="2633.5735" x2="2179.7485" y2="918.8655">
					<stop  offset="0" style="stop-color:#2B3582"/>
					<stop  offset="1" style="stop-color:#150E42"/>
				</linearGradient>
				<path style="fill:url(#SVGID_00000026870306906294112930000013204563281283604910_);" d="M3084.015,2695.778
					c0,24.59-20.139,44.71-44.753,44.71H619.193c-24.614,0-44.753-20.12-44.753-44.71l-20.137-1390.747
					c0-24.591,28.972-72.598,82.068-68.99l2365.159-61.199c30.884-0.799,60.744,11.088,82.614,32.887
					c21.87,21.799,33.836,51.603,33.107,82.458L3084.015,2695.778z"/>
				
					<linearGradient id="SVGID_00000028283671047473745010000012847248263629313428_" gradientUnits="userSpaceOnUse" x1="3119.7036" y1="1316.8973" x2="-2262.3491" y2="4181.731">
					<stop  offset="0" style="stop-color:#FDF53F"/>
					<stop  offset="1" style="stop-color:#D93C65"/>
				</linearGradient>
				<path style="fill:url(#SVGID_00000028283671047473745010000012847248263629313428_);" d="M3039.832,2652.884
					c0,23.287-19.052,42.339-42.339,42.339H677.555c-23.287,0-42.339-19.052-42.339-42.339l-19.003-1262.532
					c2.238-75.976,68.848-103.283,109.226-101.67l2266.856-60.816c21.698-0.582,42.682,7.771,58.043,23.106
					c15.362,15.334,23.751,36.304,23.207,58.002L3039.832,2652.884z"/>
				<path style="opacity:0.54;fill:#FFFFFF;" d="M796.92,2406.808c2.233-88.469,1.401-871.88-4.103-939.539
					c-5.504-67.659,108.748-80.35,284.158-87.964c175.41-7.614,1655.418-37.76,1693.525-40.609
					c85.656-6.406,103.386,111.676,94.817,368.023c-6.438,192.59-17.109,509.851-22.019,655.751
					c-1.461,43.443-39.961,77.912-87.085,78.031c-356.151,0.903-1721.17,4.511-1812.041,7.007
					C839.6,2450.379,796.034,2441.887,796.92,2406.808z"/>
			</g>
			
				<linearGradient id="SVGID_00000081647871173784387800000009977500293844918657_" gradientUnits="userSpaceOnUse" x1="1747.0731" y1="3378.1719" x2="1962.4608" y2="2200.4844">
				<stop  offset="0" style="stop-color:#2B3582"/>
				<stop  offset="1" style="stop-color:#150E42"/>
			</linearGradient>
			<path style="fill:url(#SVGID_00000081647871173784387800000009977500293844918657_);" d="M3219.244,2855.937H488.274
				c-33.604,0-61.098-27.494-61.098-61.098l0,0c0-33.604,27.494-61.098,61.098-61.098h2730.969
				c33.604,0,61.098,27.494,61.098,61.098l0,0C3280.342,2828.443,3252.847,2855.937,3219.244,2855.937z"/>
			<path style="fill:#FFFFFF;" d="M1537.739,2500.03l1.33,6.8c1.218,6.232,18.299,5.869,30.515,5.869l1278.476,5.107
				c13.135,0,15.847-10.37,15.847-10.37c0-6.685-2.564-13.946-15.602-14.014l-1283.982-6.105
				C1550.153,2487.242,1536.326,2492.802,1537.739,2500.03z"/>
			
				<linearGradient id="SVGID_00000101104421465993570650000015773427482517694634_" gradientUnits="userSpaceOnUse" x1="754.47" y1="2500.1086" x2="1960.526" y2="2500.1086">
				<stop  offset="0" style="stop-color:#A737D5"/>
				<stop  offset="1" style="stop-color:#EF497A"/>
			</linearGradient>
			<path style="fill:url(#SVGID_00000101104421465993570650000015773427482517694634_);" d="M1957.284,2507.898
				c-2.198-6.332-4.896-12.746-7.482-19.188l-1160.199-4.194c-20.718-0.075-37.024,6.18-34.956,13.408l1.943,6.8
				c1.782,6.232,16.738,10.977,34.597,10.977h1169.339C1959.298,2512.968,1958.132,2510.341,1957.284,2507.898z"/>
			
				<linearGradient id="SVGID_00000137121760206739970010000006692925208496012204_" gradientUnits="userSpaceOnUse" x1="1973.1486" y1="2468.6794" x2="1851.0487" y2="2931.8167">
				<stop  offset="0" style="stop-color:#53D8FF"/>
				<stop  offset="0.7469" style="stop-color:#3840F7"/>
			</linearGradient>
			<circle style="fill:url(#SVGID_00000137121760206739970010000006692925208496012204_);" cx="1962.65" cy="2508.501" r="22.047"/>
		</g>
		<g>
			<g>
				<g>
					
						<linearGradient id="SVGID_00000153706110771150262560000007919126218111641989_" gradientUnits="userSpaceOnUse" x1="2573.7976" y1="3002.8291" x2="2714.6675" y2="2010.3309">
						<stop  offset="0" style="stop-color:#53D8FF"/>
						<stop  offset="1" style="stop-color:#3840F7"/>
					</linearGradient>
					<path style="fill:url(#SVGID_00000153706110771150262560000007919126218111641989_);" d="M3247.546,3140.626l-1348.31,0.002
						v-269.864l1348.31,0.002C3218.687,2870.766,3218.687,3140.626,3247.546,3140.626z"/>
					
						<linearGradient id="SVGID_00000072255642072953722730000007045735959689027261_" gradientUnits="userSpaceOnUse" x1="2198.4497" y1="4218.2412" x2="2716.6094" y2="2443.0649">
						<stop  offset="0" style="stop-color:#53D8FF"/>
						<stop  offset="1" style="stop-color:#3840F7"/>
					</linearGradient>
					<path style="fill:url(#SVGID_00000072255642072953722730000007045735959689027261_);" d="M1899.236,3073.096v-123.501
						c0-43.536,26.644-78.829,59.513-78.829h1326.464c1.897,0,3.449-1.552,3.449-3.45v-54.122c0-1.897-1.552-3.449-3.449-3.449
						H1872.1c-32.16,0-83.22,50.563-83.22,112.936v172.484c0,58.808,49.57,106.481,79.892,106.481h1416.44
						c1.897,0,3.449-1.552,3.449-3.45v-54.12c0-1.897-1.552-3.45-3.449-3.45H1950.218
						C1922.061,3140.626,1899.236,3110.392,1899.236,3073.096z"/>
					<path style="opacity:0.47;fill:#FFFFFF;" d="M3219.094,3118.551l-1205.503,0.002c-52.63,0-95.296-36.454-95.296-81.423v-55.709
						c0-49.809,47.257-90.186,105.552-90.186l1195.247,0.001C3190.643,2891.236,3190.643,3118.551,3219.094,3118.551z"/>
				</g>
				<path style="fill:#FFFFFF;" d="M3200.854,2929.584H1936.629c-1.905,0-3.449-1.543-3.449-3.449s1.544-3.449,3.449-3.449h1264.225
					c1.905,0,3.449,1.543,3.449,3.449S3202.759,2929.584,3200.854,2929.584z"/>
				<path style="fill:#FFFFFF;" d="M3200.854,2969.642H1936.629c-1.905,0-3.449-1.543-3.449-3.45c0-1.906,1.544-3.449,3.449-3.449
					h1264.225c1.905,0,3.449,1.543,3.449,3.449C3204.304,2968.099,3202.759,2969.642,3200.854,2969.642z"/>
				<path style="fill:#FFFFFF;" d="M3200.854,3009.699H1936.629c-1.905,0-3.449-1.543-3.449-3.449s1.544-3.449,3.449-3.449h1264.225
					c1.905,0,3.449,1.543,3.449,3.449S3202.759,3009.699,3200.854,3009.699z"/>
				<path style="fill:#FFFFFF;" d="M3200.854,3049.753H1936.629c-1.905,0-3.449-1.543-3.449-3.45c0-1.906,1.544-3.449,3.449-3.449
					h1264.225c1.905,0,3.449,1.543,3.449,3.449C3204.304,3048.21,3202.759,3049.753,3200.854,3049.753z"/>
				<path style="fill:#FFFFFF;" d="M3200.854,3089.81H1936.629c-1.905,0-3.449-1.543-3.449-3.449s1.544-3.449,3.449-3.449h1264.225
					c1.905,0,3.449,1.543,3.449,3.449S3202.759,3089.81,3200.854,3089.81z"/>
			</g>
			<g>
				
					<linearGradient id="SVGID_00000111883220136328159220000004531895786532495516_" gradientUnits="userSpaceOnUse" x1="3046.1018" y1="1320.0315" x2="2588.0796" y2="3349.4302">
					<stop  offset="0" style="stop-color:#A737D5"/>
					<stop  offset="1" style="stop-color:#EF497A"/>
				</linearGradient>
				<path style="fill:url(#SVGID_00000111883220136328159220000004531895786532495516_);" d="M2205.344,2811.577h1067.585
					c5.939,0,10.753-4.814,10.753-10.753v-241.382c0-5.939-4.814-10.753-10.753-10.753H2205.344
					c-5.939,0-10.753,4.814-10.753,10.753v241.382C2194.59,2806.763,2199.405,2811.577,2205.344,2811.577z"/>
				
					<linearGradient id="SVGID_00000101091363872860087040000001112040092772299954_" gradientUnits="userSpaceOnUse" x1="3567.05" y1="1793.0468" x2="2726.6704" y2="3377.7656">
					<stop  offset="0" style="stop-color:#CE1567"/>
					<stop  offset="1" style="stop-color:#7A1DBC"/>
				</linearGradient>
				<polygon style="fill:url(#SVGID_00000101091363872860087040000001112040092772299954_);" points="3032.654,2781.364 
					3160.599,2781.364 3160.599,2578.902 3032.654,2578.902 				"/>
				
					<linearGradient id="SVGID_00000108988299173651205580000000147425581412824745_" gradientUnits="userSpaceOnUse" x1="3483.6965" y1="1748.8458" x2="2643.3162" y2="3333.5659">
					<stop  offset="0" style="stop-color:#CE1567"/>
					<stop  offset="1" style="stop-color:#7A1DBC"/>
				</linearGradient>
				<polygon style="fill:url(#SVGID_00000108988299173651205580000000147425581412824745_);" points="2965.83,2781.364 
					3013.836,2781.364 3013.836,2578.902 2965.83,2578.902 				"/>
			</g>
		</g>
		<g>
			
				<linearGradient id="SVGID_00000108987866612688409290000004949830892782995103_" gradientUnits="userSpaceOnUse" x1="11073.8301" y1="2460.5144" x2="10691.4863" y2="2678.7512" gradientTransform="matrix(-1 0 0 1 13326.4766 0)">
				<stop  offset="0" style="stop-color:#F9B776"/>
				<stop  offset="1" style="stop-color:#F47960"/>
			</linearGradient>
			<path style="fill:url(#SVGID_00000108987866612688409290000004949830892782995103_);" d="M2310.775,2816.291
				c0.451-0.173,242.968-424.878,275.739-464.846c5.513-6.722,14.045-10.145,22.679-9.117l67.691,8.067l79.522,172.035
				l-132.481-77.156c13.109,90.663-157.081,225.4-215.449,274.564c-5.924,4.99-6.41,13.926-1.06,19.526l23.302,24.393
				c-38.257,38.778-82.401,63.678-132.225,75.194L2310.775,2816.291z"/>
			
				<linearGradient id="SVGID_00000034779272049899770350000015838617630726578344_" gradientUnits="userSpaceOnUse" x1="2208.0146" y1="2381.531" x2="2559.8518" y2="3390.4746">
				<stop  offset="0" style="stop-color:#2B3582"/>
				<stop  offset="1" style="stop-color:#150E42"/>
			</linearGradient>
			<path style="fill:url(#SVGID_00000034779272049899770350000015838617630726578344_);" d="M2417.239,2750.594
				c0,0,14.872,4.805,19.907,18.05c2.41,6.338-0.187,13.515-5.699,17.464c-24.488,17.545-105.266,74.188-142.542,85.282
				c-3.055,0.909-5.963-1.855-5.276-4.969c1.913-8.659,8.1-25.952,28.036-51.267l-1.789,3.617c-2.263,4.578,2.722,9.345,7.17,6.834
				C2341.977,2811.53,2392.761,2780.725,2417.239,2750.594z"/>
			
				<linearGradient id="SVGID_00000123423072263475254710000017559718440974389131_" gradientUnits="userSpaceOnUse" x1="11036.8438" y1="2514.9407" x2="12345.0361" y2="1695.9918" gradientTransform="matrix(-1 0 0 1 13326.4766 0)">
				<stop  offset="0" style="stop-color:#F9B776"/>
				<stop  offset="1" style="stop-color:#F47960"/>
			</linearGradient>
			<path style="fill:url(#SVGID_00000123423072263475254710000017559718440974389131_);" d="M2405.237,2920.528
				c0.407-0.261,36.793-87.925,37.199-88.186c33.361-203.117,114.756-377.071,138.76-422.844
				c4.039-7.699,11.702-12.778,20.365-13.518l67.923-5.799l112.693,152.381l-145.354-48.747
				c31.186,86.135-108.215,252.526-155.426,312.485c-4.791,6.085-3.458,14.935,2.914,19.337l27.756,19.172
				c-29.617,45.718-67.809,79.035-114.27,100.396L2405.237,2920.528z"/>
			
				<linearGradient id="SVGID_00000054947510984225837620000006484575284801687936_" gradientUnits="userSpaceOnUse" x1="2262.6123" y1="2362.4919" x2="2614.4497" y2="3371.4368">
				<stop  offset="0" style="stop-color:#2B3582"/>
				<stop  offset="1" style="stop-color:#150E42"/>
			</linearGradient>
			<path style="fill:url(#SVGID_00000054947510984225837620000006484575284801687936_);" d="M2496.202,2834.644
				c0,0,15.537,1.694,23.148,13.648c3.642,5.718,2.551,13.273-2.047,18.256c-20.432,22.137-88.074,93.955-122.334,112.364
				c-2.808,1.51-6.215-0.61-6.171-3.798c0.121-8.867,2.681-27.055,17.08-55.88l-1.019,3.904c-1.29,4.942,4.557,8.601,8.404,5.242
				C2434.831,2909.551,2478.328,2869.106,2496.202,2834.644z"/>
			<g>
				
					<linearGradient id="SVGID_00000181081902970849980220000001818931527798464168_" gradientUnits="userSpaceOnUse" x1="-4095.4453" y1="14118.1406" x2="-3738.4351" y2="13502.4268" gradientTransform="matrix(-1 0 0 1 5494.7764 0)">
					<stop  offset="0" style="stop-color:#CB236D"/>
					<stop  offset="1" style="stop-color:#4C246D"/>
				</linearGradient>
				<path style="fill:url(#SVGID_00000181081902970849980220000001818931527798464168_);" d="M2987.42,2358.089
					c0,0,61.444,91.39,66.486,133.079c5.042,41.688-16.99,56.105-81.302,61.421c-191.381,15.822-285.724-41.537-285.724-41.537
					c-13.092-83.473-22.407-104.709-131.746-150.096c0,0,138.295,10.98,166.127,0.18
					C2749.094,2350.335,2987.42,2358.089,2987.42,2358.089z"/>
			</g>
			<g>
				
					<linearGradient id="SVGID_00000135692963910231028040000000790646296189983888_" gradientUnits="userSpaceOnUse" x1="-4441.3418" y1="2075.02" x2="-4347.3223" y2="2310.8655" gradientTransform="matrix(0.9446 -0.3283 0.3283 0.9446 6190.9395 -1699.1722)">
					<stop  offset="0" style="stop-color:#2B3582"/>
					<stop  offset="1" style="stop-color:#150E42"/>
				</linearGradient>
				<path style="fill:url(#SVGID_00000135692963910231028040000000790646296189983888_);" d="M2742.399,1846.059
					c0,0,42.796-50.635,88.294,11.489c8.24,11.252,39.89,1.969,51.492,25.52c5.99,12.16,18.931,19.068,32.261,16.609
					c33.199-6.123,87.466-6.639,114.258,45.387c20.452,39.712,4.662,62.952-15.781,76.202c-15.015,9.732-20.374,29.49-11.294,44.907
					c8.709,14.789,10.346,34.814-12.141,58.916c-50.392,54.009-150.145-34.275-150.145-34.275l-79.203-187.157L2742.399,1846.059z"
					/>
				
					<linearGradient id="SVGID_00000052810529166507912640000014181248635786878855_" gradientUnits="userSpaceOnUse" x1="2782.344" y1="2325.0652" x2="3399.8145" y2="1435.0812">
					<stop  offset="0" style="stop-color:#CB236D"/>
					<stop  offset="1" style="stop-color:#4C246D"/>
				</linearGradient>
				<path style="fill:url(#SVGID_00000052810529166507912640000014181248635786878855_);" d="M2821.249,2345.989
					c0,0-71.552-68.132-106.774-113.259c-19.039-24.394-25.018-56.508-16.213-86.171c16.081-54.176,44.658-110.287,47.264-119.02
					c3.995-13.386,84.224-12.829,84.224-12.829s157.875,102.463,219.904,276.026l-69.663,21.688c0,0-41.221-69.156-81.95-113.124
					c0,0,70.476,93.101,72.957,131.214L2821.249,2345.989z"/>
				
					<linearGradient id="SVGID_00000100367616338215498620000003586594004427954095_" gradientUnits="userSpaceOnUse" x1="-2007.7061" y1="2334.7205" x2="-1626.8348" y2="2334.7205" gradientTransform="matrix(1 0 0 1 4930.0132 0)">
					<stop  offset="0" style="stop-color:#F9B776"/>
					<stop  offset="1" style="stop-color:#F47960"/>
				</linearGradient>
				<path style="fill:url(#SVGID_00000100367616338215498620000003586594004427954095_);" d="M2684.919,2372.876l53.764-58.497
					l62.093,16.72c0,0,72.39,11.215,113.821,0c41.431-11.215,41.431-11.215,41.431-11.215l93.626-29.149l14.705,41.557
					c3.734,10.551-0.017,22.265-9.141,28.748c-8.1,5.756-17.595,12.081-23.646,14.729c-12.33,5.394-284.028,1.705-284.028,1.705
					L2684.919,2372.876z"/>
				
					<linearGradient id="SVGID_00000181075368490477950070000011167907990940250774_" gradientUnits="userSpaceOnUse" x1="-3965.666" y1="1767.9325" x2="-3947.0476" y2="1631.7238" gradientTransform="matrix(0.9974 -0.0717 0.0717 0.9974 6595.8838 105.0094)">
					<stop  offset="0" style="stop-color:#F9B776"/>
					<stop  offset="1" style="stop-color:#F47960"/>
				</linearGradient>
				<path style="fill:url(#SVGID_00000181075368490477950070000011167907990940250774_);" d="M2774.611,1918.247l53.922,100.27
					c-3.56,21.887-58.688,22.505-67.204,9.436c-0.867-1.33-1.363-2.869-1.692-4.422l-32.256-66.998
					c-1.385-6.533,16.525-28.546,22.42-31.683l21.433-11.409C2779.486,1909.047,2745.049,1908.702,2774.611,1918.247z"/>
				<g>
					
						<linearGradient id="SVGID_00000026137145969523335820000000788992259122487693_" gradientUnits="userSpaceOnUse" x1="-6089.2925" y1="2299.666" x2="-5913.9873" y2="1987.6818" gradientTransform="matrix(0.5458 -0.8379 0.8379 0.5458 4176.8994 -4320.769)">
						<stop  offset="0" style="stop-color:#F9B776"/>
						<stop  offset="1" style="stop-color:#F47960"/>
					</linearGradient>
					<path style="fill:url(#SVGID_00000026137145969523335820000000788992259122487693_);" d="M2665.481,1894.714
						c0,0-6.086,33.876,20.54,76.95c26.626,43.072,53.14,41.127,66.612,25.766c13.47-15.361,29.606-40.944,22.264-83.904
						C2767.556,1870.566,2674.679,1851.514,2665.481,1894.714z"/>
					
						<linearGradient id="SVGID_00000137092462030055537390000009411114612942585992_" gradientUnits="userSpaceOnUse" x1="-6051.5952" y1="2027.9768" x2="-5963.9434" y2="2247.8496" gradientTransform="matrix(0.5458 -0.8379 0.8379 0.5458 4176.8994 -4320.769)">
						<stop  offset="0" style="stop-color:#2B3582"/>
						<stop  offset="1" style="stop-color:#150E42"/>
					</linearGradient>
					<path style="fill:url(#SVGID_00000137092462030055537390000009411114612942585992_);" d="M2742.664,1918.195
						c0,0-43.114-56.631-76.215-7.264l0.558,17.054c0,0-43.044-2.012-38.376-41.685c4.668-39.675,39.81-66.776,88.528-53.222
						c48.718,13.554,77.185,28.991,82.687,62.816c5.502,33.825-22.118,28.299-22.118,28.299s-10.55-23.339-23.289-24.933
						c-12.739-1.594-8.136,16.867-8.136,16.867L2742.664,1918.195z"/>
					
						<linearGradient id="SVGID_00000049916652836256332710000006584945004670913165_" gradientUnits="userSpaceOnUse" x1="-6051.9756" y1="2320.6309" x2="-5876.6724" y2="2008.6497" gradientTransform="matrix(0.5458 -0.8379 0.8379 0.5458 4176.8994 -4320.769)">
						<stop  offset="0" style="stop-color:#F9B776"/>
						<stop  offset="1" style="stop-color:#F47960"/>
					</linearGradient>
					<path style="fill:url(#SVGID_00000049916652836256332710000006584945004670913165_);" d="M2752.558,1916.684
						c0,0-22.334-28.981-2.004-34.996c20.329-6.015,19.57,28.397,18.245,41.2L2752.558,1916.684z"/>
				</g>
			</g>
			<g>
				
					<linearGradient id="SVGID_00000064350155064578268550000001055689333792167809_" gradientUnits="userSpaceOnUse" x1="-2099.0703" y1="2284.4021" x2="-2298.3159" y2="2339.01" gradientTransform="matrix(0.9988 -0.0494 0.0494 0.9988 4888.5444 -55.0328)">
					<stop  offset="0" style="stop-color:#53D8FF"/>
					<stop  offset="1" style="stop-color:#3840F7"/>
				</linearGradient>
				<path style="fill:url(#SVGID_00000064350155064578268550000001055689333792167809_);" d="M2862.886,2396.027
					c-0.189,0.009-0.378,0.014-0.569,0.013l-247.293-0.27c-6.114-0.005-11.064-4.966-11.058-11.079
					c0.005-6.116,4.985-11.167,11.081-11.057l247.294,0.27c6.112,0.005,11.063,4.966,11.057,11.079
					C2873.392,2390.906,2868.735,2395.739,2862.886,2396.027z"/>
				
					<linearGradient id="SVGID_00000137126697871752222410000010764552943722899590_" gradientUnits="userSpaceOnUse" x1="9008.8154" y1="2298.2507" x2="10800.8203" y2="2147.481" gradientTransform="matrix(1 0 0 1 -6621.0962 0)">
					<stop  offset="0" style="stop-color:#2B3582"/>
					<stop  offset="1" style="stop-color:#150E42"/>
				</linearGradient>
				<path style="fill:url(#SVGID_00000137126697871752222410000010764552943722899590_);" d="M2392.718,2171.5h205.948
					c15.193,0,29.021,8.768,35.502,22.509l95.209,201.886h-255.938c-9.791,0-18.588-5.983-22.186-15.088l-73.831-186.816
					C2373.157,2183.198,2381.112,2171.5,2392.718,2171.5z"/>
				
					<linearGradient id="SVGID_00000151510335656275737160000002149355395334544277_" gradientUnits="userSpaceOnUse" x1="-2380.3071" y1="2238.8132" x2="-2444.4539" y2="2335.4104" gradientTransform="matrix(1 0 0 1 4930.0132 0)">
					<stop  offset="0" style="stop-color:#53D8FF"/>
					<stop  offset="1" style="stop-color:#3840F7"/>
				</linearGradient>
				<path style="fill:url(#SVGID_00000151510335656275737160000002149355395334544277_);" d="M2537.81,2275.013
					c4.463,13.865,1.167,27.333-7.364,30.078c-8.53,2.745-19.063-6.269-23.525-20.135c-4.463-13.865-1.167-27.332,7.364-30.077
					C2522.814,2252.133,2533.347,2261.148,2537.81,2275.013z"/>
			</g>
		</g>
		<g>
			
				<linearGradient id="SVGID_00000080179711074642432270000015691033690335813770_" gradientUnits="userSpaceOnUse" x1="-6164.8071" y1="967.6604" x2="-3928.9839" y2="1229.5573" gradientTransform="matrix(-1 0 0 1 -1420 0)">
				<stop  offset="0" style="stop-color:#CB236D"/>
				<stop  offset="1" style="stop-color:#4C246D"/>
			</linearGradient>
			<path style="fill:url(#SVGID_00000080179711074642432270000015691033690335813770_);" d="M2538.563,1003.568l-42.661,153.734
				c-5.791,20.868-2.276,43.224,9.704,61.265c30.086,45.308,103.638,127.125,259.585,168.861
				c158.385,42.388,248.05-1.222,286.636-29.955c13.972-10.403,24.127-25.097,28.929-41.841l46.695-162.81L2538.563,1003.568z"/>
			
				<linearGradient id="SVGID_00000169529858583357820540000013226206503408002968_" gradientUnits="userSpaceOnUse" x1="-4216.5415" y1="1305.1864" x2="-4335.4131" y2="713.4105" gradientTransform="matrix(-1 0 0 1 -1420 0)">
				<stop  offset="0" style="stop-color:#CB236D"/>
				<stop  offset="1" style="stop-color:#4C246D"/>
			</linearGradient>
			<path style="fill:url(#SVGID_00000169529858583357820540000013226206503408002968_);" d="M2876.209,805.689l-443.603,124.265
				c-22.842,6.398-29.317,35.679-11.29,51.096c87.935,75.205,287.777,250.375,363.467,352.109
				c8.097,10.884,22.563,14.836,35.097,9.647l448.846-185.795c20.303-8.404,24.751-35.19,8.239-49.688
				c-87.081-76.453-308.688-267.874-380.726-300.193C2889.942,804.306,2882.855,803.828,2876.209,805.689z"/>
			
				<linearGradient id="SVGID_00000175282077929352955340000011572784826462629271_" gradientUnits="userSpaceOnUse" x1="-4535.0215" y1="1526.8546" x2="-4942.4565" y2="2690.9575" gradientTransform="matrix(-1 0 0 1 -1420 0)">
				<stop  offset="0" style="stop-color:#CB236D"/>
				<stop  offset="1" style="stop-color:#4C246D"/>
			</linearGradient>
			<path style="fill:url(#SVGID_00000175282077929352955340000011572784826462629271_);" d="M2866.612,1034.851
				c0,0,236.496,149.175,254.518,183.257c18.022,34.082-18.257,189.009-18.257,189.009c37.231,131.127,42.744,273.519-20.145,348.01
				c0,0-77.534-172.432-42.897-245.11c34.637-72.678,47.987-102.471,47.987-102.471s30.301-165.158,20.718-188.768
				C3108.536,1218.777,2846.54,1044.297,2866.612,1034.851z"/>
			<path style="fill:#FFFFFF;" d="M2492.301,971.097l227.029,223.947l56.757,55.986l14.189,13.997l7.083,6.962
				c2.212,2.172,4.714,4.031,7.342,5.664c10.578,6.505,24.057,8.047,35.879,3.897l151.19-50.648c1.194-0.4,2.485,0.243,2.885,1.437
				c0.398,1.189-0.238,2.474-1.421,2.88l-150.802,51.793c-13.289,4.781-28.74,3.194-40.873-4.164
				c-3.022-1.844-5.898-3.956-8.451-6.421l-7.184-6.954l-14.295-13.889l-57.18-55.555l-228.719-222.219
				c-1.86-1.807-1.903-4.781-0.096-6.641c1.807-1.86,4.78-1.903,6.64-0.096L2492.301,971.097z"/>
			<path style="fill:#FFFFFF;" d="M3085.566,1486.793l-0.449,0.477l-0.525,0.621l-1.064,1.259l-2.042,2.749
				c-1.348,1.855-2.529,3.893-3.81,5.83l-3.369,6.196c-1.048,2.113-1.966,4.303-2.96,6.451c-1.045,2.127-1.821,4.381-2.63,6.621
				c-0.794,2.245-1.676,4.46-2.403,6.731l-1.933,6.91c-0.623,2.31-1.377,4.588-1.764,6.964l-1.409,7.065
				c-0.449,2.36-1.025,4.699-1.236,7.104c-0.564,4.784-1.21,9.565-1.716,14.364l-0.697,14.49c-0.046,1.208-0.144,2.416-0.149,3.626
				l0.085,3.633l0.168,7.271c-0.081,9.713,1.246,19.368,2.027,29.061c0.158,2.429,0.554,4.831,0.945,7.234l1.136,7.216
				c0.78,4.807,1.464,9.633,2.322,14.431c2.15,9.51,4.1,19.078,6.416,28.561l7.951,28.218l0.024,0.085
				c0.245,0.868-0.261,1.77-1.128,2.014c-0.854,0.241-1.741-0.246-2.002-1.088l-8.739-28.183
				c-2.582-9.492-4.803-19.094-7.222-28.647c-0.994-4.825-1.815-9.691-2.73-14.538l-1.34-7.28c-0.459-2.425-0.922-4.849-1.149-7.312
				c-1.054-9.822-2.65-19.603-2.834-29.526l-0.364-7.425l-0.181-3.713c-0.028-1.239,0.039-2.481,0.053-3.721l0.331-14.901
				c0.389-4.959,0.924-9.916,1.384-14.88c0.157-2.491,0.686-4.94,1.089-7.406l1.277-7.391c0.345-2.481,1.064-4.892,1.654-7.329
				l1.844-7.302c0.704-2.413,1.57-4.785,2.35-7.18c0.796-2.393,1.56-4.797,2.614-7.108c1-2.327,1.924-4.687,2.995-6.991l3.48-6.814
				c1.356-2.193,2.588-4.436,4.063-6.586l2.262-3.21l1.267-1.584l0.645-0.797l0.792-0.878c1.737-1.925,4.705-2.078,6.631-0.342
				c1.925,1.737,2.078,4.706,0.342,6.631c-0.017,0.02-0.035,0.038-0.052,0.057L3085.566,1486.793z"/>
			<path style="fill:#FFFFFF;" d="M3092.79,1547.823l-0.011,9.229l0.08,10.404l0.272,20.848l0.715,41.722l1.682,83.458
				c0.033,1.41-1.083,2.578-2.492,2.612c-1.386,0.032-2.54-1.058-2.609-2.435l-3.825-83.406l-1.787-41.718l-0.809-20.878
				l-0.349-10.461l-0.129-5.272l-0.052-2.652c0.008-1.14,0.085-2.489,0.199-3.712c0.234-2.512,2.46-4.359,4.973-4.125
				c2.365,0.22,4.141,2.207,4.145,4.534L3092.79,1547.823z"/>
		</g>
		<g>
			
				<linearGradient id="SVGID_00000098206070885293380160000015443979534898111897_" gradientUnits="userSpaceOnUse" x1="715.2175" y1="1785.6921" x2="2586.157" y2="-1799.4073">
				<stop  offset="0" style="stop-color:#53D8FF"/>
				<stop  offset="1" style="stop-color:#3840F7"/>
			</linearGradient>
			<path style="fill:url(#SVGID_00000098206070885293380160000015443979534898111897_);" d="M1510.031,1627.709h-953.65
				c-38.66,0-70.974-29.411-74.602-67.901l-60.104-637.659c-4.091-43.402,29.589-81.121,73.176-81.951l1013.754-19.3
				c41.935-0.799,76.359,32.977,76.359,74.919v656.959C1584.963,1594.16,1551.415,1627.709,1510.031,1627.709z"/>
			<path style="opacity:0.5;fill:#FFFFFF;" d="M482.629,978.981l42.626,551.39c1.852,23.952,21.699,42.518,45.721,42.77
				l915.292,9.588c25.784,0.27,46.83-20.557,46.83-46.341V942.762c0-26.214-21.724-47.21-47.922-46.317l-957.918,32.647
				C500.893,929.991,480.595,952.682,482.629,978.981z"/>
			<path style="opacity:0.5;fill:#FFFFFF;" d="M586.34,1482.35h823.675c24.255,0,43.844-19.802,43.581-44.056l-4.165-384.385
				l-70.046,88.609l-56.71,7.242c0,0-50.803,1.811-64.435,3.621c-13.633,1.811-76.437,16.295-76.437,16.295l-60.569,30.78
				L1107,1239.575l-41.644,23.873l-45.15,26.552h-91.809l-112.904-50.425h-38.326l-69.592,40.549l-65.158,75.633L586.34,1482.35z"/>
			
				<linearGradient id="SVGID_00000127736448082218151990000014796857869821424787_" gradientUnits="userSpaceOnUse" x1="413.1029" y1="1860.8738" x2="2284.0364" y2="-1724.2139">
				<stop  offset="0" style="stop-color:#CB236D"/>
				<stop  offset="1" style="stop-color:#4C246D"/>
			</linearGradient>
			<path style="fill:url(#SVGID_00000127736448082218151990000014796857869821424787_);" d="M595.421,1010.64l516.146-15.439
				c5.291-0.158,9.666,4.088,9.666,9.381v8.311c0,5.133-4.123,9.313-9.255,9.384l-516.146,7.128
				c-5.233,0.072-9.515-4.15-9.515-9.384l0,0C586.317,1014.947,590.35,1010.792,595.421,1010.64z"/>
			
				<linearGradient id="SVGID_00000123398804953489325780000002306343537558027154_" gradientUnits="userSpaceOnUse" x1="433.0401" y1="1871.2777" x2="2303.9851" y2="-1713.8322">
				<stop  offset="0" style="stop-color:#CB236D"/>
				<stop  offset="1" style="stop-color:#4C246D"/>
			</linearGradient>
			<path style="fill:url(#SVGID_00000123398804953489325780000002306343537558027154_);" d="M586.317,1063.294v3.542
				c0,5.183,4.202,9.385,9.385,9.385h516.146c5.183,0,9.385-4.202,9.385-9.385v-3.542c0-5.183-4.202-9.385-9.385-9.385H595.702
				C590.519,1053.909,586.317,1058.111,586.317,1063.294z"/>
			
				<linearGradient id="SVGID_00000109027024645632234840000011067344463216525719_" gradientUnits="userSpaceOnUse" x1="938.5848" y1="1214.822" x2="2093.751" y2="1917.3369">
				<stop  offset="0" style="stop-color:#CB236D"/>
				<stop  offset="1" style="stop-color:#4C246D"/>
			</linearGradient>
			<path style="fill:url(#SVGID_00000109027024645632234840000011067344463216525719_);" d="M589.16,1482.35
				c-2.285,0-4.606-0.451-6.843-1.399c-8.917-3.784-13.08-14.08-9.294-22.998c59.489-140.193,126.343-216.514,204.376-233.321
				c53.755-11.584,95.334,9.772,132.014,28.616c39.036,20.048,72.751,37.369,118.967,19.913
				c34.861-13.166,53.969-37.39,74.198-63.035c25.218-31.972,51.293-65.029,106.502-74.397c27.614-4.681,49.203-1.038,68.253,2.174
				c23.046,3.888,41.25,6.958,66.468-5.224c29.635-14.318,55.572-43.07,77.088-85.452c4.387-8.638,14.95-12.083,23.58-7.701
				c8.638,4.385,12.086,14.943,7.701,23.58c-25.074,49.388-56.399,83.424-93.107,101.159c-35.293,17.054-61.87,12.568-87.568,8.231
				c-17.886-3.016-34.781-5.872-56.548-2.179c-41.894,7.107-61.79,32.329-84.825,61.535c-21.267,26.961-45.37,57.521-89.347,74.13
				c-60.788,22.956-106.798-0.68-147.389-21.528c-34.507-17.724-67.103-34.472-108.6-25.526
				c-65.14,14.03-125.524,85.603-179.47,212.73C602.48,1478.337,595.988,1482.35,589.16,1482.35z"/>
		</g>
		<g>
			<defs>
				
					<rect id="SVGID_00000107570032880154487320000007521871259339273905_" x="915.367" y="1039.222" width="1346.562" height="1407.522"/>
			</defs>
			<clipPath id="SVGID_00000047028473951069908920000005223716767801523624_">
				<use xlink:href="#SVGID_00000107570032880154487320000007521871259339273905_"  style="overflow:visible;"/>
			</clipPath>
			<g style="clip-path:url(#SVGID_00000047028473951069908920000005223716767801523624_);">
				<g>
					
						<linearGradient id="SVGID_00000105408345491513185960000010717344018841662395_" gradientUnits="userSpaceOnUse" x1="1195.8871" y1="1563.0249" x2="992.4203" y2="1278.8726">
						<stop  offset="0" style="stop-color:#F9B776"/>
						<stop  offset="1" style="stop-color:#F47960"/>
					</linearGradient>
					<path style="fill:url(#SVGID_00000105408345491513185960000010717344018841662395_);" d="M1090.694,1467.323
						c-1.967,6.253,20.809,15.773,34.219-9.799c0.47-12.255,7.922-64.763,0.599-74.746
						c-39.004-53.177-114.626-119.837-114.626-119.837c-12.781,12.61-2.251,24.999-2.251,24.999l36.685,38.215
						c-7.674,13.867-17.033,25.572-21.419,42.344c-3.323,12.701-1.291,26.275,5.125,37.835c6.44,11.6,15.225,26.681,23.532,38.484
						C1068.277,1467.156,1090.694,1467.323,1090.694,1467.323z"/>
					
						<linearGradient id="SVGID_00000127726685258072787900000011513771323953351817_" gradientUnits="userSpaceOnUse" x1="1193.6974" y1="1233.8416" x2="790.2736" y2="1760.0461">
						<stop  offset="0" style="stop-color:#F9B776"/>
						<stop  offset="1" style="stop-color:#F47960"/>
					</linearGradient>
					<path style="fill:url(#SVGID_00000127726685258072787900000011513771323953351817_);" d="M1061.366,1350.953l33.431,28.34
						l10.496,28.215l-29.808,33.067c0,0-10.021-55.986-17.47-68.103C1050.567,1360.355,1054.429,1354.496,1061.366,1350.953z"/>
				</g>
				<g>
					
						<linearGradient id="SVGID_00000019664577062321651150000014573133145276649099_" gradientUnits="userSpaceOnUse" x1="2592.4478" y1="3488.3269" x2="1776.9313" y2="4375.3809" gradientTransform="matrix(-1 0 0 1 4056.9614 0)">
						<stop  offset="0" style="stop-color:#2B3582"/>
						<stop  offset="1" style="stop-color:#150E42"/>
					</linearGradient>
					<path style="fill:url(#SVGID_00000019664577062321651150000014573133145276649099_);" d="M1722.299,3554.407
						c0,0,8.446,47.813,12.586,95.142c1.619,18.496-12.641,34.556-31.194,35.331c-63.028,2.624-197.849,7.729-246.227,5.57
						c-7.273-0.324-12.028-7.77-9.337-14.534c2.257-5.667,6.607-10.251,12.149-12.798l222.698-102.352L1722.299,3554.407z"/>
					
						<linearGradient id="SVGID_00000097500898688544786240000006367672983384058036_" gradientUnits="userSpaceOnUse" x1="2327.7434" y1="3554.2092" x2="2400.1814" y2="3554.2092" gradientTransform="matrix(-1 0 0 1 4056.9614 0)">
						<stop  offset="0" style="stop-color:#F9B776"/>
						<stop  offset="1" style="stop-color:#F47960"/>
					</linearGradient>
					<path style="fill:url(#SVGID_00000097500898688544786240000006367672983384058036_);" d="M1729.218,3526.314l-6.786,57.189
						c0,0-39.011,18.161-65.652-2.289l16.155-63.734L1729.218,3526.314z"/>
					
						<linearGradient id="SVGID_00000134218020557504403280000005434851194315137416_" gradientUnits="userSpaceOnUse" x1="2656.6611" y1="2485.1636" x2="1962.7345" y2="3425.6917" gradientTransform="matrix(-1 0 0 1 4056.9614 0)">
						<stop  offset="0" style="stop-color:#2B3582"/>
						<stop  offset="1" style="stop-color:#150E42"/>
					</linearGradient>
					<path style="fill:url(#SVGID_00000134218020557504403280000005434851194315137416_);" d="M1724.118,2451.123
						c2.932,14.935,15.732,745.284-62.336,1072.579c-1.274,5.34,1.434,10.844,6.516,12.922c11.973,4.892,35.448,11.977,63.58,12.922
						c8.713,0.292,16.523-5.369,18.982-13.733c22.316-75.937,129.248-456.405,143.199-819.854c15.587-406.119,0-13.828,0-13.828
						l-9.142-251.037L1724.118,2451.123z"/>
					
						<linearGradient id="SVGID_00000075159251898399918360000013887662655431071108_" gradientUnits="userSpaceOnUse" x1="2409.4978" y1="3320.1353" x2="1593.986" y2="4207.1841" gradientTransform="matrix(-1 0 0 1 4056.9614 0)">
						<stop  offset="0" style="stop-color:#2B3582"/>
						<stop  offset="1" style="stop-color:#150E42"/>
					</linearGradient>
					<path style="fill:url(#SVGID_00000075159251898399918360000013887662655431071108_);" d="M1978.477,3579.351
						c0,0,13.444,24.137,26.46,88.276c2.349,11.584-5.744,22.67-17.507,23.825c-20.812,2.046-52.851,4.679-78.515,4.502
						c-11.832-0.081-21.064-10.383-19.638-22.127c2.842-23.411,11.699-61.822,39.058-91.759L1978.477,3579.351z"/>
					
						<linearGradient id="SVGID_00000089543108850876988720000004775065026693507207_" gradientUnits="userSpaceOnUse" x1="2066.6765" y1="3550.4954" x2="2129.2202" y2="3550.4954" gradientTransform="matrix(-1 0 0 1 4056.9614 0)">
						<stop  offset="0" style="stop-color:#F9B776"/>
						<stop  offset="1" style="stop-color:#F47960"/>
					</linearGradient>
					<path style="fill:url(#SVGID_00000089543108850876988720000004775065026693507207_);" d="M1990.285,3505.792l-15.855,86.485
						c0,0-15.677,11.662-46.689,3.208l7.567-93.054L1990.285,3505.792z"/>
					
						<linearGradient id="SVGID_00000144324775635174743110000014047831996702933922_" gradientUnits="userSpaceOnUse" x1="2532.9868" y1="2393.9158" x2="1839.0604" y2="3334.4436" gradientTransform="matrix(-1 0 0 1 4056.9614 0)">
						<stop  offset="0" style="stop-color:#2B3582"/>
						<stop  offset="1" style="stop-color:#150E42"/>
					</linearGradient>
					<path style="fill:url(#SVGID_00000144324775635174743110000014047831996702933922_);" d="M2033.117,2473.534
						c63.85,385.339-13.85,952.397-40.055,1063.383c-1.604,6.795-7.088,12.001-13.976,13.143
						c-11.697,1.939-30.955,3.521-49.941-1.993c-6.541-1.899-11.136-7.799-11.404-14.607c-3.516-89.729,2.812-640.581-56.682-858.28
						c-3.014-11.033-9.752-20.654-19.074-27.281l-115.473-82.091l-8.852-132.693L2033.117,2473.534z"/>
					<g>
						
							<linearGradient id="SVGID_00000078736462135771890900000000581642909150336694_" gradientUnits="userSpaceOnUse" x1="1902.5706" y1="2340.3674" x2="3042.3904" y2="1520.0773" gradientTransform="matrix(-1 0 0 1 4056.9614 0)">
							<stop  offset="0" style="stop-color:#CB236D"/>
							<stop  offset="1" style="stop-color:#4C246D"/>
						</linearGradient>
						<path style="fill:url(#SVGID_00000078736462135771890900000000581642909150336694_);" d="M1626.264,1743.393
							c191.346-3.161,402.474,50.241,402.474,50.241c57.037,332.805,9.974,716.672,9.974,716.672
							c-148.135,38.847-315.241-23.751-315.241-23.751c-24.621-139.105-139.496-530.591-139.496-530.591
							c-93.491-11.602-170.507-38.577-233.931-74.238c48.378-56.077,71.185-127.432,81.09-169.613
							C1498.788,1733.138,1567.246,1744.368,1626.264,1743.393z"/>
						
							<linearGradient id="SVGID_00000179639925802907031440000003198901860821863069_" gradientUnits="userSpaceOnUse" x1="2036.4486" y1="1233.212" x2="2164.2563" y2="1598.3776" gradientTransform="matrix(1 0 0 1 -918.3207 0)">
							<stop  offset="0" style="stop-color:#F9B776"/>
							<stop  offset="1" style="stop-color:#F47960"/>
						</linearGradient>
						<path style="fill:url(#SVGID_00000179639925802907031440000003198901860821863069_);" d="M1061.062,1461.55
							c18.797-22.702,42.587-11.963,42.587-11.963c28.158,118.944,175.803,215.385,327.486,262.526
							c-9.906,42.18-32.712,113.536-81.09,169.613C1098.311,1740.187,1061.062,1461.55,1061.062,1461.55z"/>
					</g>
					
						<linearGradient id="SVGID_00000001656686980796472060000018367092677042246331_" gradientUnits="userSpaceOnUse" x1="1752.3727" y1="2131.6641" x2="2892.1946" y2="1311.3724" gradientTransform="matrix(-1 0 0 1 4056.9614 0)">
						<stop  offset="0" style="stop-color:#CB236D"/>
						<stop  offset="1" style="stop-color:#4C246D"/>
					</linearGradient>
					<path style="fill:url(#SVGID_00000001656686980796472060000018367092677042246331_);" d="M1955.346,1978.913l73.392-185.28
						c0,0,178.728,121.438,208.122,275.408c-33.771,2.487-95.222,11.271-155.373,41.643
						C2068.27,2037.981,1955.346,1978.913,1955.346,1978.913z"/>
					
						<linearGradient id="SVGID_00000085955305545597801110000001035697482036606397_" gradientUnits="userSpaceOnUse" x1="2175.6418" y1="1687.912" x2="2360.804" y2="1687.912" gradientTransform="matrix(-1 0 0 1 4056.9614 0)">
						<stop  offset="0" style="stop-color:#F9B776"/>
						<stop  offset="1" style="stop-color:#F47960"/>
					</linearGradient>
					<path style="fill:url(#SVGID_00000085955305545597801110000001035697482036606397_);" d="M1820.082,1588.049l60.884,176.071
						c1.007,2.916-0.191,6.146-2.891,7.64c-16.596,9.176-76.389,35.699-148.445-9.987c-7.506-4.759-12.616-12.52-13.756-21.336
						l-19.716-152.389H1820.082z"/>
					<g>
						
							<linearGradient id="SVGID_00000145041641913015637780000008541438414525287842_" gradientUnits="userSpaceOnUse" x1="-3610.8259" y1="-41.7717" x2="-3680.019" y2="-269.9875" gradientTransform="matrix(-0.746 -0.6659 -0.6659 0.746 -1069.3739 -803.1727)">
							<stop  offset="0" style="stop-color:#F9B776"/>
							<stop  offset="1" style="stop-color:#F47960"/>
						</linearGradient>
						<path style="fill:url(#SVGID_00000145041641913015637780000008541438414525287842_);" d="M1687.609,1425.003
							c0,0-66.856,125.85-58.287,176.687c8.57,50.835,91.428,47.186,163.782,5.898l50.559-135.889L1687.609,1425.003z"/>
						
							<linearGradient id="SVGID_00000087381478625350788850000001163005250748376203_" gradientUnits="userSpaceOnUse" x1="-3673.2524" y1="-439.4048" x2="-3615.3726" y2="-109.2754" gradientTransform="matrix(-0.746 -0.6659 -0.6659 0.746 -1069.3739 -803.1727)">
							<stop  offset="0" style="stop-color:#2B3582"/>
							<stop  offset="1" style="stop-color:#150E42"/>
						</linearGradient>
						<path style="fill:url(#SVGID_00000087381478625350788850000001163005250748376203_);" d="M1789.906,1540.854
							c-2.94-1.303-4.025-4.901-2.264-7.592c5.357-8.182,15.398-24.876,18.601-39.491c0,0,12.018-7.699-30.591-17.896
							c-42.608-10.2-106.149-26.03-119.504-62.297c-13.022-35.36,21.191-124.286,75.776-53.432c2.076,2.696,6.145,2.755,8.218,0.057
							c8.948-11.647,32.474-35.82,65.135-21.165c30.564,13.714,34.006,36.11,33.587,47.401c-0.123,3.319,2.846,5.902,6.11,5.279
							c15.453-2.946,52.537-5.478,69.846,32.563c14.257,31.335,4.99,49.072-3.448,57.748c-2.736,2.811-1.537,7.439,2.213,8.586
							c10.155,3.109,23.27,11.721,21.958,35.515c-1.815,32.895-38.593,29.996-49.064,28.497c-1.717-0.246-3.445,0.343-4.607,1.628
							c-8.978,9.936-49.43,52.124-93.213,57.21c-3.791,0.44-6.729-3.304-5.488-6.912l18.948-55.078
							c0.88-2.558-0.345-5.364-2.817-6.459L1789.906,1540.854z"/>
						
							<linearGradient id="SVGID_00000112617470813965558750000014238519781558152842_" gradientUnits="userSpaceOnUse" x1="-3681.5583" y1="-42.835" x2="-3743.8125" y2="-248.1641" gradientTransform="matrix(-0.746 -0.6659 -0.6659 0.746 -1069.3739 -803.1727)">
							<stop  offset="0" style="stop-color:#F9B776"/>
							<stop  offset="1" style="stop-color:#F47960"/>
						</linearGradient>
						<path style="fill:url(#SVGID_00000112617470813965558750000014238519781558152842_);" d="M1782.29,1548.672
							c0,0,47.601-32.661,51.079-5.157c3.478,27.503-42.866,39.839-65.82,29.585L1782.29,1548.672z"/>
					</g>
					
						<linearGradient id="SVGID_00000007393099668639733590000008023732843259378867_" gradientUnits="userSpaceOnUse" x1="-4078.0813" y1="3049.3601" x2="-4228.6147" y2="1968.2522" gradientTransform="matrix(-1 0 0 1 -2041.7184 0)">
						<stop  offset="0" style="stop-color:#F9B776"/>
						<stop  offset="1" style="stop-color:#F47960"/>
					</linearGradient>
					<path style="fill:url(#SVGID_00000007393099668639733590000008023732843259378867_);" d="M2081.488,2110.684
						c0,0,62.469,281.82,5.883,440.258c69.372,32.165,56.557,26.102,56.557,26.102s137.24-400.984,92.933-508.002
						C2149.506,2059.774,2106.175,2083.245,2081.488,2110.684z"/>
					
						<linearGradient id="SVGID_00000039829337668688963560000006547858104984504223_" gradientUnits="userSpaceOnUse" x1="-4096.0068" y1="2945.3623" x2="-4216.1328" y2="2082.636" gradientTransform="matrix(-1 0 0 1 -2041.7184 0)">
						<stop  offset="0" style="stop-color:#F9B776"/>
						<stop  offset="1" style="stop-color:#F47960"/>
					</linearGradient>
					<path style="fill:url(#SVGID_00000039829337668688963560000006547858104984504223_);" d="M2087.37,2550.942
						c0,0-35.748,46.268-32.888,64.696c2.859,18.429,3.542,25.937,3.542,25.937s17.963-12.285,16.831-27.984
						c-2.497,49.825-19.173,106.475-4.01,103.746c15.163-2.73,93.654-75.08,75.908-152.206
						C2106.484,2537.146,2095.196,2540.189,2087.37,2550.942z"/>
				</g>
			</g>
		</g>
	</g>
</g>
</svg>
