<svg width="153" height="161" viewBox="0 0 153 161" fill="none" xmlns="http://www.w3.org/2000/svg">
<path fill-rule="evenodd" clip-rule="evenodd" d="M137.554 98.2611C136.668 97.3901 135.261 97.4037 134.383 98.2775C123.858 108.406 112.778 113.559 101.481 113.69C90.4805 113.816 79.368 109.042 68.466 99.5831C66.0427 97.5184 62.2971 93.2193 59.0024 88.1433C61.7681 84.1632 63.6114 79.45 64.5218 74.9094C65.8647 68.2032 64.8885 62.0374 62.6774 58.9839C61.4522 57.293 59.8721 56.257 58.0246 55.8253C55.6597 55.2761 52.4461 55.7669 48.7575 58.8976C43.6684 63.2374 42.4306 69.4331 43.9497 76.2513C44.752 79.8356 46.3725 83.5969 48.3911 87.2114C46.0544 89.0779 43.1475 90.1579 39.6101 89.7698C32.1221 88.9989 26.5085 82.8473 22.5159 75.6092C19.0534 69.3475 14.8822 60.0969 15.9863 52.7458C16.36 50.2477 17.4525 48.1006 15.3924 46.0593C12.2383 42.9009 9.3461 46.1712 8.8279 49.6023C7.71858 56.9731 10.3429 65.8514 12.9332 72.6504C17.6871 85.1624 26.6098 96.4151 38.6599 97.9648C44.309 98.6653 49.1028 97.1615 52.986 94.3681C56.6708 99.4853 60.645 103.719 63.2528 105.844C76.1561 116.146 89.1429 120.935 101.709 120.205C114.263 119.481 126.439 113.312 137.569 101.434C138.44 100.548 138.439 99.1321 137.554 98.2611ZM53.8536 78.2083C53.0703 76.1289 52.541 74.0858 52.386 72.1431C52.193 69.6727 52.6696 67.3817 54.5941 65.7533C54.9202 65.4816 55.3174 65.1021 55.6435 64.8304C55.8886 65.6883 56.3126 67.3756 56.3186 68.7714C56.3177 71.887 55.6094 75.5946 54.1881 79.0478C54.0545 78.7585 53.9478 78.487 53.8536 78.2083Z" fill="#4D2C5E"/>
<path fill-rule="evenodd" clip-rule="evenodd" d="M55.9393 64.5908C56.1592 64.713 56.3701 64.7906 56.3533 64.6175C56.3274 64.3998 56.1812 64.4344 55.9393 64.5908Z" fill="#4D2C5E"/>
<path fill-rule="evenodd" clip-rule="evenodd" d="M131.388 103.199C130.363 105.49 129.372 107.929 128.665 110.253C127.577 113.88 127.11 117.198 128.004 119.613C128.283 120.818 129.497 121.566 130.694 121.274C131.898 120.995 132.645 119.78 132.354 118.582C132.293 117.985 132.501 117.364 132.698 116.667C133.149 115.024 134.157 113.309 135.255 111.459C136.657 109.099 138.344 106.742 139.784 104.561C141.093 102.588 142.185 100.758 142.88 99.3072C143.977 97.0242 144.037 95.1074 143.789 93.9847C143.72 93.6915 141.288 89.3328 137.129 91.0699C135.642 91.6959 131.956 93.4755 131.774 93.564C129.56 94.7767 125.447 96.9699 121.53 98.1171C120.292 98.4825 119.097 98.8065 118.008 98.8527C117.951 98.7527 117.893 98.6528 117.823 98.5601C116.806 97.1153 114.829 96.7754 113.377 97.7806C112.573 98.2621 111.523 99.618 111.243 100.43C110.704 102.007 111.303 103.277 112.774 104.326C114.778 105.75 117.677 106.157 120.936 105.89C124.361 105.593 128.242 104.383 131.388 103.199ZM135.007 95.8773C135.25 95.4037 135.333 95.0562 135.005 94.979C134.638 94.8912 134.882 95.5164 135.007 95.8773Z" fill="#4D2C5E"/>
</svg>
