<svg width="51" height="52" viewBox="0 0 51 52" fill="none" xmlns="http://www.w3.org/2000/svg">
<rect opacity="0.15" x="1.37723" y="1.70401" width="48.4573" height="48.4573" rx="24.2287" stroke="#0A142F" stroke-width="1.93829"/>
<path fill-rule="evenodd" clip-rule="evenodd" d="M21.0831 34.3319H17.2065V22.7021H21.0831V34.3319Z" fill="#0A142F"/>
<path fill-rule="evenodd" clip-rule="evenodd" d="M19.1333 20.1178H19.1113C17.9544 20.1178 17.2065 19.2559 17.2065 18.1788C17.2065 17.0789 17.9772 16.2412 19.156 16.2412C20.3348 16.2412 21.0608 17.0789 21.0831 18.1788C21.0831 19.2559 20.3348 20.1178 19.1333 20.1178Z" fill="#0A142F"/>
<path fill-rule="evenodd" clip-rule="evenodd" d="M35.2972 34.3316H31.4879V28.2526C31.4879 26.7257 30.9366 25.6837 29.5576 25.6837C28.5052 25.6837 27.8783 26.3862 27.603 27.0646C27.5022 27.3077 27.4775 27.6465 27.4775 27.9861V34.3319H23.6676C23.6676 34.3319 23.7178 24.0355 23.6676 22.9693H27.4775V24.5787C27.9831 23.805 28.8887 22.7021 30.9112 22.7021C33.418 22.7021 35.2974 24.3265 35.2974 27.8166L35.2972 34.3316Z" fill="#0A142F"/>
</svg>
