<svg width="25" height="33" viewBox="0 0 25 33" fill="none" xmlns="http://www.w3.org/2000/svg">
<path d="M12.3091 32.0742C10.1031 30.1925 8.05835 28.1296 6.19619 25.9071C3.40171 22.5695 0.0832535 17.5988 0.0832535 12.8621C0.0820416 10.4431 0.798482 8.07805 2.1419 6.06634C3.48533 4.05462 5.39534 2.48666 7.63023 1.56088C9.86512 0.635099 12.3244 0.39312 14.6969 0.865565C17.0693 1.33801 19.2483 2.50364 20.9581 4.21494C22.0964 5.34821 22.9986 6.69599 23.6126 8.18027C24.2266 9.66456 24.5401 11.2559 24.535 12.8621C24.535 17.5988 21.2166 22.5695 18.4221 25.9071C16.5599 28.1296 14.5151 30.1925 12.3091 32.0742ZM12.3091 7.62247C10.9195 7.62247 9.58675 8.17451 8.60413 9.15713C7.6215 10.1398 7.06947 11.4725 7.06947 12.8621C7.06947 14.2518 7.6215 15.5845 8.60413 16.5671C9.58675 17.5498 10.9195 18.1018 12.3091 18.1018C13.6988 18.1018 15.0315 17.5498 16.0141 16.5671C16.9968 15.5845 17.5488 14.2518 17.5488 12.8621C17.5488 11.4725 16.9968 10.1398 16.0141 9.15713C15.0315 8.17451 13.6988 7.62247 12.3091 7.62247Z" fill="#046A38"/>
</svg>
