<svg width="811" height="742" viewBox="0 0 811 742" fill="none" xmlns="http://www.w3.org/2000/svg">
<path d="M406.672 103.681C438.529 136.159 458.01 165.828 469.196 184.951C518.318 268.933 504.768 339.679 553.759 517.091C561.776 546.15 565.24 577.768 573.263 606.811C649.547 582.97 730.384 556.532 806.669 532.692L692.242 463.746C693.524 459.957 700.732 437.507 688.339 414.333C674.453 388.368 647.508 383.08 644.129 382.476C646.926 376.864 655.525 357.884 649.331 335.667C642.493 311.115 620.391 292.408 592.767 287.554C594.613 283.201 606.169 254.62 591.468 223.839C575.833 191.144 543.423 182.882 539.206 181.897C540.802 180.033 569.206 145.697 555.389 103.681C543.993 68.9743 512.597 55.8975 508.096 54.1083C502.147 52.7123 466.922 45.0429 435.731 67.2137C418.381 79.5497 410.159 95.5154 406.672 103.681Z" fill="#FC692D"/>
<path d="M572.083 608.97L571.616 607.261C567.587 592.674 564.659 577.21 561.827 562.247C558.995 547.284 556.129 531.974 552.106 517.518C531.337 442.305 521.707 385.713 513.97 340.243C503.468 278.528 495.884 233.942 467.719 185.794C450.927 157.093 429.982 129.863 405.452 104.883L404.648 104.068L405.099 103.014C409.611 92.4555 418.415 77.43 434.728 65.8233C464.842 44.4217 498.785 50.1767 508.477 52.4501L508.716 52.5242C514.79 54.9402 545.679 68.7178 557.001 103.151C569.451 141.008 548.454 172.592 542.186 180.916C551.975 183.725 579.052 193.891 593.017 223.133C606.231 250.796 598.892 276.551 595.143 286.294C622.407 291.816 644.208 310.841 650.983 335.24C656.384 354.67 650.983 371.764 646.618 381.274C654.812 383.148 677.387 390.277 689.854 413.564C701.17 434.732 696.629 455.427 694.287 463.017L810.811 533.193L807.181 534.332C769.039 546.247 729.119 559.033 690.475 571.369C651.832 583.705 611.918 596.503 573.775 608.406L572.083 608.97ZM408.7 103.304C433.076 128.29 453.924 155.464 470.671 184.09C499.161 232.774 506.779 277.622 517.343 339.69C525.069 385.086 534.682 441.587 555.405 516.635C559.434 531.221 562.357 546.68 565.189 561.648C567.895 575.945 570.687 590.708 574.442 604.668C612.049 592.902 651.364 580.321 689.427 568.144C726.834 556.178 765.478 543.808 802.531 532.213L690.179 464.544L690.623 463.245C692.618 457.364 698.242 436.521 686.829 415.188C673.723 390.687 648.709 385.074 643.826 384.203L641.581 383.804L642.601 381.758C646.857 373.211 653.176 355.946 647.684 336.174C641.08 312.425 619.41 294.01 592.47 289.286L590.351 288.916L591.194 286.938C594.334 279.531 603.536 253.127 589.923 224.625C575.109 193.549 544.744 184.985 538.818 183.6L536.083 182.956L537.912 180.825C539.12 179.412 567.405 145.743 553.764 104.256C542.989 71.4813 513.679 58.2222 507.582 55.7835C498.089 53.5726 465.543 48.1596 436.722 68.6494C421.577 79.373 413.161 93.2248 408.7 103.304Z" fill="black"/>
<path d="M469.349 106.279L320.062 21.9091L321.704 20.3136C337.441 5.10577 358.239 -2.13064 378.712 0.547403C387.888 1.72705 396.676 4.97444 404.414 10.0448C412.152 15.1151 418.638 21.876 423.384 29.8178L469.349 106.279ZM325.76 21.1968L459.737 96.917L420.455 31.5842C415.976 24.0873 409.854 17.7046 402.55 12.9167C395.246 8.12884 386.951 5.06071 378.29 3.94339C359.532 1.49327 340.518 7.76672 325.76 21.1968Z" fill="black"/>
<path d="M684.099 112.359L457.725 99.2876L563.536 51.6982C575.148 46.4771 587.766 43.8712 600.496 44.0649C613.227 44.2586 625.759 47.2472 637.207 52.8193C648.655 58.3914 658.739 66.4108 666.746 76.3104C674.752 86.21 680.486 97.7479 683.541 110.108L684.099 112.359ZM471.856 96.6779L679.632 108.678C676.421 97.0787 670.74 86.3111 662.978 77.1131C655.216 67.9151 645.557 60.5043 634.663 55.3888C623.769 50.2732 611.897 47.5739 599.862 47.4759C587.827 47.3778 575.913 49.8833 564.937 54.8207L471.856 96.6779Z" fill="black"/>
<path d="M607.81 174.905C607.521 174.906 607.237 174.833 606.984 174.694L465.105 96.6322C464.707 96.4131 464.413 96.045 464.287 95.609C464.161 95.1731 464.213 94.7048 464.432 94.3074C464.652 93.91 465.02 93.6158 465.456 93.4897C465.892 93.3637 466.36 93.4159 466.757 93.635L608.636 171.697C608.969 171.88 609.232 172.168 609.383 172.517C609.534 172.865 609.564 173.254 609.469 173.622C609.375 173.99 609.16 174.316 608.86 174.548C608.559 174.78 608.19 174.906 607.81 174.905Z" fill="black"/>
<path d="M490.716 114.222C495.514 120.302 505.531 135.874 510.374 153.253C515.218 170.632 516.545 184.159 516.762 187.441C518.243 210.124 534.38 308.238 582.169 565.216C558.681 597.501 527.287 623.205 491.001 639.859C475.782 622.924 460.061 604.144 444.278 583.449C425.737 559.136 409.697 535.586 395.845 513.364L192.428 521.341C171.101 520.384 119.973 514.96 83.5971 476.327C62.8908 454.339 55.7797 430.949 43.4721 390.499C31.9337 352.562 29.364 321.696 23.8199 267.993C21.9338 249.759 20.6859 229.247 20.5549 205.361C20.5549 204.956 20.5549 204.552 20.5549 204.147C20.4303 178.423 30.1399 153.624 47.6972 134.824C65.2544 116.023 89.3322 104.642 115.004 103.008L237.311 95.1338H237.419C351.316 89.1281 363.173 85.7151 396.7 87.4472C440.654 89.7093 473.041 91.8233 490.716 114.222Z" fill="white"/>
<path d="M495.559 117.356C469.662 126.239 432.089 135.39 382.17 133.88C314.934 131.846 264.108 109.424 237.305 95.1338C285.025 93.8461 323.173 91.413 349.116 89.4358C389.264 86.376 412.073 85.1909 443.702 91.715C479.605 99.1224 483.622 109.555 495.559 117.356Z" fill="#FC692D"/>
<path d="M237.442 95.1337C237.442 95.1337 109.767 170.956 30.3037 160.392C38.0294 144.149 49.9547 130.265 64.846 120.176C79.7373 110.087 97.0537 104.16 115.004 103.008L237.311 95.1337H237.442Z" fill="#FC692D"/>
<path d="M486.101 644.907L485.132 643.619C469.292 622.537 454.289 600.491 439.782 579.158C425.497 558.161 410.723 536.424 395.19 515.723C364.598 518.059 265.094 525.056 193.522 523.335C183.704 523.096 163.289 522.606 139.044 513.814C108.885 502.88 89.5058 486.23 78.56 474.191C58.4861 452.117 46.6514 432.276 41.5232 390.744C39.2896 372.704 36.2071 356.391 32.9364 339.12C26.0476 302.653 18.9194 264.973 18.5889 205.344C18.5889 204.945 18.5889 204.535 18.5889 204.119C18.4704 188.694 21.8586 173.444 28.4977 159.521C36.3882 142.964 48.5533 128.812 63.7378 118.526C78.9224 108.239 96.5765 102.19 114.879 101.003C151.938 98.6208 189 96.2334 226.063 93.8402L237.265 93.1223H237.317C282.296 90.7462 311.094 88.7975 332.125 87.3787C364.347 85.1964 376.404 84.3759 396.803 85.43C439.76 87.6522 473.685 89.4186 492.283 112.968C497.411 119.475 507.406 135.162 512.295 152.7C514.163 159.407 516.973 172.455 518.739 187.161C518.921 188.671 519.047 189.851 519.138 190.666L519.195 191.196C522.044 217.11 543.878 342.824 584.152 564.845L584.305 565.683L583.804 566.372C570.783 584.257 555.307 600.218 537.833 613.785C520.665 627.095 500.033 638.497 487.582 644.218L486.101 644.907ZM397.065 511.575L397.726 512.452C413.566 533.535 428.569 555.58 443.076 576.913C457.264 597.774 471.924 619.323 487.355 639.933C499.719 634.109 519.115 623.249 535.36 610.645C552.318 597.49 567.361 582.037 580.055 564.731C539.878 343.149 518.067 217.64 515.229 191.646L515.172 191.11C515.087 190.307 514.961 189.139 514.779 187.657C513.069 173.173 510.283 160.358 508.454 153.788C503.736 136.86 494.101 121.726 489.149 115.458C471.674 93.3103 438.54 91.6009 396.597 89.4357C376.432 88.393 364.444 89.2021 332.393 91.373C311.35 92.7975 282.536 94.7462 237.522 97.1222H237.442L226.325 97.8402L115.13 104.997C97.5391 106.138 80.5715 111.951 65.9763 121.836C51.3811 131.72 39.6867 145.319 32.0988 161.23C25.7116 174.608 22.4443 189.261 22.5433 204.084C22.5433 204.489 22.5433 204.888 22.5433 205.281C22.8738 264.54 29.9507 302.078 36.8224 338.357C40.0988 355.69 43.1984 372.066 45.4434 390.208C50.4576 430.664 61.9676 449.997 81.5059 471.467C92.1497 483.17 111.004 499.387 140.394 510.019C164.029 518.566 184.006 519.073 193.608 519.301C265.875 521.011 366.769 513.86 395.971 511.615L397.065 511.575Z" fill="black"/>
<path d="M297.841 247.269L278.548 227.475C274.952 222.985 275.454 216.255 279.687 212.534L286.895 206.164C291.123 202.432 297.436 203.184 300.878 207.834L307.904 217.315C310.998 221.497 316.49 222.591 320.713 219.873L324.844 217.218C328.638 214.779 330.399 209.891 329.128 205.309C328.297 202.301 327.463 199.292 326.627 196.284C325.123 190.848 327.886 185.156 332.895 183.406L341.111 180.523C346.023 178.814 351.368 181.475 353.362 186.637C355.014 190.96 356.669 195.285 358.325 199.611C359.004 201.517 360.246 203.172 361.886 204.356C363.526 205.54 365.487 206.199 367.51 206.244H373.122C377.778 206.244 381.755 202.728 382.644 197.845C383.453 193.367 384.266 188.888 385.082 184.409C386.102 178.791 391.157 175.133 396.439 176.199L404.028 177.726C409.413 178.808 412.985 184.381 412.005 190.119L409.726 202.979C408.871 207.851 411.327 212.74 415.618 214.7L415.772 214.774C420.239 216.814 425.396 215.087 427.925 210.694L435.732 197.127C438.689 191.999 445.116 190.637 449.76 194.176L459.919 201.925C461.988 203.564 463.402 205.889 463.906 208.479C464.41 211.07 463.97 213.755 462.666 216.05C457.059 225.788 453.395 232.455 444.279 239.862C397.481 245.115 344.638 242.016 297.841 247.269Z" fill="black"/>
<path d="M35.165 272.91L2.68661 252.842C0.822093 250.741 -0.137673 247.988 0.0159706 245.183C0.169614 242.378 1.42425 239.747 3.50712 237.862L10.9145 231.252C11.946 230.327 13.1553 229.622 14.4684 229.18C15.7814 228.738 17.1709 228.568 18.5518 228.68C19.9328 228.793 21.2764 229.185 22.5006 229.834C23.7248 230.483 24.804 231.375 25.6722 232.455L33.2676 241.702C34.856 243.665 37.1158 244.97 39.6101 245.364C42.1044 245.757 44.656 245.212 46.7717 243.833L51.0452 241.042C52.9667 239.766 54.419 237.899 55.1811 235.722C55.9433 233.546 55.9736 231.18 55.2674 228.985L52.4184 220.039C51.5817 217.467 51.7657 214.673 52.9324 212.233C54.0991 209.794 56.1592 207.896 58.6862 206.934L67.2331 203.777C69.7178 202.879 72.4521 202.97 74.8718 204.031C77.2914 205.091 79.2115 207.04 80.2359 209.475C82.0972 213.779 83.9433 218.058 85.7743 222.312C86.5863 224.233 87.9587 225.864 89.7122 226.992C91.4658 228.121 93.5189 228.694 95.6033 228.637L101.495 228.443C103.885 228.349 106.168 227.429 107.954 225.839C109.74 224.249 110.919 222.088 111.29 219.725C112.049 215.224 112.798 210.719 113.535 206.21C113.954 203.516 115.425 201.099 117.625 199.488C119.824 197.877 122.572 197.205 125.267 197.617L133.244 198.888C135.995 199.357 138.449 200.896 140.068 203.17C141.687 205.443 142.339 208.266 141.882 211.019L139.814 223.953C139.425 226.323 139.853 228.754 141.027 230.848C142.201 232.942 144.051 234.576 146.275 235.48L146.44 235.549C148.736 236.462 151.285 236.511 153.614 235.687C155.943 234.862 157.893 233.219 159.101 231.064L166.982 217.235C167.674 216 168.616 214.923 169.748 214.072C170.879 213.221 172.176 212.615 173.555 212.294C174.934 211.972 176.365 211.941 177.756 212.203C179.148 212.466 180.469 213.015 181.637 213.817L192.463 221.224C194.656 222.738 196.202 225.019 196.797 227.617C197.391 230.214 196.992 232.94 195.677 235.258C190.064 245.195 185.591 247.269 178.184 256.956C129.181 263.793 84.1675 266.073 35.165 272.91Z" fill="black"/>
<path d="M150.177 585.021C150.177 585.021 120.907 649.448 140.126 679.534C159.345 709.619 179.049 715.379 179.049 715.379C184.109 707.271 196.49 684.525 190.821 652.799C184.291 616.258 158.115 591.944 150.177 585.021Z" fill="black"/>
<path d="M26.8623 268.306C31.0788 263.138 55.808 233.862 98.8504 230.535C141.893 227.207 170.901 252.398 175.853 256.859C171.824 261.776 143.602 295.035 96.725 295.394C58.5259 295.668 32.999 273.856 26.8623 268.306Z" fill="white"/>
<path d="M96.007 297.104C60.0244 297.104 34.8963 277.879 25.7169 269.571C25.3923 269.277 25.193 268.869 25.1601 268.433C25.1272 267.996 25.2633 267.563 25.5403 267.224C32.2297 259.024 57.2893 232.033 98.7192 228.831C140.149 225.628 169.117 248.5 176.998 255.611C177.324 255.905 177.524 256.314 177.557 256.752C177.59 257.191 177.453 257.625 177.174 257.964C170.272 266.17 162.235 273.349 153.306 279.286C135.83 290.978 116.799 296.978 96.7363 297.126L96.007 297.104ZM29.2383 268.13C38.9989 276.642 62.7081 293.685 96.007 293.685H96.7021C138.992 293.377 166.217 265.417 173.459 257.036C164.343 249.201 137.169 229.292 98.9699 232.238C60.7708 235.184 37.016 259.007 29.2383 268.13Z" fill="black"/>
<path d="M298.412 247.44C302.623 242.278 327.306 213.002 370.286 209.68C413.266 206.358 442.229 231.554 447.174 236.01C443.152 240.927 414.975 274.186 368.172 274.534C330.013 274.807 304.549 252.996 298.412 247.44Z" fill="white"/>
<path d="M367.474 276.249C331.543 276.249 306.438 257.019 297.276 248.705C296.951 248.411 296.752 248.004 296.719 247.567C296.686 247.13 296.822 246.697 297.099 246.358C303.777 238.164 328.791 211.173 370.158 207.976C411.525 204.78 440.46 227.651 448.323 234.757C448.65 235.05 448.851 235.459 448.885 235.897C448.919 236.335 448.783 236.769 448.505 237.11C441.614 245.312 433.591 252.491 424.676 258.432C407.223 270.118 388.209 276.095 368.192 276.261L367.474 276.249ZM300.808 247.264C310.552 255.776 334.232 272.83 367.474 272.83H368.164C410.391 272.534 437.594 244.574 444.801 236.193C435.685 228.358 408.562 208.432 370.426 211.389C332.29 214.347 308.563 238.153 300.797 247.269L300.808 247.264Z" fill="black"/>
<path d="M80.7604 285.81C86.8591 285.81 91.8031 280.866 91.8031 274.768C91.8031 268.669 86.8591 263.725 80.7604 263.725C74.6617 263.725 69.7178 268.669 69.7178 274.768C69.7178 280.866 74.6617 285.81 80.7604 285.81Z" fill="white"/>
<path d="M80.7481 287.52C78.2679 287.518 75.842 286.793 73.7676 285.434C71.6931 284.074 70.06 282.139 69.0684 279.866C68.0768 277.593 67.7697 275.079 68.1846 272.634C68.5996 270.189 69.7187 267.918 71.4047 266.099C73.0908 264.28 75.2707 262.992 77.6776 262.393C80.0844 261.794 82.6136 261.91 84.9555 262.727C87.2975 263.543 89.3504 265.025 90.863 266.991C92.3756 268.956 93.2822 271.32 93.4717 273.793C93.7232 277.162 92.6289 280.493 90.4287 283.056C88.2285 285.62 85.1018 287.206 81.7339 287.468C81.4034 287.508 81.0786 287.52 80.7481 287.52ZM80.7481 265.44C80.5088 265.44 80.2695 265.44 80.0245 265.468C77.5575 265.658 75.2668 266.82 73.6565 268.699C72.0462 270.577 71.248 273.018 71.4377 275.486C71.6273 277.953 72.7892 280.243 74.6678 281.854C76.5464 283.464 78.9877 284.262 81.4547 284.072C82.6786 283.981 83.8724 283.649 84.9677 283.095C86.0631 282.542 87.0386 281.778 87.8383 280.847C88.638 279.916 89.2463 278.836 89.6283 277.67C90.0102 276.504 90.1584 275.273 90.0643 274.05C89.8794 271.706 88.8177 269.518 87.0909 267.922C85.3642 266.326 83.0993 265.44 80.7481 265.44Z" fill="black"/>
<path d="M355.453 264.705C361.551 264.705 366.495 259.761 366.495 253.662C366.495 247.564 361.551 242.62 355.453 242.62C349.354 242.62 344.41 247.564 344.41 253.662C344.41 259.761 349.354 264.705 355.453 264.705Z" fill="white"/>
<path d="M355.445 266.414C352.965 266.414 350.538 265.69 348.463 264.331C346.388 262.972 344.754 261.038 343.762 258.765C342.769 256.491 342.461 253.978 342.875 251.532C343.29 249.087 344.408 246.815 346.094 244.995C347.78 243.176 349.96 241.888 352.367 241.288C354.774 240.689 357.303 240.804 359.646 241.621C361.988 242.437 364.041 243.919 365.554 245.885C367.067 247.85 367.974 250.215 368.163 252.688C368.416 256.057 367.322 259.389 365.122 261.953C362.921 264.516 359.794 266.102 356.425 266.363C356.101 266.403 355.77 266.414 355.445 266.414ZM355.445 244.335C355.206 244.335 354.967 244.335 354.727 244.335C352.289 244.429 349.986 245.475 348.311 247.25C346.637 249.024 345.725 251.384 345.772 253.823C345.819 256.263 346.821 258.586 348.563 260.295C350.304 262.003 352.647 262.96 355.086 262.96C357.526 262.96 359.868 262.003 361.61 260.295C363.352 258.586 364.354 256.263 364.401 253.823C364.448 251.384 363.536 249.024 361.861 247.25C360.187 245.475 357.883 244.429 355.445 244.335Z" fill="black"/>
<path d="M578.181 538.435L616.357 684.303L569.411 740.713H342.69V740.519C341.992 735.223 343.242 729.854 346.208 725.411C349.173 720.968 353.651 717.753 358.809 716.365L374.194 712.223L366.536 696.901C356.439 676.713 371.094 652.964 393.686 652.964H464.911L449.977 593.135L578.181 538.435Z" fill="#008055"/>
<path d="M315.92 561.284C310.404 560.704 304.841 560.739 299.333 561.387C295.052 561.987 290.838 563 286.752 564.412C290.357 579.375 293.966 594.334 297.578 609.289C301.27 628.594 304.966 647.901 308.666 667.209L328.757 664.719C340.666 663.118 351.589 657.585 359.344 648.805C367.22 639.87 371.873 628.553 372.558 616.662C372.757 613.346 373.07 608.269 371.486 602.212C364.746 576.389 331.572 563.13 315.92 561.284Z" fill="white"/>
<path d="M307.061 669.42L295.625 609.711L284.389 563.119L286.098 562.549C290.307 561.096 294.646 560.055 299.055 559.438C304.731 558.763 310.465 558.727 316.149 559.33C331.078 561.09 366.223 574.213 373.414 601.734C375.06 608.041 374.753 613.261 374.553 616.714V616.799C373.819 629.13 368.993 640.865 360.838 650.144C352.901 659.141 341.602 665.027 329.026 666.719L307.061 669.42ZM289.124 565.717L299.534 608.896L310.274 664.981L328.508 662.702C340.115 661.141 350.536 655.722 357.847 647.443C365.407 638.83 369.882 627.943 370.565 616.503V616.417C370.753 613.215 371.038 608.378 369.55 602.68C362.878 577.13 329.762 564.885 315.676 563.227C310.327 562.672 304.933 562.704 299.591 563.324C296.041 563.837 292.54 564.644 289.124 565.734V565.717Z" fill="black"/>
<path d="M345.315 705.1C344.535 705.104 343.764 704.938 343.055 704.615C342.345 704.292 341.714 703.819 341.205 703.229C340.696 702.639 340.32 701.945 340.104 701.196C339.888 700.447 339.836 699.66 339.953 698.89C341.704 684.255 341.855 669.472 340.403 654.805C338.232 632.708 331.218 601.939 310.096 580.822C289.765 560.492 262.951 557.802 239.293 555.432L237.167 555.216C225.955 554.093 214.663 554.013 203.436 554.976C177.419 557.221 156.895 581.221 155.692 610.816V611.295L144.866 610.879V610.36C146.291 575.358 171.077 546.914 202.501 544.201C214.4 543.178 226.367 543.264 238.25 544.458L240.37 544.669C265.828 547.221 294.688 550.116 317.748 573.158C336.306 591.722 347.873 619.677 351.195 654.013C353.679 679.653 350.779 699.636 350.625 700.479C350.436 701.756 349.798 702.924 348.824 703.771C347.85 704.618 346.606 705.09 345.315 705.1Z" fill="black"/>
<path d="M537.189 698.924C529.898 711.38 524.855 725.022 522.289 739.226L643.131 739.624C641.629 733.144 638.49 727.156 634.015 722.234C625.308 712.747 614.482 710.633 611.023 710.103C621.365 697.568 621.918 679.967 612.927 667.978C612.693 667.671 612.459 667.374 612.22 667.078C602.021 654.48 583.497 652.463 570.46 662.098C556.996 672 545.678 684.527 537.189 698.924Z" fill="white"/>
<path d="M645.651 741.624L519.902 741.208L520.324 738.866C522.928 724.432 528.055 710.57 535.469 697.915C544.073 683.278 555.567 670.546 569.252 660.497C583.343 650.081 602.87 652.417 613.748 665.824C614.002 666.14 614.253 666.459 614.5 666.782C623.48 678.747 623.343 695.921 614.5 708.758C621.943 710.43 628.763 714.172 634.171 719.553C639.578 724.933 643.355 731.734 645.064 739.168L645.651 741.624ZM524.7 737.237L640.523 737.619C638.938 732.405 636.213 727.609 632.545 723.579C626.776 717.394 619.085 713.34 610.722 712.075L607.252 711.545L609.486 708.833C619.07 697.203 619.845 680.525 611.332 669.175C611.115 668.89 610.893 668.605 610.671 668.331C601.161 656.594 584.022 654.559 571.646 663.705C558.395 673.434 547.265 685.761 538.934 699.932C532.148 711.489 527.337 724.097 524.7 737.237Z" fill="black"/>
<path d="M191.032 610.383C192.425 598.823 178.104 587.59 159.046 585.294C139.988 582.998 123.409 590.508 122.016 602.067C120.623 613.627 134.944 624.86 154.002 627.156C173.06 629.452 189.639 621.943 191.032 610.383Z" fill="#F8BE5A"/>
<path d="M160.845 629.295C158.491 629.292 156.139 629.15 153.802 628.867C144.281 627.728 135.568 624.377 129.301 619.449C122.777 614.321 119.614 608.087 120.338 601.876C121.061 595.665 125.66 590.366 133.221 586.942C140.492 583.648 149.745 582.463 159.272 583.614C168.799 584.765 177.505 588.104 183.773 593.033C190.297 598.161 193.46 604.395 192.736 610.605C192.012 616.816 187.414 622.115 179.853 625.54C174.389 628.013 167.813 629.295 160.845 629.295ZM152.201 586.606C145.722 586.606 139.665 587.779 134.617 590.059C128.19 592.97 124.321 597.312 123.722 602.286C123.124 607.261 125.848 612.4 131.403 616.753C137.198 621.312 145.301 624.4 154.195 625.477C163.09 626.554 171.711 625.477 178.429 622.423C184.856 619.511 188.725 615.169 189.323 610.195C189.927 605.221 187.198 600.081 181.642 595.728C175.847 591.17 167.745 588.081 158.85 587.004C156.644 586.74 154.423 586.607 152.201 586.606Z" fill="black"/>
<path d="M157.67 583.449C157.67 583.449 71.0607 576.612 43.7105 604.532C16.3603 632.452 17.4999 652.964 17.4999 652.964C28.9471 655.124 60.3429 659.483 94.9922 643.847C134.906 625.842 152.781 593.204 157.67 583.449Z" fill="#80BFFF"/>
<path d="M41.6886 656.89C33.4698 656.898 25.2678 656.147 17.1874 654.645L15.8712 654.394L15.7971 653.061C15.7515 652.189 14.9367 631.471 42.4977 603.335C54.1386 591.449 77.1299 584.207 110.833 581.814C126.475 580.757 142.169 580.734 157.813 581.745L160.343 581.945L159.203 584.224C151.329 599.933 132.611 628.765 95.6996 645.414C78.7159 653.034 60.3032 656.946 41.6886 656.89ZM19.25 651.545C34.5548 654.235 63.4263 656.212 94.2922 642.292C128.48 626.856 146.668 600.697 154.958 584.987C140.429 584.15 68.7995 581.364 44.9308 605.728C22.4238 628.708 19.5919 646.645 19.25 651.545Z" fill="black"/>
<path d="M157.671 583.722C157.671 583.722 181.226 667.346 216.884 683.346C252.542 699.345 271.396 691.175 271.396 691.175C269.465 679.688 262.684 648.725 236.029 621.625C205.294 590.406 168.497 584.936 157.671 583.722Z" fill="#80BFFF"/>
<path d="M257.203 694.998C247.824 694.998 234.08 692.941 216.177 684.901C200.992 678.064 186.246 659.027 172.337 628.235C165.933 613.926 160.48 599.211 156.013 584.184L155.323 581.74L157.847 582.024C175.312 583.973 208.844 591.563 237.237 620.429C262.399 646.007 270.49 675.557 273.072 690.89L273.294 692.212L272.063 692.742C271.63 692.918 266.639 694.998 257.203 694.998ZM160.03 585.728C164.275 599.648 186.446 667.819 217.579 681.779C246.929 694.947 264.741 691.397 269.431 690.018C266.661 674.725 258.525 646.958 234.781 622.816C208.468 596.07 177.614 588.087 160.03 585.728Z" fill="black"/>
<path d="M385.675 273.144L373.093 322.813C372.134 326.606 372.282 330.594 373.522 334.305C374.761 338.015 377.039 341.293 380.085 343.747L381.042 344.522C385.199 347.871 390.5 349.46 395.813 348.951C401.127 348.442 406.03 345.875 409.475 341.799C412.184 338.594 413.842 334.633 414.223 330.454C414.605 326.274 413.691 322.079 411.606 318.437L385.675 273.144Z" fill="#80BFFF"/>
<path d="M393.817 350.704C388.782 350.719 383.894 349.005 379.971 345.85L379.008 345.075C375.714 342.409 373.252 338.858 371.91 334.839C370.568 330.82 370.404 326.501 371.435 322.391L384.016 272.728C384.1 272.398 384.28 272.1 384.533 271.873C384.787 271.646 385.103 271.499 385.44 271.453C385.778 271.406 386.121 271.462 386.427 271.612C386.732 271.762 386.986 272 387.156 272.295L413.087 317.605C415.021 320.973 416.033 324.791 416.022 328.674C416.01 332.558 414.975 336.37 413.021 339.726C411.067 343.082 408.263 345.864 404.892 347.791C401.52 349.719 397.7 350.723 393.817 350.704ZM386.296 277.668L374.752 323.252C373.878 326.726 374.017 330.377 375.152 333.774C376.287 337.172 378.37 340.174 381.156 342.425L382.113 343.2C385.512 345.938 389.761 347.402 394.125 347.341C398.489 347.28 402.694 345.696 406.015 342.864C409.336 340.032 411.563 336.128 412.312 331.829C413.062 327.529 412.286 323.103 410.119 319.314L386.296 277.668Z" fill="black"/>
<path d="M104.111 295.554L87.8377 337.149C86.5954 340.324 86.2905 343.789 86.9592 347.132C87.6278 350.475 89.2419 353.556 91.6097 356.009L92.3561 356.784C95.5877 360.123 99.9958 362.066 104.64 362.2C109.285 362.335 113.798 360.649 117.216 357.502C119.902 355.028 121.763 351.787 122.545 348.22C123.328 344.653 122.995 340.931 121.592 337.559L104.111 295.554Z" fill="#80BFFF"/>
<path d="M105.171 363.872C102.55 363.881 99.9543 363.361 97.539 362.344C95.1238 361.327 92.9385 359.833 91.1137 357.952L90.3673 357.183C87.7778 354.491 86.0129 351.114 85.2808 347.45C84.5488 343.787 84.8804 339.991 86.2363 336.511L102.504 294.916C102.628 294.597 102.845 294.323 103.126 294.129C103.408 293.935 103.741 293.83 104.082 293.827C104.42 293.827 104.75 293.928 105.031 294.115C105.312 294.303 105.531 294.569 105.661 294.881L123.159 336.87C124.4 339.832 124.889 343.056 124.582 346.253C124.274 349.451 123.181 352.522 121.398 355.194C119.615 357.866 117.199 360.055 114.364 361.566C111.53 363.078 108.366 363.864 105.153 363.855L105.171 363.872ZM104.151 300.118L89.4214 337.759C88.3034 340.63 88.0313 343.762 88.6372 346.783C89.243 349.804 90.7015 352.588 92.8402 354.807L93.5866 355.576C96.1913 358.279 99.6588 359.987 103.389 360.404C107.12 360.821 110.879 359.921 114.016 357.86C117.153 355.799 119.472 352.706 120.57 349.117C121.668 345.527 121.478 341.667 120.031 338.203L104.151 300.118Z" fill="black"/>
<path d="M139.9 374.408L135.581 401.861C135.253 403.957 135.532 406.103 136.387 408.045C137.241 409.987 138.634 411.644 140.401 412.818L140.971 413.188C143.383 414.788 146.325 415.382 149.169 414.842C152.013 414.302 154.533 412.672 156.191 410.299C157.494 408.436 158.193 406.217 158.193 403.943C158.193 401.669 157.494 399.45 156.191 397.587L139.9 374.408Z" fill="#80BFFF"/>
<path d="M147.039 416.721C144.54 416.726 142.096 415.992 140.013 414.613L139.443 414.242C137.406 412.884 135.8 410.972 134.815 408.73C133.829 406.489 133.506 404.012 133.882 401.593L138.201 374.14C138.254 373.803 138.406 373.49 138.638 373.24C138.87 372.991 139.171 372.816 139.503 372.739C139.835 372.662 140.182 372.686 140.501 372.807C140.819 372.929 141.094 373.143 141.289 373.422L157.551 396.602C158.902 398.52 159.698 400.773 159.852 403.113C160.006 405.454 159.512 407.792 158.425 409.871C157.338 411.949 155.699 413.688 153.688 414.897C151.678 416.105 149.373 416.736 147.027 416.721H147.039ZM140.93 378.852L137.272 402.123C137.001 403.892 137.24 405.702 137.961 407.341C138.683 408.979 139.857 410.377 141.346 411.371L141.916 411.741C143.737 412.945 145.921 413.476 148.091 413.243C150.262 413.01 152.283 412.027 153.807 410.464C155.33 408.9 156.261 406.855 156.438 404.679C156.615 402.503 156.027 400.334 154.776 398.545L140.93 378.852Z" fill="black"/>
<path d="M94.5383 398.801L78.2079 433.416C76.9612 436.06 76.4988 439.005 76.8755 441.904C77.2522 444.802 78.4522 447.532 80.3333 449.769L80.9031 450.47C83.4706 453.521 87.13 455.446 91.0986 455.834C95.0673 456.221 99.03 455.04 102.139 452.544C104.582 450.584 106.363 447.919 107.241 444.913C108.118 441.906 108.05 438.702 107.045 435.735L94.5383 398.801Z" fill="#80BFFF"/>
<path d="M92.6452 457.575C90.1659 457.588 87.714 457.057 85.4617 456.02C83.2094 454.984 81.2115 453.467 79.6083 451.575L79.0385 450.869C76.9503 448.38 75.6176 445.346 75.1976 442.124C74.7776 438.902 75.2879 435.628 76.6681 432.687L93.0042 398.072C93.1493 397.762 93.3838 397.504 93.6773 397.329C93.9708 397.154 94.3099 397.072 94.6509 397.091C94.9878 397.111 95.3115 397.229 95.5812 397.432C95.851 397.635 96.0546 397.913 96.1665 398.231L108.702 435.165C109.813 438.465 109.886 442.026 108.911 445.369C107.936 448.712 105.96 451.675 103.249 453.86C100.243 456.275 96.5007 457.586 92.6452 457.575ZM94.2805 403.354L79.7507 434.123C78.6459 436.47 78.2368 439.086 78.5721 441.659C78.9074 444.232 79.9729 446.655 81.6424 448.641L82.2122 449.347C84.2483 451.768 87.0664 453.4 90.1789 453.963C93.2914 454.525 96.5025 453.982 99.2568 452.427C102.011 450.872 104.135 448.403 105.262 445.448C106.388 442.492 106.446 439.236 105.426 436.242L94.2805 403.354Z" fill="black"/>
<path d="M442.741 347.303L435.128 383.2C434.541 385.945 434.756 388.802 435.747 391.428C436.738 394.055 438.464 396.341 440.718 398.015L441.43 398.544C444.5 400.827 448.341 401.817 452.132 401.304C455.923 400.791 459.363 398.815 461.715 395.798C463.563 393.427 464.637 390.546 464.792 387.544C464.947 384.543 464.175 381.566 462.581 379.018L442.741 347.303Z" fill="#80BFFF"/>
<path d="M450.119 403.108C446.632 403.111 443.236 401.993 440.433 399.918L439.72 399.405C437.206 397.537 435.28 394.988 434.169 392.06C433.058 389.131 432.81 385.946 433.453 382.881L441.071 346.955C441.139 346.62 441.305 346.314 441.549 346.074C441.793 345.835 442.103 345.675 442.439 345.613C442.775 345.552 443.122 345.593 443.435 345.73C443.747 345.868 444.011 346.096 444.193 346.385L464.034 378.106C465.587 380.582 466.446 383.43 466.522 386.353C466.598 389.275 465.889 392.164 464.467 394.718C463.045 397.272 460.964 399.398 458.44 400.873C455.916 402.348 453.042 403.118 450.119 403.103V403.108ZM443.538 351.793L436.797 383.576C436.289 385.999 436.484 388.517 437.359 390.832C438.235 393.148 439.754 395.166 441.737 396.647L442.45 397.171C444.869 398.972 447.842 399.87 450.854 399.711C453.865 399.552 456.727 398.345 458.943 396.3C461.16 394.255 462.592 391.499 462.992 388.51C463.391 385.52 462.734 382.485 461.133 379.929L443.538 351.793Z" fill="black"/>
<path d="M368.968 396.875L360.341 437.581C359.681 440.689 359.928 443.92 361.051 446.892C362.174 449.863 364.127 452.45 366.677 454.345L367.48 454.914C370.96 457.5 375.313 458.622 379.608 458.04C383.904 457.457 387.801 455.217 390.466 451.798C392.562 449.114 393.78 445.85 393.957 442.449C394.133 439.048 393.259 435.676 391.452 432.789L368.968 396.875Z" fill="#80BFFF"/>
<path d="M377.328 459.894C373.416 459.905 369.605 458.652 366.462 456.322L365.658 455.723C362.851 453.628 360.701 450.774 359.462 447.497C358.223 444.22 357.947 440.657 358.667 437.228L367.299 396.522C367.367 396.187 367.534 395.88 367.778 395.641C368.022 395.402 368.332 395.241 368.668 395.18C369.004 395.119 369.351 395.159 369.663 395.297C369.976 395.435 370.24 395.663 370.422 395.952L392.906 431.9C394.646 434.672 395.608 437.861 395.694 441.132C395.78 444.403 394.985 447.638 393.393 450.497C391.801 453.356 389.47 455.735 386.644 457.385C383.818 459.035 380.6 459.896 377.328 459.877V459.894ZM369.767 401.371L362.012 437.94C361.427 440.729 361.653 443.627 362.663 446.291C363.673 448.956 365.424 451.276 367.71 452.977L368.513 453.547C371.298 455.617 374.719 456.649 378.185 456.465C381.65 456.281 384.943 454.893 387.493 452.539C390.043 450.185 391.691 447.015 392.152 443.575C392.613 440.136 391.858 436.643 390.017 433.701L369.767 401.371Z" fill="black"/>
<path d="M205.363 317.007C204.927 317.009 204.508 316.841 204.195 316.54C203.865 316.23 203.672 315.803 203.657 315.351C203.642 314.899 203.807 314.46 204.115 314.129C204.394 313.833 211.038 306.847 222.918 302.853C233.841 299.172 251.408 297.474 273.06 310.26C273.275 310.361 273.466 310.505 273.622 310.684C273.777 310.862 273.894 311.071 273.965 311.298C274.036 311.524 274.059 311.762 274.032 311.998C274.006 312.233 273.931 312.461 273.812 312.666C273.693 312.871 273.533 313.049 273.342 313.188C273.15 313.328 272.932 313.427 272.7 313.477C272.469 313.528 272.229 313.53 271.997 313.484C271.765 313.437 271.545 313.342 271.351 313.206C254.906 303.52 239.038 301.081 224.172 306.027C213.061 309.725 206.685 316.391 206.616 316.46C206.456 316.632 206.262 316.77 206.046 316.864C205.831 316.958 205.598 317.007 205.363 317.007Z" fill="black"/>
<path d="M395.275 515.073C394.822 515.083 394.383 514.912 394.056 514.599C393.728 514.285 393.539 513.854 393.529 513.401C393.519 512.948 393.69 512.509 394.003 512.181C394.317 511.854 394.748 511.664 395.201 511.655L430.563 510.122C431.016 510.102 431.459 510.263 431.793 510.57C432.127 510.877 432.326 511.304 432.346 511.757C432.366 512.211 432.204 512.653 431.898 512.988C431.591 513.322 431.164 513.521 430.711 513.541L395.349 515.079L395.275 515.073Z" fill="black"/>
<path d="M214.651 269.657C212.641 269.658 210.656 269.209 208.842 268.343C207.028 267.476 205.431 266.215 204.168 264.651C202.906 263.087 202.009 261.26 201.544 259.305C201.08 257.349 201.059 255.314 201.483 253.349L235.506 95.3446C235.544 95.1168 235.628 94.8992 235.753 94.7049C235.878 94.5105 236.041 94.3435 236.232 94.2138C236.423 94.0841 236.638 93.9945 236.865 93.9504C237.092 93.9063 237.325 93.9086 237.551 93.9572C237.777 94.0057 237.99 94.0995 238.179 94.2329C238.367 94.3663 238.527 94.5365 238.648 94.7333C238.769 94.93 238.849 95.1493 238.882 95.3777C238.916 95.6062 238.904 95.8391 238.845 96.0625L204.822 254.067C204.481 255.657 204.53 257.306 204.966 258.872C205.402 260.439 206.211 261.877 207.324 263.062C208.437 264.248 209.821 265.145 211.357 265.679C212.893 266.212 214.536 266.365 216.144 266.124L248.315 261.286C248.54 261.246 248.77 261.251 248.993 261.302C249.215 261.352 249.426 261.446 249.611 261.579C249.797 261.712 249.954 261.881 250.073 262.076C250.193 262.27 250.272 262.487 250.306 262.712C250.34 262.938 250.329 263.168 250.273 263.39C250.217 263.611 250.117 263.819 249.979 264.001C249.841 264.183 249.668 264.335 249.471 264.449C249.273 264.564 249.054 264.637 248.828 264.665L216.634 269.491C215.978 269.596 215.315 269.651 214.651 269.657Z" fill="black"/>
<path d="M315.989 558.129L286.165 562.869C277.773 564.203 272.052 572.086 273.385 580.478L274.26 585.981C275.594 594.373 283.477 600.094 291.868 598.76L321.693 594.021C330.085 592.687 335.806 584.804 334.473 576.412L333.598 570.909C332.264 562.517 324.381 556.796 315.989 558.129Z" fill="white"/>
<path d="M289.443 600.925C285.318 600.907 281.334 599.423 278.203 596.738C275.071 594.054 272.997 590.343 272.349 586.27L271.472 580.765C270.75 576.214 271.864 571.562 274.571 567.832C277.277 564.102 281.354 561.599 285.905 560.874L315.733 556.133C320.286 555.411 324.938 556.526 328.669 559.234C332.399 561.942 334.901 566.02 335.625 570.572L336.497 576.07C336.856 578.324 336.767 580.627 336.236 582.846C335.705 585.066 334.742 587.159 333.402 589.006C332.061 590.854 330.37 592.419 328.425 593.612C326.479 594.805 324.318 595.604 322.064 595.962L292.241 600.702C291.316 600.851 290.38 600.926 289.443 600.925ZM318.463 559.899C317.749 559.9 317.036 559.957 316.332 560.07L286.503 564.811C284.766 565.086 283.101 565.7 281.602 566.619C280.103 567.538 278.8 568.743 277.767 570.167C276.735 571.59 275.993 573.202 275.584 574.913C275.176 576.623 275.108 578.397 275.386 580.133L276.258 585.637C276.817 589.144 278.745 592.285 281.619 594.371C284.493 596.457 288.078 597.316 291.585 596.759L321.409 592.019C324.915 591.46 328.057 589.531 330.143 586.657C332.228 583.783 333.087 580.199 332.531 576.691L331.653 571.193C331.157 568.049 329.557 565.185 327.139 563.115C324.722 561.045 321.645 559.905 318.463 559.899Z" fill="black"/>
<path d="M323.136 593.265L293.311 598.004C284.92 599.338 279.198 607.222 280.532 615.613L281.444 621.353C282.778 629.744 290.661 635.466 299.052 634.132L328.877 629.392C337.269 628.059 342.99 620.175 341.657 611.784L340.744 606.044C339.411 597.653 331.527 591.931 323.136 593.265Z" fill="white"/>
<path d="M296.627 636.292C292.497 636.282 288.504 634.802 285.366 632.117C282.227 629.431 280.148 625.716 279.499 621.637L278.587 615.899C278.228 613.645 278.317 611.342 278.848 609.123C279.379 606.903 280.342 604.81 281.683 602.963C283.023 601.115 284.714 599.55 286.66 598.357C288.605 597.164 290.766 596.365 293.02 596.007L322.844 591.267C325.097 590.907 327.4 590.996 329.62 591.527C331.839 592.058 333.932 593.021 335.78 594.362C337.627 595.702 339.192 597.393 340.385 599.339C341.579 601.284 342.377 603.445 342.735 605.7L343.653 611.443C344.374 615.995 343.259 620.648 340.551 624.378C337.844 628.108 333.766 630.61 329.214 631.335L299.391 636.075C298.477 636.221 297.553 636.293 296.627 636.292ZM325.584 595.039C324.876 595.037 324.169 595.093 323.47 595.204L293.647 599.945C290.14 600.503 286.999 602.432 284.913 605.306C282.828 608.18 281.968 611.765 282.525 615.272L283.436 621.01C283.712 622.747 284.327 624.413 285.246 625.912C286.166 627.411 287.372 628.715 288.795 629.748C290.219 630.781 291.832 631.523 293.542 631.932C295.253 632.341 297.027 632.409 298.764 632.132L328.587 627.392C330.324 627.116 331.989 626.502 333.488 625.582C334.987 624.663 336.29 623.458 337.323 622.035C338.356 620.612 339.098 619 339.508 617.29C339.917 615.58 339.986 613.806 339.71 612.07L338.798 606.326C338.293 603.183 336.687 600.321 334.266 598.253C331.846 596.185 328.768 595.046 325.584 595.039Z" fill="black"/>
<path d="M326.956 627.947L297.131 632.687C288.74 634.02 283.019 641.904 284.352 650.295L285.088 654.926C286.422 663.318 294.305 669.039 302.697 667.706L332.521 662.966C340.913 661.632 346.634 653.749 345.301 645.357L344.565 640.726C343.231 632.335 335.348 626.613 326.956 627.947Z" fill="white"/>
<path d="M300.268 669.87C296.143 669.852 292.159 668.368 289.028 665.684C285.896 662.999 283.822 659.288 283.174 655.215L282.439 650.582C282.08 648.328 282.168 646.026 282.7 643.806C283.231 641.587 284.194 639.494 285.534 637.646C286.875 635.799 288.566 634.234 290.511 633.041C292.456 631.847 294.618 631.049 296.872 630.691L326.695 625.95C331.247 625.228 335.9 626.344 339.63 629.051C343.36 631.759 345.863 635.837 346.587 640.389L347.322 645.015C347.681 647.269 347.592 649.572 347.061 651.791C346.53 654.011 345.567 656.104 344.227 657.952C342.886 659.799 341.195 661.364 339.25 662.557C337.304 663.751 335.143 664.549 332.889 664.907L303.066 669.648C302.141 669.797 301.205 669.871 300.268 669.87ZM329.424 629.722C328.711 629.723 327.998 629.78 327.293 629.893L297.47 634.634C295.734 634.909 294.068 635.524 292.57 636.443C291.071 637.362 289.768 638.567 288.735 639.99C287.702 641.413 286.959 643.026 286.55 644.736C286.14 646.445 286.072 648.219 286.348 649.956L287.083 654.588C287.642 658.095 289.57 661.236 292.444 663.322C295.318 665.408 298.903 666.267 302.41 665.71L332.234 660.97C335.74 660.411 338.882 658.482 340.968 655.608C343.053 652.734 343.912 649.15 343.356 645.642L342.621 641.016C342.119 637.873 340.516 635.012 338.099 632.943C335.681 630.874 332.606 629.732 329.424 629.722Z" fill="black"/>
<path d="M491.002 577.181C491.002 577.181 529.748 602.252 553.68 584.589C577.611 566.925 577.611 540.144 577.611 540.144L491.002 577.181Z" fill="#F8BE5A"/>
<path d="M532.831 592.566C526.712 592.566 520.011 591.426 512.843 589.147C504.852 586.564 497.201 583.033 490.051 578.629C489.79 578.46 489.58 578.224 489.443 577.946C489.307 577.667 489.248 577.356 489.275 577.047C489.301 576.738 489.411 576.442 489.593 576.19C489.775 575.939 490.022 575.742 490.307 575.62L576.916 538.583C577.177 538.467 577.462 538.418 577.746 538.441C578.03 538.463 578.303 538.556 578.542 538.711C578.781 538.866 578.978 539.079 579.114 539.329C579.25 539.579 579.321 539.86 579.321 540.145C579.321 541.284 579.042 567.996 554.694 585.962C548.734 590.361 541.344 592.566 532.831 592.566ZM494.775 577.415C504.005 582.623 533.606 597.267 552.666 583.204C571.241 569.489 574.968 549.877 575.714 542.805L494.775 577.415Z" fill="black"/>
<path d="M449.976 593.135C458.523 609.659 477.326 613.198 486.443 606.241C493.411 600.93 495.861 588.685 491.001 577.181L449.976 593.135Z" fill="#F8BE5A"/>
<path d="M475.447 611.335C473.454 611.329 471.469 611.102 469.527 610.657C460.626 608.662 452.946 602.566 448.444 593.922C448.333 593.709 448.269 593.475 448.254 593.236C448.24 592.996 448.276 592.756 448.36 592.531C448.444 592.307 448.575 592.102 448.744 591.932C448.913 591.761 449.115 591.627 449.339 591.54L490.364 575.586C490.779 575.425 491.24 575.432 491.649 575.605C492.059 575.779 492.385 576.105 492.558 576.515C497.515 588.252 495.321 601.614 487.464 607.603C484.256 610.053 480.051 611.335 475.447 611.335ZM452.427 594.019C456.524 600.856 462.94 605.677 470.273 607.323C476.045 608.617 481.703 607.705 485.407 604.879C491.737 600.059 493.612 589.324 490.034 579.392L452.427 594.019Z" fill="black"/>
<path d="M325.761 740.713L522.341 739.573L310.946 699.687L325.761 740.713Z" fill="black"/>
<path d="M504.677 665.5C504.556 665.5 504.436 665.487 504.318 665.46L464.432 656.913C464.007 656.801 463.641 656.529 463.41 656.154C463.18 655.78 463.103 655.33 463.195 654.9C463.288 654.47 463.543 654.092 463.907 653.845C464.271 653.598 464.716 653.501 465.15 653.574L505.036 662.121C505.447 662.211 505.81 662.45 506.056 662.791C506.302 663.132 506.413 663.552 506.369 663.971C506.325 664.389 506.127 664.776 505.815 665.058C505.503 665.341 505.098 665.498 504.677 665.5Z" fill="black"/>
</svg>
