<svg width="52" height="52" viewBox="0 0 52 52" fill="none" xmlns="http://www.w3.org/2000/svg">
<rect opacity="0.15" x="1.86356" y="1.70401" width="48.4573" height="48.4573" rx="24.2287" stroke="#0A142F" stroke-width="1.93829"/>
<path fill-rule="evenodd" clip-rule="evenodd" d="M25.8496 22.6068L25.8861 23.2216L25.2792 23.1463C23.0701 22.8578 21.1401 21.8791 19.5015 20.2354L18.7004 19.4199L18.4941 20.0222C18.0571 21.3647 18.3363 22.7825 19.2466 23.7361C19.7322 24.263 19.6229 24.3383 18.7854 24.0246C18.4941 23.9243 18.2392 23.849 18.2149 23.8866C18.13 23.9745 18.4213 25.1162 18.6519 25.5679C18.9675 26.1953 19.6108 26.8101 20.3148 27.1739L20.9095 27.4625L20.2055 27.4751C19.5258 27.4751 19.5015 27.4876 19.5744 27.7511C19.8171 28.5666 20.776 29.4324 21.8441 29.8088L22.5967 30.0723L21.9412 30.4738C20.9702 31.0509 19.8293 31.3772 18.6883 31.4023C18.1421 31.4148 17.693 31.465 17.693 31.5026C17.693 31.6281 19.1738 32.3307 20.0356 32.6068C22.621 33.4223 25.6919 33.071 27.998 31.6783C29.6367 30.6871 31.2753 28.7172 32.04 26.8101C32.4526 25.7938 32.8653 23.9368 32.8653 23.046C32.8653 22.4688 32.9017 22.3935 33.5815 21.7034C33.982 21.3019 34.3583 20.8628 34.4311 20.7373C34.5525 20.4989 34.5404 20.4989 33.9213 20.7122C32.8896 21.0886 32.744 21.0385 33.2537 20.4738C33.63 20.0723 34.0791 19.3446 34.0791 19.1313C34.0791 19.0937 33.8971 19.1564 33.6907 19.2693C33.4722 19.3948 32.9867 19.583 32.6226 19.6959L31.9671 19.9092L31.3724 19.4952C31.0447 19.2693 30.5834 19.0184 30.3407 18.9431C29.7216 18.7675 28.7749 18.7925 28.2165 18.9933C26.6993 19.5579 25.7404 21.0134 25.8496 22.6068Z" fill="#0A142F"/>
</svg>
